<?xml version="1.0" encoding="UTF-8" standalone="no"?>
<svg width="721px" height="592px" viewBox="0 0 721 592" version="1.1" xmlns="http://www.w3.org/2000/svg" xmlns:xlink="http://www.w3.org/1999/xlink">
    <!-- Generator: Sketch 48.2 (47327) - http://www.bohemiancoding.com/sketch -->
    <title>Group 9</title>
    <desc>Created with Sketch.</desc>
    <defs>
        <linearGradient x1="50%" y1="-5.39167217%" x2="50%" y2="100%" id="linearGradient-1">
            <stop stop-color="#FFF68F" offset="0%"></stop>
            <stop stop-color="#FFD877" stop-opacity="0.0320991848" offset="100%"></stop>
        </linearGradient>
        <circle id="path-2" cx="46" cy="41" r="21"></circle>
        <filter x="-56.0%" y="-51.2%" width="211.9%" height="211.9%" filterUnits="objectBoundingBox" id="filter-3">
            <feOffset dx="0" dy="2" in="SourceAlpha" result="shadowOffsetOuter1"></feOffset>
            <feGaussianBlur stdDeviation="7.5" in="shadowOffsetOuter1" result="shadowBlurOuter1"></feGaussianBlur>
            <feColorMatrix values="0 0 0 0 0.992692389   0 0 0 0 0.961788258   0 0 0 0 0.961788258  0 0 0 1 0" type="matrix" in="shadowBlurOuter1"></feColorMatrix>
        </filter>
        <linearGradient x1="-9.51878712%" y1="-30.4403632%" x2="100%" y2="100%" id="linearGradient-4">
            <stop stop-color="#FFFFFF" offset="0%"></stop>
            <stop stop-color="#FFF8C7" offset="100%"></stop>
        </linearGradient>
        <linearGradient x1="100%" y1="55.1294148%" x2="0%" y2="55.1294148%" id="linearGradient-5">
            <stop stop-color="#49989D" offset="0%"></stop>
            <stop stop-color="#B3DB9F" stop-opacity="0.490998641" offset="100%"></stop>
        </linearGradient>
        <filter x="-103.0%" y="-97.8%" width="306.0%" height="298.1%" filterUnits="objectBoundingBox" id="filter-6">
            <feOffset dx="0" dy="2" in="SourceAlpha" result="shadowOffsetOuter1"></feOffset>
            <feGaussianBlur stdDeviation="51.5" in="shadowOffsetOuter1" result="shadowBlurOuter1"></feGaussianBlur>
            <feColorMatrix values="0 0 0 0 0.661325468   0 0 0 0 0.596949567   0 0 0 0 0.316454569  0 0 0 1 0" type="matrix" in="shadowBlurOuter1" result="shadowMatrixOuter1"></feColorMatrix>
            <feMerge>
                <feMergeNode in="shadowMatrixOuter1"></feMergeNode>
                <feMergeNode in="SourceGraphic"></feMergeNode>
            </feMerge>
        </filter>
        <linearGradient x1="50%" y1="0%" x2="50%" y2="100%" id="linearGradient-7">
            <stop stop-color="#EEDA82" offset="0%"></stop>
            <stop stop-color="#D2C52C" offset="100%"></stop>
        </linearGradient>
        <linearGradient x1="50%" y1="0%" x2="50%" y2="100%" id="linearGradient-8">
            <stop stop-color="#FFF835" offset="0%"></stop>
            <stop stop-color="#D6A236" offset="100%"></stop>
        </linearGradient>
        <linearGradient x1="17.1607772%" y1="10.3267838%" x2="50%" y2="100%" id="linearGradient-9">
            <stop stop-color="#CABD47" stop-opacity="0.500537817" offset="0%"></stop>
            <stop stop-color="#6279A9" stop-opacity="0" offset="100%"></stop>
        </linearGradient>
        <linearGradient x1="36.5497507%" y1="-1494.92858%" x2="50%" y2="1785.81956%" id="linearGradient-10">
            <stop stop-color="#EEF5C9" offset="0%"></stop>
            <stop stop-color="#DAFF3A" stop-opacity="0" offset="100%"></stop>
        </linearGradient>
        <circle id="path-11" cx="46" cy="201" r="21"></circle>
        <filter x="-56.0%" y="-51.2%" width="211.9%" height="211.9%" filterUnits="objectBoundingBox" id="filter-12">
            <feOffset dx="0" dy="2" in="SourceAlpha" result="shadowOffsetOuter1"></feOffset>
            <feGaussianBlur stdDeviation="7.5" in="shadowOffsetOuter1" result="shadowBlurOuter1"></feGaussianBlur>
            <feColorMatrix values="0 0 0 0 0.992692389   0 0 0 0 0.961788258   0 0 0 0 0.961788258  0 0 0 1 0" type="matrix" in="shadowBlurOuter1"></feColorMatrix>
        </filter>
    </defs>
    <g id="Fold-2a-Copy-20" stroke="none" stroke-width="1" fill="none" fill-rule="evenodd" transform="translate(-280.000000, 0.000000)">
        <g id="Group-9" transform="translate(280.000000, 0.000000)">
            <g id="Group-8">
                <g id="Group-7">
                    <g id="Group-5" transform="translate(0.000000, 160.000000)">
                        <g id="Group-3" transform="translate(0.000000, 354.000000)" fill="#46ABB0">
                            <g id="Group-2-Copy">
                                <ellipse id="Oval-8" cx="360.5" cy="39" rx="360.5" ry="39"></ellipse>
                            </g>
                        </g>
                        <path d="M582.956147,392.932335 C583.441735,295.666422 582.956147,337.119321 582.956147,275.224788 C582.956147,164.047324 508.223208,66.7179156 403.925377,45.4342668 C389.166554,42.4224917 370.120554,45.4342668 354.478073,45.4342668 C338.271488,45.4342668 319.433183,42.2071665 304.18092,45.4342668 C200.678607,67.333466 126,164.614668 126,275.224788 C126,328.202128 126,290.779462 126,351.755409 C126,362.247233 126,375.652281 126,392.932335 C190.931269,392.932335 486.316264,392.31578 582.956147,392.932335 Z" id="Oval-17" fill="url(#linearGradient-1)"></path>
                        <path d="M302.922671,369.422528 C301.08713,366.348107 302.075578,362.358266 305.130431,360.510967 L335.859878,341.928581 C338.914731,340.081283 342.879179,341.076062 344.71472,344.150483 C346.550261,347.224903 345.561813,351.214745 342.50696,353.062043 L311.777512,371.64443 C308.722659,373.491728 304.758212,372.496949 302.922671,369.422528 Z" id="Rectangle-16-Copy-5" fill="#77787B"></path>
                        <path d="M375.71472,369.422528 C373.879179,372.496949 369.914731,373.491728 366.859878,371.64443 L336.130431,353.062043 C333.075578,351.214745 332.08713,347.224903 333.922671,344.150483 C335.758212,341.076062 339.722659,340.081283 342.777512,341.928581 L373.50696,360.510967 C376.561813,362.358266 377.550261,366.348107 375.71472,369.422528 Z" id="Rectangle-16-Copy-6" fill="#77787B"></path>
                        <path d="M339.5,260 L339.5,260 C343.089851,260 346,262.910149 346,266.5 L346,366.5 C346,370.089851 343.089851,373 339.5,373 L339.5,373 C335.910149,373 333,370.089851 333,366.5 L333,266.5 C333,262.910149 335.910149,260 339.5,260 Z" id="Rectangle-16-Copy-4" fill="#77787B"></path>
                        <path d="M266.546368,219.804474 C262.6108,200.249599 258.908965,185.183602 290.888354,185.033398 C322.867744,184.883194 313.422153,185.304264 325.455659,185.033398 C337.489164,184.762533 342.386388,194.721242 347.934093,207.201201 C353.481798,219.68116 363.547919,258.478543 366.209534,261.099025 C379.913615,260.990091 377.543253,261.099025 401.459088,261.099025 C425.374923,261.099025 424.312992,288.149614 401.459088,288.149614 C378.605183,288.149614 302.398155,290.062982 293.600506,288.149614 C284.802858,286.236246 270.481937,239.359348 266.546368,219.804474 Z" id="Path-21" fill="#FF7C7C"></path>
                        <path d="M241,250 L241,250 C245.418278,250 249,253.581722 249,258 L249,375 C249,379.418278 245.418278,383 241,383 L241,383 C236.581722,383 233,379.418278 233,375 L233,258 C233,253.581722 236.581722,250 241,250 Z" id="Rectangle-16" fill="#45999D"></path>
                        <path d="M267,250 L267,250 C270.865993,250 274,253.134007 274,257 L274,369 C274,372.865993 270.865993,376 267,376 L267,376 C263.134007,376 260,372.865993 260,369 L260,257 C260,253.134007 263.134007,250 267,250 Z" id="Rectangle-16-Copy-2" fill="#3E888C"></path>
                        <path d="M429,249 L429,249 C432.865993,249 436,252.134007 436,256 L436,368 C436,371.865993 432.865993,375 429,375 L429,375 C425.134007,375 422,371.865993 422,368 L422,256 C422,252.134007 425.134007,249 429,249 Z" id="Rectangle-16-Copy-3" fill="#3E888C"></path>
                        <path d="M456,250 L456,250 C460.418278,250 464,253.581722 464,258 L464,375 C464,379.418278 460.418278,383 456,383 L456,383 C451.581722,383 448,379.418278 448,375 L448,258 C448,253.581722 451.581722,250 456,250 Z" id="Rectangle-16-Copy" fill="#45999D"></path>
                        <g id="Group-6" transform="translate(316.000000, 0.000000)">
                            <g id="Oval-15">
                                <use fill="black" fill-opacity="1" filter="url(#filter-3)" xlink:href="#path-2"></use>
                                <use fill="#FFFFE7" fill-rule="evenodd" xlink:href="#path-2"></use>
                            </g>
                            <path d="M89,45.6734001 C89,20.4486777 69.0766714,0 44.5,0 C19.9233286,0 0,20.4486777 0,45.6734001 C37.8187149,46.238071 50.3075223,45.9576311 89,45.6734001 Z" id="Oval-12" fill="#FF6B6B"></path>
                            <path d="M49,6 C61.5309035,14.4120066 67.3357816,26.2771382 68.8278363,38 L83,37.7302632 C82.7947208,36.8957989 82.3895101,35.7247463 81.7843681,34.2171053 C75.582362,18.7655285 66.8263403,7.62510746 49,6 Z" id="Path-24" fill="#FFFFFF"></path>
                            <path d="M32,48 C33.0008212,51.3341027 45.6059176,66.0363861 59.2531806,48" id="Path-26" stroke="url(#linearGradient-4)" stroke-width="2" opacity="0.681782156" stroke-linecap="round"></path>
                        </g>
                        <g id="Group-14" transform="translate(484.000000, 77.000000)">
                            <path d="M19.5922906,35.8030478 C45.1104134,1.20942863 180.159191,2.88104344 201.36614,32.7770666 C215.504107,52.7077487 219.862254,143.300928 214.440582,304.556604 L7.49686138,304.556604 C-1.45160098,148.449979 2.58020877,58.8654605 19.5922906,35.8030478 Z" id="Rectangle-5-Copy-2" fill="#2E7B7F"></path>
                            <rect id="Rectangle-7" fill="#46ABB0" x="110.5" y="203.518868" width="100.454545" height="83.7169811"></rect>
                            <path d="M32.5277689,197.725901 C28.4297987,87.0361956 30.5027934,30.2690714 38.7467532,27.4245283 C5.38723951,36.7832244 7.75123148,174.231806 9.44103195,194.041816 C10.5675656,207.24849 18.2631446,208.476518 32.5277689,197.725901 Z" id="Path-23" fill="#44969A"></path>
                            <path d="M210.475821,197.725901 C206.377851,87.0361956 208.450845,30.2690714 216.694805,27.4245283 C183.335291,36.7832244 185.699283,174.231806 187.389084,194.041816 C188.515618,207.24849 196.211197,208.476518 210.475821,197.725901 Z" id="Path-23-Copy" fill="#44969A" transform="translate(201.626623, 116.193396) scale(-1, 1) translate(-201.626623, -116.193396) "></path>
                            <rect id="Rectangle-7-Copy" fill="#46ABB0" x="10.0454545" y="203.518868" width="100.454545" height="83.7169811"></rect>
                            <path d="M111.217532,203.518868 L111.217532,288.679245" id="Path-22" stroke="#3E8285" stroke-width="3"></path>
                            <rect id="Rectangle-6-Copy" fill="#3E8285" x="11.4805195" y="196.301887" width="196.603896" height="8.66037736"></rect>
                            <rect id="Rectangle-6" fill="#3E8285" x="11.4805195" y="119.801887" width="196.603896" height="8.66037736"></rect>
                            <path d="M17.2833071,26.7070888 C43.6577427,-9.24314279 183.238359,-7.50597447 205.15695,23.5624418 C219.769345,44.2747193 224.273739,138.420572 218.670132,306 L4.78199095,306 C-4.46675538,143.771547 -0.299649997,50.6739099 17.2833071,26.7070888 Z M31.2193695,44.9405214 C16.1969203,65.4171881 12.6366472,144.957536 20.5385502,283.561565 L203.279355,283.561565 C208.06694,140.385794 204.218496,59.9498759 191.734023,42.2538117 C173.007313,15.7097155 53.7530433,14.2255213 31.2193695,44.9405214 Z" id="Combined-Shape" fill="#3D868A"></path>
                            <path d="M212.749041,306 C218.64852,258.598801 220.681267,55.7740146 201.3075,27.0526239 C180.562524,-3.70156671 43.5617029,-2.16030953 20.7975657,31.0200801 C-0.490339577,62.0487541 6.76582762,258.567109 10.5870813,306 L4.78199095,306 C-4.46675538,143.771547 -0.299649997,50.6739099 17.2833071,26.7070888 C43.6577427,-9.24314279 183.238359,-7.50597447 205.15695,23.5624418 C219.769345,44.2747193 224.273739,138.420572 218.670132,306 L212.749041,306 Z" id="Combined-Shape" fill="url(#linearGradient-5)"></path>
                            <ellipse id="Oval-7" fill="#3E8285" cx="129.155844" cy="239.603774" rx="5.74025974" ry="5.77358491"></ellipse>
                            <ellipse id="Oval-7-Copy-3" fill="#3E8285" cx="87.538961" cy="239.603774" rx="5.74025974" ry="5.77358491"></ellipse>
                            <g id="Group-4" transform="translate(40.181818, 36.084906)">
                                <g id="Group-12" transform="translate(31.093074, 0.000000)">
                                    <rect id="Rectangle-9-Copy" fill="#60C9B5" x="0" y="0" width="19.8995671" height="81.3601857" rx="2"></rect>
                                    <path d="M0,36.2991598 L19.8995671,36.2991598 L19.8995671,80.8365441 C19.8995671,81.9411136 19.0041366,82.8365441 17.8995671,82.8365441 L2,82.8365441 C0.8954305,82.8365441 4.05948992e-15,81.9411136 0,80.8365441 L0,36.2991598 Z" id="Rectangle-9-Copy-2" fill="#47AB98"></path>
                                    <path d="M0,43.9698045 L19.8995671,43.9698045" id="Path-20" stroke="#FFFFFF" stroke-width="3" opacity="0.503509964"></path>
                                    <path d="M0,28.0829043 L19.8995671,28.0829043" id="Path-20-Copy" stroke="#FFFFFF" stroke-width="3" opacity="0.503509964"></path>
                                </g>
                                <g id="Group-11" transform="translate(0.000000, 20.027123)">
                                    <rect id="Rectangle-9" fill="#65ACD1" x="0" y="0.277568373" width="28.6056277" height="63.0483491" rx="2"></rect>
                                    <ellipse id="Oval-11" fill="#FFFFFF" opacity="0.585597826" cx="14.7001142" cy="17.2218122" rx="8.34330808" ry="8.27509581"></ellipse>
                                    <rect id="Rectangle-10" fill="#5297BA" x="0" y="48.3519345" width="28.6056277" height="8.669148"></rect>
                                </g>
                                <g id="Group-11-Copy" transform="translate(0.000000, 96.380528)">
                                    <rect id="Rectangle-9" fill="#FF8E8E" x="0" y="0.277568373" width="28.6056277" height="63.0483491" rx="2"></rect>
                                    <ellipse id="Oval-11" fill="#FFFFFF" opacity="0.585597826" cx="14.7001142" cy="17.2218122" rx="8.34330808" ry="8.27509581"></ellipse>
                                    <rect id="Rectangle-10" fill="#D86C6C" x="0" y="48.3519345" width="28.6056277" height="8.669148"></rect>
                                </g>
                                <g id="Group-11-Copy-2" transform="translate(32.336797, 96.380528)">
                                    <rect id="Rectangle-9" fill="#88C65F" x="0" y="0.277568373" width="28.6056277" height="63.0483491" rx="2"></rect>
                                    <ellipse id="Oval-11" fill="#FFFFFF" opacity="0.585597826" cx="14.7001142" cy="17.2218122" rx="8.34330808" ry="8.27509581"></ellipse>
                                    <rect id="Rectangle-10" fill="#72AB4D" x="0" y="48.3519345" width="28.6056277" height="8.669148"></rect>
                                </g>
                                <g id="Group-11-Copy-3" transform="translate(64.673593, 96.380528)">
                                    <rect id="Rectangle-9" fill="#60C9B5" x="0" y="0.277568373" width="28.6056277" height="63.0483491" rx="2"></rect>
                                    <ellipse id="Oval-11" fill="#FFFFFF" opacity="0.585597826" cx="14.7001142" cy="17.2218122" rx="8.34330808" ry="8.27509581"></ellipse>
                                    <rect id="Rectangle-10" fill="#47AB98" x="0" y="48.3519345" width="28.6056277" height="8.669148"></rect>
                                </g>
                            </g>
                        </g>
                        <g id="Group-2" filter="url(#filter-6)" transform="translate(310.000000, 95.000000)">
                            <g id="student-copy" transform="translate(0.000000, 80.000000)" fill-rule="nonzero">
                                <path d="M31.4133281,0 L31.4133281,12.9546989 C31.4133281,14.9248503 30.1328444,16.6649389 28.2561314,17.2445447 L8.65751026,23.2960873 C4.90471755,24.4552989 2.34375,27.9351583 2.34375,31.8754612 L2.34375,64.5173748 C2.34375,70.7141366 7.34947898,75.7377049 13.5242352,75.7377049 L19.1144778,75.7377049 L77.8125,75.7377049 L77.8125,0 L31.4133281,0 Z" id="Shape" fill="#FFF3E4"></path>
                                <path d="M46.3472574,33.7076476 C35.5252063,33.7076476 25.9839557,28.0128801 20.5004201,19.4794577 L7.93876026,23.3541596 C4.18596755,24.5117772 1.625,27.9878042 1.625,31.9237675 L1.625,64.529732 C1.625,70.7196691 6.63072898,75.7377049 12.8054852,75.7377049 L18.3957278,75.7377049 L77.09375,75.7377049 L77.09375,2.8852459 C77.0940666,19.8375034 63.2579392,33.7076476 46.3472574,33.7076476 Z" id="Shape" fill="#FF8E64"></path>
                                <g id="Group" transform="translate(0.906250, 2.163934)">
                                    <path d="M76.8519378,0.163050742 C76.8519378,17.0064762 63.0537873,30.78726 46.1898372,30.78726 C35.3974902,30.78726 25.8824281,25.1290523 20.4139435,16.6504137 L14.8933571,18.3468353 C21.1743149,29.1053458 32.8214481,36.3552693 46.1898372,36.3552693 C59.1208865,36.3552693 70.4389886,29.5692678 76.8519378,19.389477 L76.8519378,0.163050742 Z" id="Shape" fill="#FF6960"></path>
                                    <path d="M47.5396287,60.0705605 L19.6648196,60.0705605 C18.1254465,60.0705605 16.8772123,58.8238689 16.8772123,57.2863981 L16.8772123,44.041758 C16.8772123,41.826854 15.9959015,39.7021483 14.4281093,38.1356628 L1.72220319,25.4454582 C0.734162526,26.8908384 0.152516344,28.6181671 0.152516344,30.4577705 L0.152516344,62.8544075 C0.152516344,69.0046058 5.14450575,73.9904262 11.3023137,73.9904262 L16.8772123,73.9904262 L55.9018188,73.9904262 L55.9018188,68.4224169 C55.9018188,63.8096893 52.1580635,60.0705605 47.5396287,60.0705605 Z" id="Shape" fill="#D3704B"></path>
                                </g>
                                <path d="M41.15625,62.0327869 L49.0625,62.0327869 C53.4289544,62.0327869 56.96875,65.7144039 56.96875,70.2557998 L56.96875,75.7377049 L41.15625,75.7377049 L41.15625,62.0327869 Z" id="Shape" fill="#FFF3E4"></path>
                            </g>
                            <path d="M40,76 C41.8968858,81.3333333 45.475677,84 50.7363736,84 C55.9970702,84 60.0849457,81.3333333 63,76 L40,76 Z" id="Path-3" fill="#FFFFFF"></path>
                            <g id="Group-9-Copy" transform="translate(1.000000, 0.000000)" fill-rule="nonzero">
                                <path d="M60.6666667,84.4087591 L30.6715697,84.4087591 L30.6715697,93.0029513 C30.6715697,94.8729057 29.6761074,96.5197903 28.1666667,97.4380454 C49.1301149,101.251337 60.6666667,84.4087591 60.6666667,84.4087591 Z" id="Shape" fill="#FFE6CB"></path>
                                <path d="M81.25,49.6064741 L81.25,44.6302761 C81.25,37.7597017 75.5912535,32.189781 68.6111111,32.189781 L23.1111111,32.189781 C16.1309688,32.189781 10.4722222,37.7597017 10.4722222,44.6302761 L10.4722222,49.6064741 C6.28401042,49.6064741 2.88888889,52.9483021 2.88888889,57.0707712 C2.88888889,61.1932402 6.28401042,64.5350682 10.4722222,64.5350682 L10.4722222,67.0231672 C10.4722222,73.0496541 14.1536146,78.4852174 19.8054097,80.8035036 L36.1383299,87.5020882 C39.219375,88.7657315 42.5238125,89.4160584 45.8611111,89.4160584 C49.1984097,89.4160584 52.5025312,88.7654205 55.5832604,87.5020882 L71.9171285,80.8031926 C77.5686076,78.4855284 81.25,73.0499651 81.25,67.0231672 L81.25,64.5350682 C85.4382118,64.5350682 88.8333333,61.1932402 88.8333333,57.0707712 C88.8333333,52.9483021 85.4382118,49.6064741 81.25,49.6064741 Z" id="Shape" fill="#FFF3E4"></path>
                                <path d="M23.7421076,75.3578171 C21.6939757,73.210584 20.5839653,70.3771632 20.5839653,67.4408605 L20.5839653,45.6268259 C27.560316,41.9369835 47.9468438,32.189781 68.6111111,32.189781 L23.1111111,32.189781 C22.2409236,32.189781 21.3982257,32.2889554 20.5833333,32.4619699 L20.5833333,32.4387983 C14.8146285,33.5840922 10.4722222,38.5693805 10.4722222,44.5479571 L10.4722222,49.4912276 C6.28401042,49.4912276 2.88888889,52.8109427 2.88888889,56.9061333 C2.88888889,61.0013239 6.28401042,64.321039 10.4722222,64.321039 L10.4722222,66.7926742 C10.4722222,72.7795926 14.1536146,78.1791887 19.8054097,80.4818259 L36.1380139,87.1360858 C36.9374236,87.4617237 37.7532639,87.7422543 38.5795313,87.9854015 C31.3614618,82.8221555 26.5571042,78.3086406 23.7421076,75.3578171 Z" id="Shape" fill="#FFE6CB"></path>
                                <path d="M88.4515742,12.334269 C88.4515742,12.334269 87.5471536,11.6861032 85.8580384,10.7123127 C85.4002999,5.02282271 83.3971805,2.46685381 83.3971805,2.46685381 L74.1732279,5.46808982 C66.1357941,2.63521658 54.8354334,0 40.4351498,0 C40.4351498,0 38.7766768,1.69596199 35.380756,2.46685381 C35.380756,2.46685381 26.7724917,0.616713452 17.690378,0 L12.6359843,12.334269 C12.6359843,12.334269 0,12.2315862 0,27.1353919 C0,32.6121157 3.13404001,46.285578 4.46366145,51.8409328 C5.85235613,50.3164171 7.85452784,49.3370761 10.1087874,49.3370761 L10.1087874,44.4033685 C10.1087874,37.6525147 15.6698841,32.1847333 22.5618659,32.0869842 C20.6216105,36.1955292 20.2175749,39.4696609 20.2175749,39.4696609 C26.535567,35.3580323 34.7489568,32.0690995 45.4895435,32.0690995 L68.2343152,32.0690995 C75.2128535,32.0690995 80.8702995,37.5914601 80.8702995,44.4033685 L80.8702995,49.3370761 C83.3052537,49.3370761 85.4480007,50.4773793 86.8351159,52.2189781 C89.0255638,46.8363031 94.0332044,31.3204094 88.4515742,12.334269 Z" id="Shape" fill="url(#linearGradient-7)"></path>
                                <path d="M83.0555556,2.48484312 L73.8693876,5.50796537 C65.8648781,2.65443366 54.6108077,0 40.2695128,0 C40.2695128,0 38.6178336,1.70832964 35.2358237,2.48484312 C35.2358237,2.48484312 26.662822,0.621210779 17.6179119,0 L12.5842228,12.4242156 C12.5842228,12.4242156 0,12.320784 0,27.3332743 C0,32.8499366 3.12120185,46.6231114 4.44537669,52.2189781 C5.82838277,50.6833451 7.82235286,49.6968623 10.0673782,49.6968623 L10.0673782,44.7271761 C10.0673782,38.241425 15.119629,32.9772848 21.5404141,32.413536 C20.8655851,34.2666078 20.1347564,36.9070642 20.1347564,39.7574899 C30.0448318,27.3332743 44.1209142,22.8509279 55.3705801,19.8787449 C66.5390778,16.9279937 67.9548029,12.4242156 67.9548029,12.4242156 C67.9548029,12.4242156 78.9656832,11.8030048 83.0555556,2.48484312 Z" id="Shape" fill="url(#linearGradient-8)"></path>
                            </g>
                            <path d="M32,67 C34.9690386,75 40.5706249,79 48.8047587,79 C57.0388925,79 63.4373063,75 68,67 L32,67 Z" id="Path-3-Copy" fill="#DD7575"></path>
                            <path d="M142.582963,132 L58.4167196,132 C53.7683436,132 50,128.2503 50,123.624921 L50,73.3750791 C50,68.7497003 53.7683436,65 58.4167196,65 L142.58328,65 C147.231656,65 151,68.7497003 151,73.3750791 L151,123.625237 C150.999682,128.250616 147.231339,132 142.582963,132 Z" id="Shape" fill="#6279A9" fill-rule="nonzero"></path>
                            <path d="M142.582963,132 L58.4167196,132 C53.7683436,132 50,128.2503 50,123.624921 L50,73.3750791 C50,68.7497003 53.7683436,65 58.4167196,65 L142.58328,65 C147.231656,65 151,68.7497003 151,73.3750791 L151,123.625237 C150.999682,128.250616 147.231339,132 142.582963,132 Z" id="Shape" fill="url(#linearGradient-9)" fill-rule="nonzero"></path>
                            <path d="M119,151.35296 L113.988842,113.900498 C113.613318,111.09505 111.212212,109 108.37171,109 L95.6279689,109 C92.7877884,109 90.3863611,111.09505 90.0108371,113.900498 L85,151.35296 L85,157 L119,157 L118.999679,151.35296 L119,151.35296 Z" id="Shape" fill="#47587C" fill-rule="nonzero"></path>
                            <circle id="Oval" fill="#FFFFFF" fill-rule="nonzero" cx="101" cy="92" r="5"></circle>
                            <circle id="Oval-2" fill="#333333" cx="58" cy="52" r="3"></circle>
                            <circle id="Oval-2-Copy" fill="#333333" cx="39" cy="53" r="3"></circle>
                            <path d="M39.7065319,45.1891295 C40.0978227,45.6027397 40.0978227,46.2748564 39.7065319,46.6884666 C39.3164913,47.1034026 38.6826753,47.1034026 38.2926346,46.6884666 C37.9475987,46.3225806 37.4888009,46.1210782 37,46.1210782 C36.5111991,46.1210782 36.0524013,46.3225806 35.7073654,46.6884666 C35.512345,46.8965974 35.2560683,47 34.9997916,47 C34.7447651,47 34.4884884,46.8965974 34.2934681,46.6884666 C33.9021773,46.2748564 33.9021773,45.6027397 34.2934681,45.1891295 C35.0160433,44.42289 35.9773935,44 37,44 C38.0226065,44 38.9839567,44.42289 39.7065319,45.1891295 Z" id="Shape-Copy" fill="#333333" fill-rule="nonzero" transform="translate(37.000000, 45.500000) rotate(-34.000000) translate(-37.000000, -45.500000) "></path>
                            <path d="M60.7065319,44.1891295 C61.0978227,44.6027397 61.0978227,45.2748564 60.7065319,45.6884666 C60.3164913,46.1034026 59.6826753,46.1034026 59.2926346,45.6884666 C58.9475987,45.3225806 58.4888009,45.1210782 58,45.1210782 C57.5111991,45.1210782 57.0524013,45.3225806 56.7073654,45.6884666 C56.512345,45.8965974 56.2560683,46 55.9997916,46 C55.7447651,46 55.4884884,45.8965974 55.2934681,45.6884666 C54.9021773,45.2748564 54.9021773,44.6027397 55.2934681,44.1891295 C56.0160433,43.42289 56.9773935,43 58,43 C59.0226065,43 59.9839567,43.42289 60.7065319,44.1891295 Z" id="Shape" fill="#333333" fill-rule="nonzero" transform="translate(58.000000, 44.500000) rotate(16.000000) translate(-58.000000, -44.500000) "></path>
                        </g>
                        <path d="M371.5,360 L371,371.468869 C387.854721,376.215768 398.774681,377.232961 403.75988,374.520447 C411.237679,370.451677 398.418595,362.992265 388.448197,356.550045 C381.801265,352.255232 376.151866,353.405217 371.5,360 Z" id="Path-7-Copy" fill="#CDA46F"></path>
                        <path d="M342.5,268 L343,360 C350.333333,355.333333 357.666667,355.166667 365,359.5 C365.333333,354.166667 366.833333,323.666667 369.5,268 L342.5,268 Z" id="Path-5" fill="#5A81BF"></path>
                        <path d="M371.5,272 L371.5,360 C377.166667,354 383.666667,353.166667 391,357.5 C391.333333,352.166667 393.833333,323.666667 398.5,272 L371.5,272 Z" id="Path-5-Copy" fill="#5A81BF"></path>
                        <path d="M343,359.940687 L343,371.468869 C359.854721,376.215768 370.774681,377.232961 375.75988,374.520447 C383.237679,370.451677 370.418595,362.992265 360.448197,356.550045 C353.801265,352.255232 347.985199,353.385446 343,359.940687 Z" id="Path-7-Copy-2" fill="#E5B67B"></path>
                        <path d="M314,269 L397.5,269 L397.5,288 L333,288 C322.50659,288 314,279.49341 314,269 Z" id="Rectangle-4" fill="#5A81BF"></path>
                        <rect id="Rectangle-13" fill="#4B9DA1" x="223" y="249" width="251" height="32" rx="2"></rect>
                        <path d="M225,249 L472,249 C473.104569,249 474,249.895431 474,251 L474,253 L223,253 L223,251 C223,249.895431 223.895431,249 225,249 Z" id="Rectangle-17" fill="#5CBFC4"></path>
                        <path d="M225,249 L472,249 C473.104569,249 474,249.895431 474,251 L474,253 L223,253 L223,251 C223,249.895431 223.895431,249 225,249 Z" id="Rectangle-17" fill="url(#linearGradient-10)"></path>
                    </g>
                    <g id="Group-16" transform="translate(63.000000, 126.000000)" fill="#FFFFFF">
                        <circle id="Oval-7-Copy" transform="translate(448.054596, 51.054596) rotate(10.000000) translate(-448.054596, -51.054596) " cx="448.054596" cy="51.0545958" r="3.5"></circle>
                        <circle id="Oval-7-Copy-2" transform="translate(4.054596, 149.054596) rotate(10.000000) translate(-4.054596, -149.054596) " cx="4.05459576" cy="149.054596" r="3.5"></circle>
                        <circle id="Oval-7-Copy-5" transform="translate(14.054596, 247.054596) rotate(10.000000) translate(-14.054596, -247.054596) " cx="14.0545958" cy="247.054596" r="3.5"></circle>
                        <path d="M412,120 C412.95889,120 412.505532,117.977961 413.194564,117.415395 C414.092958,116.681894 416,117.250249 416,116 C416,114.812895 414.015831,115.15252 413.194564,114.419955 C412.487496,113.789256 413.022034,112 412,112 C410.845935,112 411.393699,113.638165 410.663622,114.419955 C409.996168,115.134687 408,114.944926 408,116 C408,117.103321 409.941206,116.691732 410.663622,117.415395 C411.387673,118.140696 410.894182,120 412,120 Z" id="Oval-11-Copy-11" transform="translate(412.000000, 116.000000) rotate(10.000000) translate(-412.000000, -116.000000) "></path>
                        <path d="M387.633824,13.6338237 C388.592714,13.6338237 388.139356,11.6117846 388.828387,11.049219 C389.726782,10.3157177 391.633824,10.8840728 391.633824,9.63382372 C391.633824,8.4467191 389.649654,8.78634377 388.828387,8.05377905 C388.12132,7.42307952 388.655858,5.63382372 387.633824,5.63382372 C386.479759,5.63382372 387.027523,7.27198909 386.297446,8.05377905 C385.629992,8.76851058 383.633824,8.57874947 383.633824,9.63382372 C383.633824,10.7371449 385.57503,10.3255562 386.297446,11.049219 C387.021496,11.7745193 386.528006,13.6338237 387.633824,13.6338237 Z" id="Oval-11-Copy-17" transform="translate(387.633824, 9.633824) rotate(10.000000) translate(-387.633824, -9.633824) "></path>
                        <path d="M107.633824,8.63382372 C108.592714,8.63382372 108.139356,6.61178456 108.828387,6.049219 C109.726782,5.31571769 111.633824,5.88407276 111.633824,4.63382372 C111.633824,3.4467191 109.649654,3.78634377 108.828387,3.05377905 C108.12132,2.42307952 108.655858,0.633823723 107.633824,0.633823723 C106.479759,0.633823723 107.027523,2.27198909 106.297446,3.05377905 C105.629992,3.76851058 103.633824,3.57874947 103.633824,4.63382372 C103.633824,5.73714492 105.57503,5.3255562 106.297446,6.049219 C107.021496,6.77451932 106.528006,8.63382372 107.633824,8.63382372 Z" id="Oval-11-Copy-18" transform="translate(107.633824, 4.633824) rotate(10.000000) translate(-107.633824, -4.633824) "></path>
                        <path d="M5.63382372,36.6338237 C6.59271368,36.6338237 6.13935564,34.6117846 6.82838734,34.049219 C7.72678159,33.3157177 9.63382372,33.8840728 9.63382372,32.6338237 C9.63382372,31.4467191 7.64965433,31.7863438 6.82838734,31.0537791 C6.12131984,30.4230795 6.6558581,28.6338237 5.63382372,28.6338237 C4.47975898,28.6338237 5.02752275,30.2719891 4.29744589,31.0537791 C3.62999174,31.7685106 1.63382372,31.5787495 1.63382372,32.6338237 C1.63382372,33.7371449 3.57502999,33.3255562 4.29744589,34.049219 C5.02149649,34.7745193 4.52800592,36.6338237 5.63382372,36.6338237 Z" id="Oval-11-Copy-15" transform="translate(5.633824, 32.633824) rotate(10.000000) translate(-5.633824, -32.633824) "></path>
                        <path d="M65.6338237,95.6338237 C66.5927137,95.6338237 66.1393556,93.6117846 66.8283873,93.049219 C67.7267816,92.3157177 69.6338237,92.8840728 69.6338237,91.6338237 C69.6338237,90.4467191 67.6496543,90.7863438 66.8283873,90.0537791 C66.1213198,89.4230795 66.6558581,87.6338237 65.6338237,87.6338237 C64.479759,87.6338237 65.0275228,89.2719891 64.2974459,90.0537791 C63.6299917,90.7685106 61.6338237,90.5787495 61.6338237,91.6338237 C61.6338237,92.7371449 63.57503,92.3255562 64.2974459,93.049219 C65.0214965,93.7745193 64.5280059,95.6338237 65.6338237,95.6338237 Z" id="Oval-11-Copy-16" transform="translate(65.633824, 91.633824) rotate(10.000000) translate(-65.633824, -91.633824) "></path>
                        <path d="M556.633824,45.6338237 C557.592714,45.6338237 557.139356,43.6117846 557.828387,43.049219 C558.726782,42.3157177 560.633824,42.8840728 560.633824,41.6338237 C560.633824,40.4467191 558.649654,40.7863438 557.828387,40.0537791 C557.12132,39.4230795 557.655858,37.6338237 556.633824,37.6338237 C555.479759,37.6338237 556.027523,39.2719891 555.297446,40.0537791 C554.629992,40.7685106 552.633824,40.5787495 552.633824,41.6338237 C552.633824,42.7371449 554.57503,42.3255562 555.297446,43.049219 C556.021496,43.7745193 555.528006,45.6338237 556.633824,45.6338237 Z" id="Oval-11-Copy-12" transform="translate(556.633824, 41.633824) rotate(10.000000) translate(-556.633824, -41.633824) "></path>
                    </g>
                    <g id="Group-6" transform="translate(316.000000, 0.000000)">
                        <g id="Oval-15">
                            <use fill="black" fill-opacity="1" filter="url(#filter-12)" xlink:href="#path-11"></use>
                            <use fill="#FFFFE7" fill-rule="evenodd" xlink:href="#path-11"></use>
                        </g>
                        <rect id="Rectangle-15" fill="#319195" x="39" y="0" width="10" height="166"></rect>
                        <path d="M89,205.6734 C89,180.448678 69.0766714,160 44.5,160 C19.9233286,160 0,180.448678 0,205.6734 C37.8187149,206.238071 50.3075223,205.957631 89,205.6734 Z" id="Oval-12" fill="#FF6B6B"></path>
                        <path d="M49,166 C61.5309035,174.412007 67.3357816,186.277138 68.8278363,198 L83,197.730263 C82.7947208,196.895799 82.3895101,195.724746 81.7843681,194.217105 C75.582362,178.765528 66.8263403,167.625107 49,166 Z" id="Path-24" fill="#FFFFFF"></path>
                        <path d="M32,208 C33.0008212,211.334103 45.6059176,226.036386 59.2531806,208" id="Path-26" stroke="url(#linearGradient-4)" stroke-width="2" opacity="0.681782156" stroke-linecap="round"></path>
                    </g>
                </g>
                <circle id="Oval" fill="#FFFFFF" fill-rule="nonzero" cx="349.5" cy="308.5" r="1.5"></circle>
                <circle id="Oval" fill="#FFFFFF" fill-rule="nonzero" cx="368.5" cy="307.5" r="1.5"></circle>
            </g>
            <g id="Group-8" transform="translate(613.000000, 309.000000)" fill-rule="nonzero">
                <g id="Group-7">
                    <g id="Group-6">
                        <rect id="Rectangle-path" fill="#E49400" x="14.25" y="41.625" width="28.5" height="6.375"></rect>
                        <rect id="Rectangle-path" fill="#FFB74D" x="22.5" y="19.5" width="12" height="9"></rect>
                        <path d="M47.1487136,2.25 L47.1487136,5.6381226 L52.9150271,5.6381226 C51.9030184,8.62505437 49.0423361,13.9691377 41.5304854,13.9691377 L41.5304854,14.3440877 L39.9064429,13.9647266 C39.8323444,14.2925109 39.2337731,17.2323901 41.0057895,19.4947579 C42.1778996,20.9911646 44.0172274,21.75 46.4728174,21.75 L46.4728174,18.3618774 C45.0912075,18.3618774 44.1321577,18.0366945 43.6220366,17.3956036 C43.5845426,17.3485511 43.5503861,17.2992364 43.5176764,17.2490168 C49.1238885,16.6319046 52.3565089,13.451786 54.122295,10.738234 C56.2087286,7.53176134 56.6959301,4.32811639 56.7157342,4.19317965 L57,2.25 C57,2.25 47.1487136,2.25 47.1487136,2.25 Z" id="Shape" fill="#E49400"></path>
                        <path d="M15.4695608,14.3441579 L15.4695608,13.9692057 C7.9558536,13.9692057 5.09558696,8.622603 4.0845693,5.63814225 L9.85127531,5.63814225 L9.85127531,2.25 L0,2.25 L0.284268756,4.1931909 C0.304072998,4.32801532 0.791168344,7.53190507 2.87773439,10.7382832 C4.64342723,13.4518509 7.87630283,16.6321011 13.4826835,17.2491038 C13.4525321,17.2952518 13.4211569,17.3407211 13.3868888,17.3842676 C12.8788766,18.0329405 11.916702,18.3618578 10.5271785,18.3618578 L10.5271785,21.75 C12.982682,21.75 14.8219176,20.9911602 15.9941507,19.4947448 C17.7661853,17.2323639 17.1677189,14.2924676 17.0935086,13.9646814 L15.4695608,14.3441579 Z" id="Shape" fill="#E49400"></path>
                        <path d="M48.375,1.70360287 C48.375,12.5498077 39.4607126,21.3727757 28.503371,21.375 C17.5404111,21.375 8.625,12.5509199 8.625,1.70360287 L8.625,0 L48.3603923,0 L48.375,1.70360287 Z" id="Shape" fill="#EDE164"></path>
                        <rect id="Rectangle-path" fill="#E49400" x="18" y="24.75" width="21" height="16.5"></rect>
                        <rect id="Rectangle-path" fill="#FF9800" x="28.5" y="19.5" width="6" height="9"></rect>
                        <rect id="Rectangle-path" fill="#E86700" x="28.5" y="41.625" width="14.25" height="6.375"></rect>
                        <rect id="Rectangle-path" fill="#E55300" x="28.5" y="24.75" width="10.5" height="16.5"></rect>
                        <path d="M48.375,1.70360287 C48.375,12.5498077 39.4592003,21.3727757 28.5,21.375 L28.5,0 L48.36039,0 L48.375,1.70360287 Z" id="Shape" fill="#F1B900"></path>
                        <polygon id="Shape" fill="#F3E04D" points="29.9994605 33.9646963 30.3534106 36 28.5000568 35.0392981 26.646703 36 27.0006531 33.9646963 25.5 32.5231956 27.5734935 32.2268542 28.5000568 30.375 29.4267337 32.2268542 31.5 32.5231956"></polygon>
                        <polygon id="Shape" fill="#FDBF00" points="30.3533889 36 28.5 35.0392981 28.5 30.375 29.4266945 32.2268542 31.5 32.5231956 29.999432 33.9646963"></polygon>
                    </g>
                </g>
            </g>
            <g id="gamepad-(1)" transform="translate(625.000000, 397.000000)" fill-rule="nonzero">
                <path d="M24.90625,4 L19.09375,4 C19.042,4 19,3.958 19,3.90625 L19,1.75 C19,1.3358125 19.3358125,1 19.75,1 L24.25,1 C24.6641875,1 25,1.3358125 25,1.75 L25,3.90625 C25,3.958 24.958,4 24.90625,4 Z" id="Shape" fill="#84787E"></path>
                <path d="M44.6945411,22.9305237 L39.2640915,4.9821749 C38.7208526,3.1875351 37.5148079,1.71216132 35.8685089,0.829668317 C34.2229857,-0.0528246832 32.3350317,-0.238746166 30.5517108,0.307605474 C29.0039357,0.782358811 27.6819122,1.77459036 26.7864698,3.12500852 L18.2135354,3.12500852 C17.318093,1.77459036 15.9960694,0.782358811 14.4490701,0.307605474 C12.6672038,-0.237282986 10.7784741,-0.0528246832 9.13149626,0.829668317 C7.48519727,1.71216132 6.27915259,3.1875351 5.73591369,4.9821749 L0.305464066,22.9305237 C-0.236999062,24.7251635 -0.0528486365,26.6250548 0.825138701,28.2803022 C1.70244723,29.9355497 3.16837771,31.1479412 4.95257133,31.6943903 C5.61547407,31.8970896 6.30029256,32 6.98743838,32 C10.0806613,32 12.7640792,29.9987591 13.664855,27.0198209 L15.6315505,20.5208604 C15.654339,20.4450676 15.6531753,20.3693724 15.6530784,20.2939698 L29.3481874,20.2987495 C29.3480905,20.3742497 29.3469268,20.4502375 29.3698123,20.5262254 L31.3350532,27.0198209 C32.235829,29.9987591 34.9192469,32 38.0124698,32 C38.6996156,32 39.3844341,31.8970896 40.0473369,31.6943903 C41.8314335,31.1479412 43.297461,29.9355497 44.1747695,28.2803022 C45.0528538,26.6250548 45.2370042,24.7251635 44.6945411,22.9305237 Z" id="Shape" fill="#FF6472"></path>
                <g id="Group" fill="#D25566">
                    <path d="M34.6173077,0.411817629 C33.2298077,-0.0886079027 31.7286538,-0.135489362 30.2938462,0.306577508 C28.7591346,0.779963526 27.4482692,1.76933739 26.5603846,3.11586626 L28.3319231,3.11586626 C29.9029808,3.11586626 31.3927885,2.51613374 32.6231731,1.52792705 C33.2178846,1.0502614 33.8902885,0.672778116 34.6173077,0.411817629 Z" id="Shape"></path>
                    <path d="M35.6891346,26.9417629 L35.0143269,24.8373495 C34.1352885,22.0960486 31.6110577,20.2392705 28.7621154,20.2382979 L20.1395192,20.2352827 C20.1396154,20.2358663 20.1395192,20.2364498 20.1395192,20.2364498 L29.1005769,20.2400486 C29.1004808,20.3153313 29.0993269,20.3911003 29.1220192,20.4668693 L31.0108654,26.7433435 C31.5351923,28.4856413 32.6338462,30.0304924 34.1911538,30.9443891 C35.9238462,31.9611915 37.8992308,32.1595137 39.7094231,31.6028693 C39.8035577,31.5738845 39.8929808,31.5356596 39.9852885,31.5028815 C37.9591346,30.7784559 36.3457692,29.1253495 35.6891346,26.9417629 Z" id="Shape"></path>
                    <path d="M5.43673077,28.198614 C4.56605769,26.5481337 4.38355769,24.6538116 4.92144231,22.8642432 L10.3060577,4.96758663 C10.8447115,3.1781155 12.0405769,1.70699088 13.6729808,0.827039514 C13.9809615,0.661106383 14.2996154,0.528048632 14.6223077,0.411817629 C14.5240385,0.376510638 14.4274038,0.337410334 14.3271154,0.306480243 C12.5602885,-0.236838906 10.6875,-0.0529118541 9.05442308,0.827039514 C7.42201923,1.70699088 6.22615385,3.1781155 5.6875,4.96758663 L0.302884615,22.8642432 C-0.235000001,24.6537143 -0.0524038468,26.5481337 0.818173076,28.198614 C1.68807692,29.8490942 3.14163461,31.0579939 4.91076923,31.6028693 C5.56807692,31.8049848 6.24711538,31.9075988 6.92846154,31.9075988 C7.74096154,31.9075988 8.52326923,31.7639392 9.25336538,31.5028815 C7.61096154,30.9207538 6.26028846,29.7613617 5.43673077,28.198614 Z" id="Shape"></path>
                </g>
                <circle id="Oval" fill="#84787E" cx="12" cy="11" r="6"></circle>
                <circle id="Oval" fill="#5F505A" cx="17.5" cy="17.5" r="3.5"></circle>
                <path d="M12,10 C11.4479167,10 11,9.4625 11,8.8 L11,7.2 C11,6.5375 11.4479167,6 12,6 C12.5520833,6 13,6.5375 13,7.2 L13,8.8 C13,9.4625 12.5520833,10 12,10 Z" id="Shape" fill="#5F505A"></path>
                <path d="M12,16 C11.4479167,16 11,15.4625 11,14.8 L11,13.2 C11,12.5375 11.4479167,12 12,12 C12.5520833,12 13,12.5375 13,13.2 L13,14.8 C13,15.4625 12.5520833,16 12,16 Z" id="Shape" fill="#5F505A"></path>
                <path d="M9.8,12 L8.2,12 C7.5375,12 7,11.5520833 7,11 C7,10.4479167 7.5375,10 8.2,10 L9.8,10 C10.4625,10 11,10.4479167 11,11 C11,11.5520833 10.4625,12 9.8,12 Z" id="Shape" fill="#5F505A"></path>
                <path d="M15.8,12 L14.2,12 C13.5375,12 13,11.5520833 13,11 C13,10.4479167 13.5375,10 14.2,10 L15.8,10 C16.4625,10 17,10.4479167 17,11 C17,11.5520833 16.4625,12 15.8,12 Z" id="Shape" fill="#5F505A"></path>
                <circle id="Oval" fill="#84787E" cx="32" cy="11" r="6"></circle>
                <circle id="Oval" fill="#D25566" cx="22.5" cy="10.5" r="1.5"></circle>
                <circle id="Oval" fill="#84787E" cx="18" cy="18" r="2"></circle>
                <circle id="Oval" fill="#5F505A" cx="27.5" cy="17.5" r="3.5"></circle>
                <circle id="Oval" fill="#84787E" cx="28" cy="18" r="2"></circle>
                <circle id="Oval" fill="#00BEA5" cx="32.5" cy="7.5" r="1.5"></circle>
                <circle id="Oval" fill="#33CBDB" cx="32.5" cy="14.5" r="1.5"></circle>
                <circle id="Oval" fill="#FF6472" cx="35.5" cy="10.5" r="1.5"></circle>
                <circle id="Oval" fill="#FFC855" cx="29.5" cy="10.5" r="1.5"></circle>
                <path d="M9.80103295,30 C9.52377394,30 9.25501368,29.8576756 9.10663562,29.6033129 C8.88636819,29.2236492 9.01834867,28.7395682 9.40109208,28.5215288 C10.2798622,28.0220078 10.9281663,27.2109172 11.2266222,26.2374106 L11.4343915,25.5616172 C11.5632724,25.1432548 12.0101063,24.9074991 12.4326439,25.0342846 C12.8552814,25.1618618 13.0934462,25.6041759 12.9653651,26.0224394 L12.7575958,26.6982327 C12.3396576,28.0575394 11.4311919,29.1926704 10.1993741,29.8947908 C10.0735927,29.965953 9.93611298,30 9.80103295,30 Z" id="Shape" fill="#FF838E"></path>
                <path d="M12.7665208,23 C12.6924779,23 12.617573,22.9897814 12.5435301,22.9677504 C12.1386412,22.8469082 11.9104781,22.4279448 12.0331804,22.0317624 L12.5001389,20.5317816 C12.6236075,20.1348492 13.0538798,19.912852 13.4564699,20.032288 C13.8613588,20.1531302 14.0895219,20.5720936 13.9668196,20.968276 L13.4998611,22.4682568 C13.3989023,22.7919714 13.095068,23 12.7665208,23 Z" id="Shape" fill="#FFA2AA"></path>
                <path d="M40.7499422,29 C40.5442116,29 40.3398869,28.916721 40.191236,28.7529452 C39.9152102,28.4479289 39.9407976,27.9791368 40.2498153,27.7052806 C40.5763599,27.4162154 40.8473244,27.0728055 41.0560543,26.6851594 C41.5275945,25.8098953 41.6272262,24.806467 41.3357354,23.8581252 L40.136312,19.9580161 C40.0162478,19.5660113 40.2395991,19.1516566 40.635689,19.032117 C41.0325288,18.9133192 41.4506446,19.1343146 41.5714587,19.5262266 L42.7708821,23.4263356 C43.1780319,24.7536989 43.0395972,26.1592405 42.3791036,27.3829223 C42.0883626,27.924143 41.7083937,28.4045274 41.2499753,28.8109066 C41.1072292,28.9376799 40.9285857,29 40.7499422,29 Z" id="Shape" fill="#FF838E"></path>
                <path d="M40.2563121,17 C39.9375483,17 39.6427615,16.8048906 39.544809,16.5012796 L39.0321847,14.9083111 C38.9131362,14.5366448 39.1345981,14.1437882 39.5273374,14.0304506 C39.9215637,13.9178165 40.335399,14.1273459 40.455191,14.4989242 L40.9678153,16.0918928 C41.0868638,16.463559 40.8654019,16.8564157 40.4726626,16.9697532 C40.4008246,16.990416 40.3274996,17 40.2563121,17 Z" id="Shape" fill="#FFA2AA"></path>
            </g>
        </g>
    </g>
</svg>