<?xml version="1.0" encoding="UTF-8"?>
<svg width="15px" height="15px" viewBox="0 0 15 15" version="1.1" xmlns="http://www.w3.org/2000/svg" xmlns:xlink="http://www.w3.org/1999/xlink">
    <!-- Generator: Sketch 47.1 (45422) - http://www.bohemiancoding.com/sketch -->
    <title>Group 8</title>
    <desc>Created with Sketch.</desc>
    <defs></defs>
    <g id="Page-1" stroke="none" stroke-width="1" fill="none" fill-rule="evenodd">
        <g id="6-Home---Scoreboard" transform="translate(-520.000000, -642.000000)" fill-rule="nonzero">
            <g id="Group-8" transform="translate(520.000000, 642.000000)">
                <g id="Group-7">
                    <g id="coin">
                        <path d="M1.74107143,7.5 C1.74107143,3.35785714 4.67919643,0 8.30357143,0 C11.9279464,0 14.8660714,3.35785714 14.8660714,7.5 C14.8660714,11.6421429 11.9279464,15 8.30357143,15 C4.67919643,15 1.74107143,11.6421429 1.74107143,7.5 Z" id="XMLID_99_" fill="#FFCC4B"></path>
                        <path d="M1.74107143,7.5 C1.74107143,3.66910714 4.25491071,0.511071429 7.5,0.0578571429 C7.23642857,0.0211607143 6.96857143,0 6.69642857,0 C3.07205357,0 0.133928571,3.35785714 0.133928571,7.5 C0.133928571,11.6421429 3.07205357,15 6.69642857,15 C6.96857143,15 7.23642857,14.9788393 7.5,14.9421429 C4.25491071,14.4889286 1.74107143,11.3308929 1.74107143,7.5" id="XMLID_132_" fill="#F4BF1A"></path>
                        <path d="M8.32633929,13.5332143 L8.30330357,13.5332143 C8.11580357,13.5332143 7.92696429,13.5219643 7.74214286,13.5 C7.59508929,13.4823214 7.49035714,13.3491964 7.50776786,13.2021429 C7.52544643,13.0550893 7.65964286,12.9525 7.805625,12.9680357 C7.96955357,12.9875893 8.13696429,12.9975 8.30330357,12.9975 C8.45142857,12.9975 8.58267857,13.1175 8.58267857,13.2653571 C8.58267857,13.4132143 8.47473214,13.5332143 8.32633929,13.5332143 M9.88392857,13.2447321 C9.77571429,13.2447321 9.67366071,13.1785714 9.63321429,13.0711607 C9.58098214,12.9326786 9.65089286,12.778125 9.789375,12.7261607 C9.94366071,12.6680357 10.0976786,12.5997321 10.2463393,12.5233929 C10.378125,12.4553571 10.539375,12.5075893 10.6071429,12.639375 C10.6746429,12.7708929 10.6226786,12.9324107 10.4908929,12.9999107 C10.3240179,13.085625 10.1517857,13.1616964 9.97821429,13.2273214 C9.94741071,13.2391071 9.91553571,13.2447321 9.88392857,13.2447321 M6.25848214,13.0400893 C6.21776786,13.0400893 6.17625,13.0307143 6.13741071,13.0108929 C5.97267857,12.9270536 5.80955357,12.8330357 5.65285714,12.7301786 C5.52910714,12.6492857 5.49455357,12.4834821 5.57544643,12.3594643 C5.656875,12.2359821 5.82241071,12.2011607 5.94642857,12.2820536 C6.08651786,12.3739286 6.2325,12.4585714 6.37982143,12.5333036 C6.51160714,12.6002679 6.564375,12.7615179 6.49741071,12.8933036 C6.45026786,12.9865179 6.35598214,13.0400893 6.25848214,13.0400893 M11.6450893,12.0870536 C11.5770536,12.0870536 11.50875,12.0610714 11.4565179,12.009375 C11.3515179,11.9051786 11.3507143,11.735625 11.4549107,11.630625 C11.5714286,11.5133036 11.6847321,11.386875 11.7916071,11.2550893 C11.8850893,11.1404464 12.0538393,11.1230357 12.1684821,11.21625 C12.283125,11.3094643 12.3008036,11.4782143 12.2073214,11.593125 C12.0891964,11.7383036 11.9641071,11.8778571 11.8352679,12.0077679 C11.7827679,12.0605357 11.7136607,12.0870536 11.6450893,12.0870536 M4.62241071,11.7099107 C4.545,11.7099107 4.468125,11.6764286 4.41508929,11.6121429 C4.29883929,11.4701786 4.18714286,11.3201786 4.08348214,11.1661607 C4.00071429,11.0434821 4.033125,10.876875 4.15580357,10.7941071 C4.27821429,10.7113393 4.44482143,10.7434821 4.52758929,10.8664286 C4.62214286,11.0067857 4.72366071,11.1433929 4.82946429,11.2722321 C4.92321429,11.3866071 4.90660714,11.5553571 4.79223214,11.649375 C4.74267857,11.6900893 4.68214286,11.7099107 4.62241071,11.7099107 M12.8225893,10.3339286 C12.7866964,10.3339286 12.7505357,10.3266964 12.7157143,10.3116964 C12.5799107,10.2525 12.5180357,10.0947321 12.5769643,9.95892857 C12.6441964,9.80517857 12.7055357,9.64553571 12.759375,9.48508929 C12.8065179,9.34526786 12.9583929,9.26946429 13.09875,9.31660714 C13.2388393,9.36401786 13.314375,9.515625 13.2672321,9.65598214 C13.2083036,9.83089286 13.1413393,10.005 13.0682143,10.1729464 C13.0240179,10.2736607 12.9254464,10.3339286 12.8225893,10.3339286 M3.60133929,9.860625 C3.48991071,9.860625 3.38571429,9.79017857 3.34767857,9.67901786 C3.28848214,9.50544643 3.23598214,9.32678571 3.19151786,9.14785714 C3.155625,9.00428571 3.24294643,8.85910714 3.38651786,8.82348214 C3.52955357,8.78705357 3.67553571,8.87491071 3.71116071,9.01848214 C3.75214286,9.18267857 3.80035714,9.346875 3.85473214,9.50598214 C3.90241071,9.64607143 3.82767857,9.79821429 3.68785714,9.84589286 C3.65946429,9.85580357 3.63,9.860625 3.60133929,9.860625 M13.3285714,8.28107143 C13.3216071,8.28107143 13.3146429,8.28080357 13.3076786,8.28026786 C13.1600893,8.26875 13.05,8.13991071 13.06125,7.99232143 C13.0738393,7.83 13.0802679,7.66419643 13.0802679,7.5 C13.0802679,7.35214286 13.2002679,7.22357143 13.348125,7.22357143 C13.4959821,7.22357143 13.6159821,7.33473214 13.6159821,7.48258929 L13.6159821,7.5 C13.6159821,7.678125 13.6090179,7.85758929 13.5953571,8.03383929 C13.5846429,8.17419643 13.4670536,8.28107143 13.3285714,8.28107143 M3.25875,7.77080357 C3.11089286,7.77080357 2.99089286,7.65375 2.99089286,7.50589286 L2.99089286,7.5 C2.99089286,7.31732143 2.998125,7.13357143 3.01232143,6.954375 C3.02410714,6.80705357 3.15241071,6.69776786 3.30053571,6.70848214 C3.448125,6.72026786 3.55821429,6.849375 3.54642857,6.99669643 C3.53330357,7.16223214 3.52660714,7.33151786 3.52660714,7.5 C3.52660714,7.64785714 3.40660714,7.77080357 3.25875,7.77080357 M13.1523214,6.17357143 C13.0325893,6.17357143 12.9235714,6.09267857 12.8930357,5.97133929 C12.8515179,5.80660714 12.8030357,5.64267857 12.7483929,5.48357143 C12.7004464,5.34375 12.7751786,5.19133929 12.915,5.14339286 C13.0550893,5.09491071 13.2075,5.16991071 13.2551786,5.31 C13.3146429,5.48303571 13.3674107,5.66142857 13.4124107,5.84008929 C13.4485714,5.98366071 13.3615179,6.12910714 13.2182143,6.16526786 C13.1965179,6.17116071 13.1745536,6.17357143 13.1523214,6.17357143 M3.59785714,5.686875 C3.56919643,5.686875 3.54026786,5.68205357 3.51160714,5.67241071 C3.37151786,5.625 3.29651786,5.47285714 3.34392857,5.33276786 C3.403125,5.15866071 3.47035714,4.98482143 3.54401786,4.81633929 C3.60348214,4.68053571 3.76098214,4.61919643 3.89678571,4.678125 C4.03232143,4.73732143 4.09419643,4.89535714 4.035,5.03089286 C3.96723214,5.18544643 3.905625,5.34508929 3.85151786,5.50473214 C3.81321429,5.61642857 3.70955357,5.686875 3.59785714,5.686875 M12.2951786,4.24232143 C12.2091964,4.24232143 12.1250893,4.20107143 12.073125,4.12446429 C11.9783036,3.98464286 11.8765179,3.84830357 11.7704464,3.71946429 C11.6764286,3.60535714 11.6927679,3.43633929 11.806875,3.34232143 C11.9209821,3.24830357 12.09,3.26464286 12.1840179,3.37875 C12.3005357,3.52044643 12.4125,3.67017857 12.5166964,3.82419643 C12.5997321,3.94660714 12.5675893,4.11321429 12.4451786,4.19625 C12.3991071,4.22732143 12.3471429,4.24232143 12.2951786,4.24232143 M4.61464286,3.83491071 C4.55517857,3.83491071 4.49517857,3.81508929 4.44535714,3.774375 C4.33071429,3.68089286 4.31383929,3.51214286 4.40758929,3.3975 C4.52571429,3.25285714 4.65107143,3.11357143 4.78017857,2.98366071 C4.88464286,2.87919643 5.05419643,2.87839286 5.15892857,2.98258929 C5.26392857,3.08705357 5.26446429,3.25633929 5.16026786,3.36133929 C5.04348214,3.47892857 4.92964286,3.60508929 4.82223214,3.73660714 C4.76973214,3.80142857 4.69258929,3.83491071 4.61464286,3.83491071 M10.7973214,2.75544643 C10.7472321,2.75544643 10.6966071,2.74151786 10.6516071,2.71205357 C10.5115179,2.62071429 10.3652679,2.53660714 10.2171429,2.461875 C10.0853571,2.39517857 10.0323214,2.23419643 10.0990179,2.10214286 C10.1657143,1.970625 10.3264286,1.91678571 10.45875,1.98375 C10.6242857,2.06705357 10.7874107,2.16107143 10.9438393,2.263125 C11.0678571,2.34401786 11.1029464,2.51008929 11.0220536,2.63383929 C10.970625,2.71285714 10.8851786,2.75544643 10.7973214,2.75544643 M6.24883929,2.50098214 C6.15133929,2.50098214 6.05732143,2.44767857 6.00991071,2.35473214 C5.94267857,2.22294643 5.99517857,2.06169643 6.12696429,1.99446429 C6.29383929,1.90955357 6.46633929,1.83321429 6.64017857,1.76839286 C6.77839286,1.71642857 6.93294643,1.78660714 6.98491071,1.92535714 C7.03660714,2.06383929 6.96642857,2.218125 6.82767857,2.27008929 C6.67285714,2.32794643 6.51883929,2.39571429 6.36991071,2.47178571 C6.33133929,2.49160714 6.28955357,2.50098214 6.24883929,2.50098214 M8.821875,2.0325 C8.81142857,2.0325 8.80098214,2.03196429 8.79053571,2.030625 C8.62928571,2.011875 8.46535714,2.0025 8.30330357,2.0025 C8.15544643,2.0025 8.02982143,1.8825 8.02982143,1.73464286 C8.02982143,1.58678571 8.14419643,1.46678571 8.29205357,1.46678571 L8.30330357,1.46678571 C8.48598214,1.46678571 8.67080357,1.4775 8.85241071,1.49866071 C8.99919643,1.51553571 9.10473214,1.64839286 9.08758929,1.79544643 C9.07205357,1.93205357 8.95580357,2.0325 8.821875,2.0325" id="XMLID_115_" fill="#F4BF1A"></path>
                        <path d="M1.74053571,7.76785714 L0.133928571,7.76785714 C0.139285714,7.948125 0.149464286,8.12678571 0.165803571,8.30357143 L1.77375,8.30357143 C1.75714286,8.12678571 1.74616071,7.948125 1.74053571,7.76785714" id="XMLID_114_" fill="#DCA815"></path>
                        <path d="M1.801875,6.42857143 L0.195803571,6.42857143 C0.173571429,6.60508929 0.1575,6.78401786 0.146517857,6.96428571 L1.75339286,6.96428571 C1.76464286,6.78401786 1.77964286,6.60508929 1.801875,6.42857143" id="XMLID_113_" fill="#DCA815"></path>
                        <path d="M1.88785714,9.10714286 L0.280446429,9.10714286 C0.315267857,9.28821429 0.355446429,9.466875 0.40125,9.64285714 L2.008125,9.64285714 C1.96258929,9.466875 1.92267857,9.28821429 1.88785714,9.10714286" id="XMLID_112_" fill="#DCA815"></path>
                        <path d="M2.26258929,10.4464286 L0.654375,10.4464286 C0.722678571,10.6291071 0.798214286,10.8072321 0.878571429,10.9821429 L2.48598214,10.9821429 C2.405625,10.8075 2.33089286,10.6288393 2.26258929,10.4464286" id="XMLID_111_" fill="#DCA815"></path>
                        <path d="M2.08178571,5.08928571 L0.476517857,5.08928571 C0.424285714,5.26526786 0.375535714,5.44339286 0.334821429,5.625 L1.94383929,5.625 C1.98455357,5.44392857 2.02982143,5.26473214 2.08178571,5.08928571" id="XMLID_110_" fill="#DCA815"></path>
                        <path d="M2.61535714,3.75 L1.00821429,3.75 C0.919821429,3.924375 0.836517857,4.10276786 0.760446429,4.28571429 L2.36866071,4.28571429 C2.44473214,4.10303571 2.52696429,3.924375 2.61535714,3.75" id="XMLID_109_" fill="#DCA815"></path>
                        <path d="M3.70848214,2.14285714 L2.09946429,2.14285714 C1.94705357,2.31321429 1.80214286,2.491875 1.665,2.67857143 L3.27348214,2.67857143 C3.41089286,2.491875 3.55607143,2.31321429 3.70848214,2.14285714" id="XMLID_108_" fill="#DCA815"></path>
                        <path d="M5.34642857,0.803571429 L3.73580357,0.803571429 C3.46205357,0.961607143 3.19955357,1.14053571 2.949375,1.33928571 L4.55892857,1.33928571 C4.809375,1.14053571 5.07241071,0.961607143 5.34642857,0.803571429" id="XMLID_107_" fill="#DCA815"></path>
                        <path d="M3.08544643,12.0535714 L1.4775,12.0535714 C1.60178571,12.2391964 1.73303571,12.4178571 1.87178571,12.5892857 L3.48080357,12.5892857 C3.34205357,12.4178571 3.21,12.2391964 3.08544643,12.0535714" id="XMLID_106_" fill="#DCA815"></path>
                        <path d="M2.63357143,13.3928571 C2.84866071,13.5865179 3.07392857,13.76625 3.30964286,13.9285714 L4.92053571,13.9285714 C4.68375,13.7659821 4.45607143,13.5873214 4.24017857,13.3928571 L2.63357143,13.3928571 Z" id="XMLID_105_" fill="#DCA815"></path>
                    </g>
                </g>
            </g>
        </g>
    </g>
</svg>