<?xml version="1.0" encoding="UTF-8"?>
<svg width="34px" height="30px" viewBox="0 0 34 30" version="1.1" xmlns="http://www.w3.org/2000/svg" xmlns:xlink="http://www.w3.org/1999/xlink">
    <!-- Generator: Sketch 47.1 (45422) - http://www.bohemiancoding.com/sketch -->
    <title>Shape</title>
    <desc>Created with Sketch.</desc>
    <defs></defs>
    <g id="Page-1" stroke="none" stroke-width="1" fill="none" fill-rule="evenodd">
        <g id="6-Home---Scoreboard" transform="translate(-1098.000000, -203.000000)" fill-rule="nonzero" fill="#FFCC4B">
            <path d="M1131.99377,213 C1131.93767,212.049444 1130.7845,211.306667 1128.47817,210.74 C1128.5558,210.573333 1128.59943,210.4 1128.6,210.22 L1128.6,206.333333 L1128.59037,206.333333 C1128.3875,203.095556 1114.85437,203 1113.3,203 C1111.74563,203 1098.2125,203.095556 1098.00963,206.333333 L1098,206.333333 L1098,206.405556 L1098,206.405556 L1098,206.405556 L1098,210.221667 C1098.00283,211.277222 1099.3923,212.103333 1101.4595,212.718333 C1101.43117,212.810556 1101.41417,212.904444 1101.4085,213 L1101.4,213 L1101.4,213.072222 L1101.4,213.072222 L1101.4,213.072222 L1101.4,216.881667 C1099.173,217.443889 1098.06063,218.176111 1098.00567,219.111111 L1098,219.111111 L1098,219.183333 L1098,219.183333 L1098,219.183333 L1098,222.999444 C1098.0017,223.734444 1098.67773,224.357778 1099.78387,224.877222 C1099.74193,224.99 1099.71587,225.105 1099.7085,225.222778 L1099.7,225.222778 L1099.7,225.295 L1099.7,225.295 L1099.7,225.295 L1099.7,229.111111 C1099.70453,230.958889 1103.9483,232.106111 1108.66353,232.641667 C1108.6981,232.648333 1108.72983,232.662222 1108.76667,232.662222 C1108.77743,232.662222 1108.7865,232.656667 1108.79727,232.656111 C1109.7062,232.756667 1110.62987,232.835 1111.5439,232.891111 C1111.56317,232.893333 1111.58017,232.902222 1111.6,232.902222 C1111.61077,232.902222 1111.61927,232.896667 1111.62947,232.896111 C1112.79,232.965 1113.93183,233 1115,233 C1116.06817,233 1117.21,232.965 1118.37053,232.895556 C1118.38073,232.896111 1118.3898,232.901667 1118.4,232.901667 C1118.41983,232.901667 1118.43683,232.892222 1118.4561,232.890556 C1119.37013,232.834444 1120.2938,232.756667 1121.20273,232.655556 C1121.2135,232.655556 1121.22257,232.661111 1121.23333,232.661111 C1121.27017,232.661111 1121.3019,232.647222 1121.33647,232.640556 C1126.0517,232.105 1130.2949,230.957222 1130.3,229.108889 L1130.3,225.222222 L1130.29093,225.222222 C1130.25127,224.541111 1129.6591,223.972778 1128.4895,223.497778 C1128.5609,223.337222 1128.6,223.170556 1128.6,222.997778 L1128.6,219.366667 C1130.63433,218.753333 1131.99717,217.932778 1132,216.886667 L1132,213 L1131.99377,213 Z M1127.5188,223.089084 L1127.32557,223.251302 C1127.02807,223.502496 1126.53223,223.755859 1125.88,224 L1125.88,221.413194 C1126.55377,221.188585 1127.12723,220.939562 1127.58,220.666667 L1127.58,222.911675 C1127.58,222.967556 1127.55847,223.027235 1127.5188,223.089084 Z M1114.88738,225.987662 C1114.8005,225.990012 1114.71304,225.991187 1114.62558,225.992949 C1114.41316,225.997062 1114.19539,225.998237 1113.98,226 L1113.98,223.065217 C1114.14362,223.063455 1114.30725,223.061105 1114.47087,223.058167 C1114.50241,223.057579 1114.53394,223.056992 1114.56548,223.056404 C1115.16465,223.045241 1115.76381,223.027027 1116.36,223 L1116.36,225.933608 C1116.23267,225.940071 1116.10475,225.945946 1115.97563,225.951234 C1115.61744,225.967098 1115.25568,225.978848 1114.88738,225.987662 Z M1112.45948,225.993541 C1112.1869,225.988843 1111.91551,225.982384 1111.64591,225.974163 C1111.61258,225.972989 1111.57925,225.971814 1111.54593,225.97064 C1111.22157,225.96007 1110.89959,225.946565 1110.58,225.931298 L1110.58,223 C1111.17634,223.027598 1111.77565,223.045802 1112.37497,223.056371 C1112.40651,223.056958 1112.43805,223.057546 1112.469,223.058133 C1112.63267,223.061069 1112.79633,223.063417 1112.96,223.065179 L1112.96,226 C1112.84454,225.998826 1112.72908,225.998826 1112.61422,225.997064 C1112.56185,225.99589 1112.51126,225.994128 1112.45948,225.993541 Z M1102.13497,224.282783 C1102.11627,224.277399 1102.0987,224.272553 1102.08,224.267708 L1102.08,221.666667 C1102.60927,221.802345 1103.1782,221.926179 1103.78,222.038705 L1103.78,224.666667 C1103.2598,224.561677 1102.77983,224.451304 1102.34293,224.338239 C1102.2738,224.319395 1102.2024,224.301627 1102.13497,224.282783 Z M1114.16912,229.057546 C1114.33275,229.060482 1114.49637,229.06283 1114.66,229.064592 L1114.66,232 C1113.83771,231.992366 1113.04398,231.968878 1112.28,231.931885 L1112.28,229 C1112.87619,229.027598 1113.47536,229.045802 1114.07452,229.056371 C1114.10605,229.056371 1114.13759,229.056958 1114.16912,229.057546 Z M1116.26548,229.056371 C1116.86465,229.045214 1117.46381,229.027011 1118.06,229 L1118.06,231.931885 C1117.29602,231.968878 1116.50229,231.992366 1115.68,232 L1115.68,229.064592 C1115.84362,229.06283 1116.00725,229.060482 1116.17088,229.057546 C1116.20241,229.057546 1116.23394,229.056958 1116.26548,229.056371 Z M1120.78,229 L1120.78,231.849111 C1120.23543,231.907057 1119.66877,231.958118 1119.08,232 L1119.08,229.138841 C1119.6546,229.100975 1120.2224,229.054504 1120.78,229 Z M1121.8,228.569175 C1122.38423,228.499876 1122.95147,228.421076 1123.5,228.333333 L1123.5,231.077372 C1122.9662,231.170144 1122.39897,231.255651 1121.8,231.333333 L1121.8,228.569175 Z M1124.52,228.372039 C1125.1218,228.259512 1125.69073,228.135678 1126.22,228 L1126.22,230.601041 C1125.7151,230.739411 1125.14673,230.873475 1124.52,231 L1124.52,228.372039 Z M1105.48,228.372039 L1105.48,231 C1104.85327,230.873475 1104.2849,230.739411 1103.78,230.601041 L1103.78,228 C1104.30927,228.135678 1104.8782,228.26005 1105.48,228.372039 Z M1106.5,228.333333 C1107.04853,228.421076 1107.61577,228.499876 1108.2,228.569175 L1108.2,231.333333 C1107.60103,231.255651 1107.0338,231.170144 1106.5,231.077372 L1106.5,228.333333 Z M1109.22,229 C1109.7776,229.054493 1110.3454,229.100956 1110.92,229.139388 L1110.92,232 C1110.33123,231.958126 1109.76457,231.907075 1109.22,231.84914 L1109.22,229 Z M1107.8141,225.547838 C1107.7563,225.542097 1107.69907,225.535783 1107.64183,225.530042 C1107.60103,225.526024 1107.5608,225.520857 1107.52,225.516839 L1107.52,222.666667 C1108.0776,222.721202 1108.6454,222.7677 1109.22,222.806162 L1109.22,225.666667 C1108.744,225.632223 1108.27367,225.593188 1107.8141,225.547838 Z M1106.5,222.569175 L1106.5,225.333333 C1105.90103,225.255651 1105.3338,225.170144 1104.8,225.077372 L1104.8,222.333333 C1105.34853,222.421076 1105.91577,222.500435 1106.5,222.569175 Z M1117.7574,225.637986 C1117.63273,225.647737 1117.50693,225.657489 1117.38,225.666667 L1117.38,222.806055 C1117.9546,222.767623 1118.5224,222.721734 1119.08,222.666667 L1119.08,225.515233 C1118.7298,225.552518 1118.37167,225.587508 1118.0039,225.617909 C1117.92173,225.625366 1117.83957,225.631676 1117.7574,225.637986 Z M1120.1,225.333333 L1120.1,222.569175 C1120.68423,222.499876 1121.25147,222.421076 1121.8,222.333333 L1121.8,225.077372 C1121.2662,225.170144 1120.69897,225.25621 1120.1,225.333333 Z M1122.82,222.038705 C1123.4218,221.926179 1123.99073,221.802345 1124.52,221.666667 L1124.52,224.267708 C1124.0151,224.406078 1123.44673,224.540141 1122.82,224.666667 L1122.82,222.038705 Z M1115.36372,219.653148 C1114.91617,219.64198 1114.47873,219.624935 1114.04904,219.604363 C1114.02583,219.603187 1114.00262,219.602011 1113.98,219.601424 L1113.98,216.666667 C1114.57634,216.694292 1115.17565,216.712513 1115.77497,216.723093 C1115.80651,216.723681 1115.83805,216.724269 1115.869,216.724856 C1116.03267,216.727795 1116.19633,216.730146 1116.36,216.73191 L1116.36,219.666667 C1116.07016,219.663728 1115.77794,219.662552 1115.49525,219.656087 C1115.4518,219.654911 1115.40717,219.654323 1115.36372,219.653148 Z M1102.08,211.601041 L1102.08,209 C1102.60927,209.135678 1103.1782,209.259512 1103.78,209.372039 L1103.78,212 C1103.7103,211.986001 1103.63833,211.972003 1103.57033,211.958004 C1103.26887,211.895011 1102.97477,211.829325 1102.6937,211.759871 C1102.4795,211.707645 1102.27607,211.654343 1102.08,211.601041 Z M1112.46913,210.057613 C1112.63275,210.060553 1112.79637,210.062904 1112.96,210.064668 L1112.96,213 C1112.15913,212.992357 1111.36302,212.971781 1110.58,212.932981 L1110.58,210 C1111.17619,210.027631 1111.77535,210.045855 1112.37452,210.056437 C1112.40605,210.056437 1112.43759,210.057025 1112.46913,210.057613 Z M1114.56548,210.056404 C1115.16465,210.045241 1115.76381,210.027027 1116.36,210 L1116.36,212.931257 C1116.25885,212.935958 1116.16187,212.943008 1116.06012,212.947709 C1116.05179,212.948296 1116.04346,212.948296 1116.03454,212.948884 C1115.63529,212.96651 1115.22831,212.979436 1114.81597,212.988837 C1114.75172,212.990599 1114.68745,212.991187 1114.62319,212.992949 C1114.41137,212.997062 1114.1948,212.99765 1113.98,213 L1113.98,210.065217 C1114.14362,210.063455 1114.30725,210.061105 1114.47087,210.058167 C1114.50241,210.057579 1114.53394,210.056992 1114.56548,210.056404 Z M1127.45023,210.514811 L1127.43437,210.51155 L1127.2281,210.665362 C1126.9289,210.888744 1126.46933,211.114843 1125.88,211.333333 L1125.88,208.747867 C1126.55377,208.522855 1127.12723,208.273384 1127.58,208 L1127.58,210.249035 C1127.58,210.331648 1127.53467,210.420784 1127.45023,210.514811 Z M1120.1,212.666667 L1120.1,209.902773 C1120.68423,209.833395 1121.25147,209.754507 1121.8,209.666667 L1121.8,212.4093 C1121.2628,212.503295 1120.69727,212.589457 1120.1,212.666667 Z M1122.82,212 L1122.82,209.372574 C1123.4218,209.259885 1123.99073,209.135873 1124.52,209 L1124.52,211.59885 C1124.01227,211.739576 1123.4405,211.873832 1122.82,212 Z M1119.08,210 L1119.08,212.847847 C1118.5326,212.906411 1117.96593,212.957512 1117.38,213 L1117.38,210.139522 C1117.9546,210.101053 1118.5224,210.054545 1119.08,210 Z M1107.52,212.851178 L1107.52,210 C1108.0776,210.054587 1108.6454,210.10113 1109.22,210.139628 L1109.22,213 C1108.64313,212.958054 1108.0742,212.910362 1107.52,212.851178 Z M1106.5,209.902213 L1106.5,212.666667 C1106.3878,212.65212 1106.27107,212.640371 1106.16,212.625264 C1106.08747,212.615193 1106.01833,212.604563 1105.94693,212.594492 C1105.6194,212.548054 1105.29923,212.498259 1104.9853,212.446227 C1104.9224,212.435596 1104.86177,212.424406 1104.8,212.413776 L1104.8,209.666667 C1105.34853,209.753948 1105.91577,209.833395 1106.5,209.902213 Z M1112.47947,219.657484 C1112.40297,219.651744 1112.3259,219.646005 1112.24997,219.640265 C1111.8873,219.611568 1111.53313,219.580001 1111.18747,219.544991 C1111.11323,219.537529 1111.039,219.529494 1110.96533,219.522033 C1110.95003,219.520311 1110.9353,219.518015 1110.92,219.516868 L1110.92,216.666667 C1111.4776,216.721191 1112.0454,216.767681 1112.62,216.806135 L1112.62,219.666667 C1112.5741,219.663223 1112.52537,219.660927 1112.47947,219.657484 Z M1108.84883,219.184116 C1108.62443,219.148907 1108.41363,219.110904 1108.2,219.074019 L1108.2,216.333333 C1108.74853,216.421076 1109.31577,216.499876 1109.9,216.569175 L1109.9,219.333333 C1109.5532,219.288065 1109.21377,219.24112 1108.88793,219.190822 C1108.8749,219.188028 1108.86187,219.185792 1108.84883,219.184116 Z M1107.18,216.03924 L1107.18,218.666667 C1106.55383,218.538881 1105.98603,218.403007 1105.48,218.261742 L1105.48,215.666667 C1106.00927,215.80254 1106.5782,215.927091 1107.18,216.03924 Z M1104.12,215.415266 L1104.12,218 C1103.2292,217.669768 1102.6546,217.332463 1102.4676,217.032153 L1102.42963,216.97122 C1102.42623,216.954355 1102.42057,216.936402 1102.42,216.919536 L1102.42,214.666667 C1102.87277,214.940319 1103.44623,215.190033 1104.12,215.415266 Z M1117.96548,216.723104 C1118.56464,216.711934 1119.16381,216.69371 1119.76,216.666667 L1119.76,219.599059 C1118.97817,219.637272 1118.18325,219.658436 1117.38,219.666667 L1117.38,216.731922 C1117.54363,216.730159 1117.70725,216.727807 1117.87088,216.724868 C1117.90241,216.72428 1117.93394,216.723692 1117.96548,216.723104 Z M1125.14673,219.08944 C1124.89797,219.131954 1124.64693,219.173908 1124.3891,219.212505 C1124.2412,219.234881 1124.0899,219.256138 1123.93803,219.277394 C1123.79467,219.297532 1123.64563,219.314874 1123.5,219.333333 L1123.5,216.569395 C1124.08423,216.500031 1124.65147,216.421157 1125.2,216.333333 L1125.2,219.07993 C1125.18187,219.083287 1125.1643,219.086643 1125.14673,219.08944 Z M1121.42373,219.621848 C1121.21237,219.63966 1120.9942,219.651152 1120.78,219.666667 L1120.78,216.806295 C1121.3546,216.767797 1121.9224,216.721829 1122.48,216.666667 L1122.48,219.51727 C1122.15077,219.552321 1121.8221,219.587372 1121.4838,219.616102 C1121.4634,219.617825 1121.44413,219.620124 1121.42373,219.621848 Z M1127.67237,218.334351 C1127.39017,218.409216 1127.09153,218.479234 1126.78667,218.547636 C1126.64557,218.578875 1126.50163,218.610114 1126.3543,218.640275 C1126.31067,218.649431 1126.2642,218.65751 1126.22,218.666667 L1126.22,216.038839 C1126.8218,215.926272 1127.39073,215.802394 1127.92,215.666667 L1127.92,218.268642 C1127.8384,218.290186 1127.75623,218.312268 1127.67237,218.334351 Z M1130.64,212.992595 C1130.58805,213.360517 1129.719,213.849815 1128.16782,214.309853 L1128.16782,214.309853 C1126.16997,214.902104 1123.04389,215.444505 1119.08208,215.612481 C1118.87936,215.620609 1118.6772,215.628737 1118.47053,215.635239 C1118.30169,215.640657 1118.13229,215.645534 1117.96006,215.649869 C1117.4925,215.659623 1117.01817,215.666667 1116.52915,215.666667 C1116.04014,215.666667 1115.5658,215.659623 1115.09825,215.649327 C1114.92658,215.645534 1114.75718,215.640116 1114.58778,215.634697 C1114.38054,215.628737 1114.17838,215.620067 1113.97622,215.611939 C1110.01441,215.443963 1106.88777,214.901562 1104.89049,214.309311 L1104.89049,214.309311 C1103.35173,213.853066 1102.48437,213.367561 1102.42,213.001264 C1102.42282,212.990969 1102.42282,212.982299 1102.4296,212.969295 C1102.468,212.978506 1102.51091,212.986092 1102.54988,212.995304 C1102.77067,213.045697 1102.99711,213.094464 1103.2275,213.141064 C1104.34952,213.372979 1105.59295,213.563172 1106.91769,213.70839 C1106.92221,213.70839 1106.9256,213.710557 1106.92955,213.710557 C1106.93068,213.710557 1106.93181,213.710015 1106.93238,213.710015 C1107.83474,213.808634 1108.77098,213.886119 1109.73207,213.940847 C1109.73941,213.940847 1109.74562,213.94464 1109.75296,213.94464 C1109.75692,213.94464 1109.75974,213.942473 1109.76369,213.942473 C1110.45543,213.981486 1111.1562,214.010205 1111.86544,214.025377 C1112.29968,214.035672 1112.72602,214.041091 1113.14106,214.041091 C1113.43752,214.041091 1113.74132,214.03784 1114.04794,214.032421 C1118.15092,213.971733 1121.95349,213.503567 1124.59959,212.778019 C1124.72156,212.744965 1124.84071,212.710828 1124.95817,212.676691 C1125.02988,212.655559 1125.10329,212.634968 1125.17275,212.613835 C1125.37716,212.55098 1125.57311,212.486499 1125.76227,212.419308 C1125.79503,212.407387 1125.82608,212.395466 1125.85883,212.383546 C1126.01864,212.325567 1126.17223,212.26542 1126.31905,212.20419 C1126.3614,212.186309 1126.40488,212.16897 1126.4461,212.151088 C1126.60252,212.083356 1126.75386,212.013998 1126.8939,211.941931 C1126.95714,211.909961 1127.01192,211.876908 1127.07121,211.844396 C1127.13897,211.807008 1127.20673,211.769078 1127.26941,211.730606 C1127.30499,211.708932 1127.34734,211.688341 1127.38122,211.666667 C1129.9093,212.192811 1130.57563,212.768265 1130.64,212.992595 Z M1113.13,204 C1122.44198,204 1127.1519,205.442222 1127.24,206.27 C1127.17167,206.645556 1126.30479,207.141667 1124.76983,207.608333 L1124.76983,207.608333 C1122.77179,208.215556 1119.64539,208.771667 1115.68318,208.943889 C1115.48044,208.952222 1115.27827,208.960556 1115.07157,208.967222 C1114.90272,208.972778 1114.73329,208.977778 1114.56105,208.982222 C1114.09344,208.992778 1113.61906,209 1113.13,209 C1112.64094,209 1112.16656,208.992778 1111.69895,208.982222 C1111.52727,208.978333 1111.35785,208.972778 1111.18843,208.967222 C1110.98117,208.961111 1110.77899,208.952222 1110.57682,208.943889 C1106.61461,208.771667 1103.48765,208.215556 1101.49017,207.608333 L1101.49017,207.608333 C1099.95464,207.141667 1099.08833,206.645556 1099.02,206.27 C1099.1081,205.442222 1103.81802,204 1113.13,204 Z M1099.02,210.239347 L1099.02,208 C1099.47277,208.27201 1100.04623,208.520225 1100.72,208.744106 L1100.72,211.333333 C1099.61783,210.939109 1099.02113,210.543803 1099.02,210.239347 Z M1101.76107,218 C1101.76958,218.008932 1101.78262,218.016748 1101.79113,218.02568 C1102.56757,218.797209 1104.17546,219.403489 1106.17695,219.855687 C1106.22289,219.866294 1106.27167,219.876343 1106.31817,219.88695 C1106.46507,219.91933 1106.61423,219.951151 1106.76509,219.981856 C1108.60325,220.367062 1110.79758,220.645639 1113.18814,220.783531 C1113.18985,220.783531 1113.19098,220.784089 1113.19211,220.784089 C1113.19325,220.784089 1113.19382,220.783531 1113.19438,220.783531 C1113.96231,220.827634 1114.74783,220.858339 1115.54978,220.871738 C1115.90483,220.878995 1116.25419,220.883461 1116.59562,220.883461 C1116.98696,220.883461 1117.38851,220.878995 1117.79686,220.869505 C1118.5387,220.854431 1119.26977,220.824285 1119.99062,220.782973 C1119.99346,220.782973 1119.99573,220.784648 1119.99856,220.784648 C1120.00367,220.784648 1120.00764,220.781856 1120.01274,220.781856 C1122.40955,220.642847 1124.65832,220.361479 1126.56,219.956734 C1126.14824,220.168876 1125.58449,220.388276 1124.88235,220.602094 L1124.88235,220.602094 C1122.76402,221.246336 1119.38093,221.833077 1115.08131,221.969295 C1114.9537,221.973203 1114.82779,221.977669 1114.69848,221.981019 C1114.55953,221.984368 1114.41831,221.986602 1114.27709,221.989393 C1113.92034,221.994976 1113.56133,222 1113.19268,222 C1112.70152,222 1112.22511,221.992742 1111.75551,221.982135 C1111.58309,221.978227 1111.41294,221.972645 1111.2428,221.967062 C1111.03465,221.960921 1110.83161,221.951989 1110.62857,221.943615 C1106.64939,221.770551 1103.50905,221.211724 1101.50301,220.601535 L1101.50301,220.601535 C1099.94333,220.127006 1099.07048,219.622331 1099.02,219.243266 C1099.08295,219.033357 1099.65635,218.508025 1101.76107,218 Z M1099.02,222.912937 L1099.02,220.666667 C1099.47277,220.939517 1100.04623,221.1885 1100.72,221.413073 L1100.72,224 L1100.39643,223.879577 L1100.38963,223.886086 C1099.49997,223.532954 1099.02113,223.18633 1099.02,222.912937 Z M1100.72,228.906013 L1100.72,226.666667 C1101.17277,226.938676 1101.74623,227.186892 1102.42,227.410772 L1102.42,230 C1101.31783,229.605775 1100.72113,229.210469 1100.72,228.906013 Z M1127.58,230 L1127.58,227.410893 C1128.25377,227.186976 1128.82723,226.93872 1129.28,226.666667 L1129.28,228.904754 C1129.27943,229.20926 1128.68217,229.605171 1127.58,230 Z M1128.94,225.226337 C1128.87843,225.607765 1128.01087,226.113706 1126.46836,226.589224 L1126.46836,226.589224 C1124.47003,227.20503 1121.3432,227.769002 1117.38044,227.943659 C1117.17767,227.95211 1116.97546,227.960561 1116.76874,227.967322 C1116.59986,227.972956 1116.43041,227.978027 1116.25814,227.982534 C1115.79047,227.992676 1115.31603,228 1114.82689,228 C1114.33776,228 1113.86275,227.992676 1113.39452,227.981971 C1113.2245,227.978027 1113.05675,227.972393 1112.889,227.966759 C1112.68059,227.959998 1112.47725,227.951547 1112.27335,227.943096 C1108.31059,227.768439 1105.18376,227.204466 1103.18543,226.58866 L1103.18543,226.58866 C1101.69149,226.128355 1100.82845,225.639316 1100.72,225.261832 C1100.88832,225.320426 1101.06284,225.37733 1101.24189,225.433108 C1101.25997,225.438742 1101.27804,225.444376 1101.29611,225.449447 C1101.44862,225.49621 1101.6045,225.541283 1101.76435,225.585228 C1101.82478,225.602131 1101.88578,225.619033 1101.94735,225.635372 C1102.03772,225.659598 1102.13035,225.682698 1102.22298,225.706361 C1104.28005,226.232022 1106.90589,226.604436 1109.74071,226.771768 C1109.74184,226.771768 1109.7424,226.772331 1109.74353,226.772331 C1109.7441,226.772331 1109.74466,226.771768 1109.74523,226.771768 C1110.62069,226.823602 1111.5148,226.855716 1112.41851,226.866421 C1112.65912,226.870928 1112.89804,226.873182 1113.13244,226.873182 C1113.44365,226.873182 1113.76221,226.869238 1114.08472,226.863604 C1114.90879,226.850082 1115.72213,226.819658 1116.51739,226.772331 C1116.51909,226.772331 1116.52022,226.773458 1116.52191,226.773458 C1116.52474,226.773458 1116.52643,226.771768 1116.52925,226.771768 C1117.49792,226.713737 1118.43552,226.630916 1119.3364,226.527812 C1119.33979,226.527812 1119.34261,226.529502 1119.346,226.529502 C1119.35843,226.529502 1119.36859,226.523305 1119.38102,226.522178 C1120.38414,226.406679 1121.33529,226.2647 1122.2181,226.099621 C1122.39997,226.06638 1122.57902,226.032012 1122.75637,225.996517 C1122.79591,225.988629 1122.83545,225.980742 1122.87498,225.972291 C1124.54289,225.630865 1125.98657,225.188588 1126.97726,224.640391 C1127.03148,224.611094 1127.08231,224.58067 1127.13371,224.550809 C1127.19641,224.513624 1127.25628,224.475876 1127.31445,224.437564 C1127.36868,224.402633 1127.43137,224.368828 1127.48108,224.333333 C1128.59603,224.729973 1128.90329,225.084921 1128.94,225.226337 Z M1129.28,218 L1129.28,215.410893 C1129.95377,215.186976 1130.52723,214.93872 1130.98,214.666667 L1130.98,216.904754 C1130.97943,217.20926 1130.38217,217.605171 1129.28,218 Z" id="Shape"></path>
        </g>
    </g>
</svg>