<?xml version="1.0" encoding="UTF-8" standalone="no"?>
<svg width="55px" height="27px" viewBox="0 0 55 27" version="1.1" xmlns="http://www.w3.org/2000/svg" xmlns:xlink="http://www.w3.org/1999/xlink">
    <!-- Generator: Sketch 48.1 (47250) - http://www.bohemiancoding.com/sketch -->
    <title>Group</title>
    <desc>Created with Sketch.</desc>
    <defs></defs>
    <g id="Default-Cards" stroke="none" stroke-width="1" fill="none" fill-rule="evenodd" transform="translate(-311.000000, -998.000000)">
        <g id="Group" transform="translate(311.000000, 998.000000)" fill-rule="nonzero">
            <g id="coin">
                <path d="M15,27 C8.37257143,27 3,20.9558571 3,13.5 C3,6.04414286 8.37257143,0 15,0 C21.6274286,0 27,6.04414286 27,13.5 C27,20.9558571 21.6274286,27 15,27" id="XMLID_99_" fill="#FFD949"></path>
                <path d="M2.83636364,13.5 C2.83636364,6.60439286 7.27290909,0.919928571 13,0.104142857 C12.5348364,0.0380892857 12.0621091,0 11.5818182,0 C5.18534545,0 0,6.04414286 0,13.5 C0,20.9558571 5.18534545,27 11.5818182,27 C12.0621091,27 12.5348364,26.9619107 13,26.8958571 C7.27290909,26.0800714 2.83636364,20.3956071 2.83636364,13.5" id="XMLID_132_" fill="#F4BF1A"></path>
                <path d="M14.5409534,25 L14.4997605,25 C14.1644692,25 13.826783,24.9794885 13.4962815,24.9394424 C13.2333174,24.9072101 13.0460332,24.6644912 13.0771674,24.3963772 C13.1087806,24.1282632 13.3487534,23.9412183 13.6098016,23.9695436 C13.902942,24.0051945 14.2023092,24.0232641 14.4997605,24.0232641 C14.7646406,24.0232641 14.9993445,24.2420529 14.9993445,24.511632 C14.9993445,24.7812112 14.8063126,25 14.5409534,25 M17.3262662,24.4740277 C17.1327552,24.4740277 16.9502609,24.3534008 16.8779338,24.1575653 C16.7845312,23.905079 16.909547,23.6232907 17.1571836,23.5285473 C17.4330804,23.4225715 17.7084982,23.2980376 17.9743364,23.1588528 C18.2099982,23.0348073 18.4983488,23.1300391 18.6195326,23.3703161 C18.7402375,23.6101048 18.6473139,23.9045907 18.411652,24.0276594 C18.1132427,24.1839371 17.8052537,24.3226336 17.4948698,24.4422838 C17.4397862,24.463772 17.3827867,24.4740277 17.3262662,24.4740277 M10.8431694,24.1009146 C10.7703633,24.1009146 10.6961202,24.0838217 10.626667,24.0476825 C10.3320896,23.8948233 10.0403862,23.7234061 9.76017849,23.5358728 C9.53888623,23.3883857 9.47709683,23.086086 9.62175108,22.8599716 C9.7673633,22.634834 10.0633776,22.5713461 10.2851489,22.7188332 C10.5356594,22.8863435 10.7967076,23.0406677 11.0601508,23.1769224 C11.2958126,23.2990144 11.3901732,23.5930119 11.2704263,23.8332889 C11.1861245,24.003241 11.0175209,24.1009146 10.8431694,24.1009146 M20.4756094,22.3633014 C20.3539466,22.3633014 20.2318048,22.3159297 20.1384022,22.2216747 C19.9506391,22.0316995 19.9492021,21.7225626 20.1355283,21.5311224 C20.3438879,21.3172172 20.5464996,21.0867075 20.7376157,20.8464305 C20.9047823,20.637409 21.2065445,20.6056651 21.4115512,20.7756171 C21.6165578,20.9455692 21.648171,21.253241 21.4810044,21.4627508 C21.2697708,21.7274463 21.0460836,21.981886 20.8156906,22.2187445 C20.7218091,22.3149529 20.5982303,22.3633014 20.4756094,22.3633014 M7.9175133,21.6756793 C7.77908589,21.6756793 7.64161646,21.6146333 7.54677692,21.497425 C7.33889631,21.2385899 7.13915849,20.9651039 6.9537903,20.6842923 C6.80578314,20.4606198 6.86374064,20.1568549 7.08311695,20.0059492 C7.30201427,19.8550435 7.59994454,19.9136477 7.7479517,20.1378086 C7.91703431,20.3937134 8.0985706,20.642781 8.28777069,20.877686 C8.45541634,21.0862191 8.42571911,21.393891 8.22119142,21.5653081 C8.13257872,21.63954 8.02432753,21.6756793 7.9175133,21.6756793 M22.5812388,19.166933 C22.5170545,19.166933 22.4523912,19.1537471 22.3901228,19.1263985 C22.1472761,19.0184692 22.0366299,18.7308205 22.1420072,18.4832179 C22.2622331,18.2028947 22.3719212,17.9118274 22.4681977,17.619295 C22.5524996,17.3643669 22.8240855,17.2261588 23.075075,17.3121115 C23.3255855,17.3985527 23.46066,17.6749689 23.3763582,17.9308737 C23.2709809,18.249778 23.151234,18.5672172 23.0204704,18.8734239 C22.9414375,19.0570503 22.76517,19.166933 22.5812388,19.166933 M6.09161268,18.3039869 C5.89235385,18.3039869 5.70602768,18.1755461 5.63801145,17.9728734 C5.53215519,17.6564109 5.43827363,17.3306695 5.35876169,17.0044397 C5.29457736,16.7426745 5.4507273,16.477979 5.70746464,16.4130261 C5.96324401,16.3466081 6.22429223,16.5067928 6.28799758,16.768558 C6.36128268,17.0679275 6.44750044,17.3672971 6.54473492,17.6573877 C6.62999471,17.9128041 6.49635717,18.1901971 6.24632566,18.2771266 C6.19555298,18.2951962 6.14286435,18.3039869 6.09161268,18.3039869 M23.4860463,15.424081 C23.4735927,15.424081 23.461139,15.4235926 23.4486853,15.4226159 C23.1847632,15.4016161 22.9878993,15.1667111 23.0080167,14.8976203 C23.0305292,14.6016693 23.0420249,14.2993696 23.0420249,14 C23.0420249,13.7304209 23.2566113,13.4960043 23.5210124,13.4960043 C23.7854136,13.4960043 24,13.698677 24,13.9682561 L24,14 C24,14.3247647 23.9875463,14.6519712 23.963118,14.9733174 C23.9439585,15.2292222 23.7336829,15.424081 23.4860463,15.424081 M5.47898757,14.49374 C5.21458643,14.49374 5,14.2803232 5,14.0107441 L5,14 C5,13.666933 5.01293266,13.3319126 5.03831901,13.0051945 C5.05939446,12.7365921 5.28882951,12.537338 5.55370963,12.5568727 C5.81763178,12.5783609 6.01449568,12.8137542 5.99342022,13.0823566 C5.96994983,13.384168 5.95797514,13.6928166 5.95797514,14 C5.95797514,14.2695791 5.74338871,14.49374 5.47898757,14.49374 M23.1708725,11.5816018 C22.9567651,11.5816018 22.7618171,11.4341147 22.7072125,11.212884 C22.6329695,10.9125377 22.5462727,10.6136565 22.4485593,10.323566 C22.3628205,10.0686379 22.496458,9.79075653 22.7464895,9.70333866 C22.997,9.61494406 23.269544,9.75168709 23.3548037,10.0071035 C23.461139,10.3225892 23.5554995,10.6478423 23.6359694,10.9735837 C23.7006328,11.235349 23.5449618,11.5005328 23.2887035,11.5664624 C23.2499055,11.5772065 23.2106285,11.5816018 23.1708725,11.5816018 M6.08538584,10.6942373 C6.03413417,10.6942373 5.98240351,10.6854466 5.93115184,10.6678654 C5.68064134,10.5814243 5.54652482,10.3040313 5.63130562,10.0486148 C5.73716187,9.73117563 5.85738775,9.41422483 5.98910934,9.10704138 C6.09544458,8.85943882 6.37708927,8.74760256 6.61993597,8.85504351 C6.86230368,8.96297283 6.97294981,9.25110993 6.86709355,9.49822412 C6.7459097,9.78001243 6.63574256,10.0710797 6.53898707,10.362147 C6.47049184,10.5657965 6.28512365,10.6942373 6.08538584,10.6942373 M21.6381123,8.06046883 C21.4843573,8.06046883 21.3339552,7.98526017 21.2410316,7.84558693 C21.07147,7.59065885 20.8894547,7.34207956 20.6997756,7.10717457 C20.531651,6.89912982 20.5608692,6.59096963 20.7649179,6.41955248 C20.9689666,6.24813532 21.2712078,6.27792577 21.4393324,6.48597052 C21.647692,6.74431717 21.8479088,7.01731486 22.034235,7.29812644 C22.1827212,7.5213106 22.1252426,7.82507548 21.9063453,7.97646954 C21.8239595,8.03312023 21.7310359,8.06046883 21.6381123,8.06046883 M7.90362266,7.31766116 C7.79728742,7.31766116 7.6899942,7.28152193 7.60090251,7.20729 C7.39589583,7.03684958 7.36571962,6.72917777 7.53336527,6.52015628 C7.74459878,6.25643758 7.96876497,6.00248624 8.19963698,5.76562777 C8.38644213,5.57516427 8.68964126,5.57369917 8.8769254,5.7636743 C9.06468853,5.95413781 9.06564651,6.26278636 8.87932034,6.4542266 C8.67048176,6.66862014 8.46691204,6.89864145 8.27483803,7.13843012 C8.18095646,7.25661517 8.04300804,7.31766116 7.90362266,7.31766116 M18.9596138,5.34953827 C18.8700431,5.34953827 18.7795145,5.32414314 18.6990445,5.27042266 C18.448534,5.10388918 18.1870068,4.95054164 17.9221267,4.81428698 C17.6864648,4.69268336 17.5916253,4.39917421 17.7108932,4.15840881 C17.8301611,3.91862014 18.1175536,3.82045818 18.3541735,3.94255017 C18.6501878,4.09443261 18.9418912,4.26584976 19.22162,4.45191795 C19.4433912,4.59940508 19.5061386,4.90219322 19.3614844,5.12781922 C19.2695187,5.27188776 19.1167217,5.34953827 18.9596138,5.34953827 M10.8259258,4.88558871 C10.6515744,4.88558871 10.4834497,4.78840348 10.3986689,4.6189398 C10.278443,4.37866276 10.3723246,4.08466525 10.6079865,3.96208489 C10.9063957,3.80727224 11.2148637,3.66808737 11.5257267,3.54990233 C11.7728843,3.45515894 12.0492601,3.58311135 12.1421837,3.83608595 C12.2346283,4.08857219 12.1091335,4.36987214 11.861018,4.46461552 C11.5841632,4.570103 11.3087453,4.6936601 11.0424282,4.8323566 C10.973454,4.86849583 10.8987319,4.88558871 10.8259258,4.88558871 M15.4270804,4.03143314 C15.4083999,4.03143314 15.3897194,4.0304564 15.3710389,4.02801456 C15.0826884,3.9938288 14.789548,3.97673593 14.4997605,3.97673593 C14.2353594,3.97673593 14.0107142,3.75794708 14.0107142,3.48836796 C14.0107142,3.21878885 14.2152419,3 14.479643,3 L14.4997605,3 C14.82643,3 15.1569315,3.01953472 15.481685,3.05811579 C15.7441702,3.08888297 15.9328913,3.33111348 15.9022361,3.59922749 C15.8744548,3.84829515 15.6665742,4.03143314 15.4270804,4.03143314" id="XMLID_115_" fill="#F4BF1A"></path>
                <path d="M2.93923554,14 L0,14 C0.00980071872,14.3365 0.0284220843,14.67 0.0583142764,15 L3,15 C2.96961777,14.67 2.9495263,14.3365 2.93923554,14" id="XMLID_114_" fill="#DCA815"></path>
                <path d="M3,12 L0.0893203883,12 C0.0490291262,12.3295 0.0199029126,12.6635 0,13 L2.91213592,13 C2.93252427,12.6635 2.95970874,12.3295 3,12" id="XMLID_113_" fill="#DCA815"></path>
                <path d="M3.79116279,16 L1,16 C1.06046512,16.338 1.13023256,16.6715 1.20976744,17 L4,17 C3.92093023,16.6715 3.85162791,16.338 3.79116279,16" id="XMLID_112_" fill="#DCA815"></path>
                <path d="M3.63410354,19 L1,19 C1.11187482,19.341 1.2355952,19.6735 1.36721264,20 L4,20 C3.86838257,19.674 3.74597836,19.3405 3.63410354,19" id="XMLID_111_" fill="#DCA815"></path>
                <path d="M4,9 L1.24333027,9 C1.15363385,9.3285 1.0699172,9.661 1,10 L3.76310948,10 C3.83302668,9.662 3.91076357,9.3275 4,9" id="XMLID_110_" fill="#DCA815"></path>
                <path d="M4,7 L1.40072202,7 C1.25776173,7.3255 1.12303249,7.6585 1,8 L3.60101083,8 C3.72404332,7.659 3.85703971,7.3255 4,7" id="XMLID_109_" fill="#DCA815"></path>
                <path d="M7,4 L3.85043911,4 C3.55210381,4.318 3.26844934,4.6515 3,5 L6.14851226,5 C6.41748591,4.6515 6.7016647,4.318 7,4" id="XMLID_108_" fill="#DCA815"></path>
                <path d="M9,1 L6.3123254,1 C5.85551458,1.295 5.41747681,1.629 5,2 L7.68588669,2 C8.10381048,1.629 8.54274221,1.295 9,1" id="XMLID_107_" fill="#DCA815"></path>
                <path d="M6.21058965,22 L3,22 C3.24816152,22.3465 3.51022864,22.68 3.78727103,23 L7,23 C6.72295761,22.68 6.459286,22.3465 6.21058965,22" id="XMLID_106_" fill="#DCA815"></path>
                <path d="M5,24 C5.37620052,24.3615 5.77020379,24.697 6.18247833,25 L9,25 C8.58585149,24.6965 8.18763176,24.363 7.81002577,24 L5,24 Z" id="XMLID_105_" fill="#DCA815"></path>
            </g>
            <g id="coin-copy" transform="translate(13.000000, 0.000000)">
                <path d="M15,27 C8.37257143,27 3,20.9558571 3,13.5 C3,6.04414286 8.37257143,0 15,0 C21.6274286,0 27,6.04414286 27,13.5 C27,20.9558571 21.6274286,27 15,27" id="XMLID_99_" fill="#FFD949"></path>
                <path d="M2.83636364,13.5 C2.83636364,6.60439286 7.27290909,0.919928571 13,0.104142857 C12.5348364,0.0380892857 12.0621091,0 11.5818182,0 C5.18534545,0 0,6.04414286 0,13.5 C0,20.9558571 5.18534545,27 11.5818182,27 C12.0621091,27 12.5348364,26.9619107 13,26.8958571 C7.27290909,26.0800714 2.83636364,20.3956071 2.83636364,13.5" id="XMLID_132_" fill="#F4BF1A"></path>
                <path d="M14.5409534,25 L14.4997605,25 C14.1644692,25 13.826783,24.9794885 13.4962815,24.9394424 C13.2333174,24.9072101 13.0460332,24.6644912 13.0771674,24.3963772 C13.1087806,24.1282632 13.3487534,23.9412183 13.6098016,23.9695436 C13.902942,24.0051945 14.2023092,24.0232641 14.4997605,24.0232641 C14.7646406,24.0232641 14.9993445,24.2420529 14.9993445,24.511632 C14.9993445,24.7812112 14.8063126,25 14.5409534,25 M17.3262662,24.4740277 C17.1327552,24.4740277 16.9502609,24.3534008 16.8779338,24.1575653 C16.7845312,23.905079 16.909547,23.6232907 17.1571836,23.5285473 C17.4330804,23.4225715 17.7084982,23.2980376 17.9743364,23.1588528 C18.2099982,23.0348073 18.4983488,23.1300391 18.6195326,23.3703161 C18.7402375,23.6101048 18.6473139,23.9045907 18.411652,24.0276594 C18.1132427,24.1839371 17.8052537,24.3226336 17.4948698,24.4422838 C17.4397862,24.463772 17.3827867,24.4740277 17.3262662,24.4740277 M10.8431694,24.1009146 C10.7703633,24.1009146 10.6961202,24.0838217 10.626667,24.0476825 C10.3320896,23.8948233 10.0403862,23.7234061 9.76017849,23.5358728 C9.53888623,23.3883857 9.47709683,23.086086 9.62175108,22.8599716 C9.7673633,22.634834 10.0633776,22.5713461 10.2851489,22.7188332 C10.5356594,22.8863435 10.7967076,23.0406677 11.0601508,23.1769224 C11.2958126,23.2990144 11.3901732,23.5930119 11.2704263,23.8332889 C11.1861245,24.003241 11.0175209,24.1009146 10.8431694,24.1009146 M20.4756094,22.3633014 C20.3539466,22.3633014 20.2318048,22.3159297 20.1384022,22.2216747 C19.9506391,22.0316995 19.9492021,21.7225626 20.1355283,21.5311224 C20.3438879,21.3172172 20.5464996,21.0867075 20.7376157,20.8464305 C20.9047823,20.637409 21.2065445,20.6056651 21.4115512,20.7756171 C21.6165578,20.9455692 21.648171,21.253241 21.4810044,21.4627508 C21.2697708,21.7274463 21.0460836,21.981886 20.8156906,22.2187445 C20.7218091,22.3149529 20.5982303,22.3633014 20.4756094,22.3633014 M7.9175133,21.6756793 C7.77908589,21.6756793 7.64161646,21.6146333 7.54677692,21.497425 C7.33889631,21.2385899 7.13915849,20.9651039 6.9537903,20.6842923 C6.80578314,20.4606198 6.86374064,20.1568549 7.08311695,20.0059492 C7.30201427,19.8550435 7.59994454,19.9136477 7.7479517,20.1378086 C7.91703431,20.3937134 8.0985706,20.642781 8.28777069,20.877686 C8.45541634,21.0862191 8.42571911,21.393891 8.22119142,21.5653081 C8.13257872,21.63954 8.02432753,21.6756793 7.9175133,21.6756793 M22.5812388,19.166933 C22.5170545,19.166933 22.4523912,19.1537471 22.3901228,19.1263985 C22.1472761,19.0184692 22.0366299,18.7308205 22.1420072,18.4832179 C22.2622331,18.2028947 22.3719212,17.9118274 22.4681977,17.619295 C22.5524996,17.3643669 22.8240855,17.2261588 23.075075,17.3121115 C23.3255855,17.3985527 23.46066,17.6749689 23.3763582,17.9308737 C23.2709809,18.249778 23.151234,18.5672172 23.0204704,18.8734239 C22.9414375,19.0570503 22.76517,19.166933 22.5812388,19.166933 M6.09161268,18.3039869 C5.89235385,18.3039869 5.70602768,18.1755461 5.63801145,17.9728734 C5.53215519,17.6564109 5.43827363,17.3306695 5.35876169,17.0044397 C5.29457736,16.7426745 5.4507273,16.477979 5.70746464,16.4130261 C5.96324401,16.3466081 6.22429223,16.5067928 6.28799758,16.768558 C6.36128268,17.0679275 6.44750044,17.3672971 6.54473492,17.6573877 C6.62999471,17.9128041 6.49635717,18.1901971 6.24632566,18.2771266 C6.19555298,18.2951962 6.14286435,18.3039869 6.09161268,18.3039869 M23.4860463,15.424081 C23.4735927,15.424081 23.461139,15.4235926 23.4486853,15.4226159 C23.1847632,15.4016161 22.9878993,15.1667111 23.0080167,14.8976203 C23.0305292,14.6016693 23.0420249,14.2993696 23.0420249,14 C23.0420249,13.7304209 23.2566113,13.4960043 23.5210124,13.4960043 C23.7854136,13.4960043 24,13.698677 24,13.9682561 L24,14 C24,14.3247647 23.9875463,14.6519712 23.963118,14.9733174 C23.9439585,15.2292222 23.7336829,15.424081 23.4860463,15.424081 M5.47898757,14.49374 C5.21458643,14.49374 5,14.2803232 5,14.0107441 L5,14 C5,13.666933 5.01293266,13.3319126 5.03831901,13.0051945 C5.05939446,12.7365921 5.28882951,12.537338 5.55370963,12.5568727 C5.81763178,12.5783609 6.01449568,12.8137542 5.99342022,13.0823566 C5.96994983,13.384168 5.95797514,13.6928166 5.95797514,14 C5.95797514,14.2695791 5.74338871,14.49374 5.47898757,14.49374 M23.1708725,11.5816018 C22.9567651,11.5816018 22.7618171,11.4341147 22.7072125,11.212884 C22.6329695,10.9125377 22.5462727,10.6136565 22.4485593,10.323566 C22.3628205,10.0686379 22.496458,9.79075653 22.7464895,9.70333866 C22.997,9.61494406 23.269544,9.75168709 23.3548037,10.0071035 C23.461139,10.3225892 23.5554995,10.6478423 23.6359694,10.9735837 C23.7006328,11.235349 23.5449618,11.5005328 23.2887035,11.5664624 C23.2499055,11.5772065 23.2106285,11.5816018 23.1708725,11.5816018 M6.08538584,10.6942373 C6.03413417,10.6942373 5.98240351,10.6854466 5.93115184,10.6678654 C5.68064134,10.5814243 5.54652482,10.3040313 5.63130562,10.0486148 C5.73716187,9.73117563 5.85738775,9.41422483 5.98910934,9.10704138 C6.09544458,8.85943882 6.37708927,8.74760256 6.61993597,8.85504351 C6.86230368,8.96297283 6.97294981,9.25110993 6.86709355,9.49822412 C6.7459097,9.78001243 6.63574256,10.0710797 6.53898707,10.362147 C6.47049184,10.5657965 6.28512365,10.6942373 6.08538584,10.6942373 M21.6381123,8.06046883 C21.4843573,8.06046883 21.3339552,7.98526017 21.2410316,7.84558693 C21.07147,7.59065885 20.8894547,7.34207956 20.6997756,7.10717457 C20.531651,6.89912982 20.5608692,6.59096963 20.7649179,6.41955248 C20.9689666,6.24813532 21.2712078,6.27792577 21.4393324,6.48597052 C21.647692,6.74431717 21.8479088,7.01731486 22.034235,7.29812644 C22.1827212,7.5213106 22.1252426,7.82507548 21.9063453,7.97646954 C21.8239595,8.03312023 21.7310359,8.06046883 21.6381123,8.06046883 M7.90362266,7.31766116 C7.79728742,7.31766116 7.6899942,7.28152193 7.60090251,7.20729 C7.39589583,7.03684958 7.36571962,6.72917777 7.53336527,6.52015628 C7.74459878,6.25643758 7.96876497,6.00248624 8.19963698,5.76562777 C8.38644213,5.57516427 8.68964126,5.57369917 8.8769254,5.7636743 C9.06468853,5.95413781 9.06564651,6.26278636 8.87932034,6.4542266 C8.67048176,6.66862014 8.46691204,6.89864145 8.27483803,7.13843012 C8.18095646,7.25661517 8.04300804,7.31766116 7.90362266,7.31766116 M18.9596138,5.34953827 C18.8700431,5.34953827 18.7795145,5.32414314 18.6990445,5.27042266 C18.448534,5.10388918 18.1870068,4.95054164 17.9221267,4.81428698 C17.6864648,4.69268336 17.5916253,4.39917421 17.7108932,4.15840881 C17.8301611,3.91862014 18.1175536,3.82045818 18.3541735,3.94255017 C18.6501878,4.09443261 18.9418912,4.26584976 19.22162,4.45191795 C19.4433912,4.59940508 19.5061386,4.90219322 19.3614844,5.12781922 C19.2695187,5.27188776 19.1167217,5.34953827 18.9596138,5.34953827 M10.8259258,4.88558871 C10.6515744,4.88558871 10.4834497,4.78840348 10.3986689,4.6189398 C10.278443,4.37866276 10.3723246,4.08466525 10.6079865,3.96208489 C10.9063957,3.80727224 11.2148637,3.66808737 11.5257267,3.54990233 C11.7728843,3.45515894 12.0492601,3.58311135 12.1421837,3.83608595 C12.2346283,4.08857219 12.1091335,4.36987214 11.861018,4.46461552 C11.5841632,4.570103 11.3087453,4.6936601 11.0424282,4.8323566 C10.973454,4.86849583 10.8987319,4.88558871 10.8259258,4.88558871 M15.4270804,4.03143314 C15.4083999,4.03143314 15.3897194,4.0304564 15.3710389,4.02801456 C15.0826884,3.9938288 14.789548,3.97673593 14.4997605,3.97673593 C14.2353594,3.97673593 14.0107142,3.75794708 14.0107142,3.48836796 C14.0107142,3.21878885 14.2152419,3 14.479643,3 L14.4997605,3 C14.82643,3 15.1569315,3.01953472 15.481685,3.05811579 C15.7441702,3.08888297 15.9328913,3.33111348 15.9022361,3.59922749 C15.8744548,3.84829515 15.6665742,4.03143314 15.4270804,4.03143314" id="XMLID_115_" fill="#F4BF1A"></path>
                <path d="M2.93923554,14 L0,14 C0.00980071872,14.3365 0.0284220843,14.67 0.0583142764,15 L3,15 C2.96961777,14.67 2.9495263,14.3365 2.93923554,14" id="XMLID_114_" fill="#DCA815"></path>
                <path d="M3,12 L0.0893203883,12 C0.0490291262,12.3295 0.0199029126,12.6635 0,13 L2.91213592,13 C2.93252427,12.6635 2.95970874,12.3295 3,12" id="XMLID_113_" fill="#DCA815"></path>
                <path d="M3.79116279,16 L1,16 C1.06046512,16.338 1.13023256,16.6715 1.20976744,17 L4,17 C3.92093023,16.6715 3.85162791,16.338 3.79116279,16" id="XMLID_112_" fill="#DCA815"></path>
                <path d="M3.63410354,19 L1,19 C1.11187482,19.341 1.2355952,19.6735 1.36721264,20 L4,20 C3.86838257,19.674 3.74597836,19.3405 3.63410354,19" id="XMLID_111_" fill="#DCA815"></path>
                <path d="M4,9 L1.24333027,9 C1.15363385,9.3285 1.0699172,9.661 1,10 L3.76310948,10 C3.83302668,9.662 3.91076357,9.3275 4,9" id="XMLID_110_" fill="#DCA815"></path>
                <path d="M4,7 L1.40072202,7 C1.25776173,7.3255 1.12303249,7.6585 1,8 L3.60101083,8 C3.72404332,7.659 3.85703971,7.3255 4,7" id="XMLID_109_" fill="#DCA815"></path>
                <path d="M7,4 L3.85043911,4 C3.55210381,4.318 3.26844934,4.6515 3,5 L6.14851226,5 C6.41748591,4.6515 6.7016647,4.318 7,4" id="XMLID_108_" fill="#DCA815"></path>
                <path d="M9,1 L6.3123254,1 C5.85551458,1.295 5.41747681,1.629 5,2 L7.68588669,2 C8.10381048,1.629 8.54274221,1.295 9,1" id="XMLID_107_" fill="#DCA815"></path>
                <path d="M6.21058965,22 L3,22 C3.24816152,22.3465 3.51022864,22.68 3.78727103,23 L7,23 C6.72295761,22.68 6.459286,22.3465 6.21058965,22" id="XMLID_106_" fill="#DCA815"></path>
                <path d="M5,24 C5.37620052,24.3615 5.77020379,24.697 6.18247833,25 L9,25 C8.58585149,24.6965 8.18763176,24.363 7.81002577,24 L5,24 Z" id="XMLID_105_" fill="#DCA815"></path>
            </g>
            <g id="coin-copy-2" transform="translate(28.000000, 0.000000)">
                <path d="M15,27 C8.37257143,27 3,20.9558571 3,13.5 C3,6.04414286 8.37257143,0 15,0 C21.6274286,0 27,6.04414286 27,13.5 C27,20.9558571 21.6274286,27 15,27" id="XMLID_99_" fill="#FFD949"></path>
                <path d="M2.83636364,13.5 C2.83636364,6.60439286 7.27290909,0.919928571 13,0.104142857 C12.5348364,0.0380892857 12.0621091,0 11.5818182,0 C5.18534545,0 0,6.04414286 0,13.5 C0,20.9558571 5.18534545,27 11.5818182,27 C12.0621091,27 12.5348364,26.9619107 13,26.8958571 C7.27290909,26.0800714 2.83636364,20.3956071 2.83636364,13.5" id="XMLID_132_" fill="#F4BF1A"></path>
                <path d="M14.5409534,25 L14.4997605,25 C14.1644692,25 13.826783,24.9794885 13.4962815,24.9394424 C13.2333174,24.9072101 13.0460332,24.6644912 13.0771674,24.3963772 C13.1087806,24.1282632 13.3487534,23.9412183 13.6098016,23.9695436 C13.902942,24.0051945 14.2023092,24.0232641 14.4997605,24.0232641 C14.7646406,24.0232641 14.9993445,24.2420529 14.9993445,24.511632 C14.9993445,24.7812112 14.8063126,25 14.5409534,25 M17.3262662,24.4740277 C17.1327552,24.4740277 16.9502609,24.3534008 16.8779338,24.1575653 C16.7845312,23.905079 16.909547,23.6232907 17.1571836,23.5285473 C17.4330804,23.4225715 17.7084982,23.2980376 17.9743364,23.1588528 C18.2099982,23.0348073 18.4983488,23.1300391 18.6195326,23.3703161 C18.7402375,23.6101048 18.6473139,23.9045907 18.411652,24.0276594 C18.1132427,24.1839371 17.8052537,24.3226336 17.4948698,24.4422838 C17.4397862,24.463772 17.3827867,24.4740277 17.3262662,24.4740277 M10.8431694,24.1009146 C10.7703633,24.1009146 10.6961202,24.0838217 10.626667,24.0476825 C10.3320896,23.8948233 10.0403862,23.7234061 9.76017849,23.5358728 C9.53888623,23.3883857 9.47709683,23.086086 9.62175108,22.8599716 C9.7673633,22.634834 10.0633776,22.5713461 10.2851489,22.7188332 C10.5356594,22.8863435 10.7967076,23.0406677 11.0601508,23.1769224 C11.2958126,23.2990144 11.3901732,23.5930119 11.2704263,23.8332889 C11.1861245,24.003241 11.0175209,24.1009146 10.8431694,24.1009146 M20.4756094,22.3633014 C20.3539466,22.3633014 20.2318048,22.3159297 20.1384022,22.2216747 C19.9506391,22.0316995 19.9492021,21.7225626 20.1355283,21.5311224 C20.3438879,21.3172172 20.5464996,21.0867075 20.7376157,20.8464305 C20.9047823,20.637409 21.2065445,20.6056651 21.4115512,20.7756171 C21.6165578,20.9455692 21.648171,21.253241 21.4810044,21.4627508 C21.2697708,21.7274463 21.0460836,21.981886 20.8156906,22.2187445 C20.7218091,22.3149529 20.5982303,22.3633014 20.4756094,22.3633014 M7.9175133,21.6756793 C7.77908589,21.6756793 7.64161646,21.6146333 7.54677692,21.497425 C7.33889631,21.2385899 7.13915849,20.9651039 6.9537903,20.6842923 C6.80578314,20.4606198 6.86374064,20.1568549 7.08311695,20.0059492 C7.30201427,19.8550435 7.59994454,19.9136477 7.7479517,20.1378086 C7.91703431,20.3937134 8.0985706,20.642781 8.28777069,20.877686 C8.45541634,21.0862191 8.42571911,21.393891 8.22119142,21.5653081 C8.13257872,21.63954 8.02432753,21.6756793 7.9175133,21.6756793 M22.5812388,19.166933 C22.5170545,19.166933 22.4523912,19.1537471 22.3901228,19.1263985 C22.1472761,19.0184692 22.0366299,18.7308205 22.1420072,18.4832179 C22.2622331,18.2028947 22.3719212,17.9118274 22.4681977,17.619295 C22.5524996,17.3643669 22.8240855,17.2261588 23.075075,17.3121115 C23.3255855,17.3985527 23.46066,17.6749689 23.3763582,17.9308737 C23.2709809,18.249778 23.151234,18.5672172 23.0204704,18.8734239 C22.9414375,19.0570503 22.76517,19.166933 22.5812388,19.166933 M6.09161268,18.3039869 C5.89235385,18.3039869 5.70602768,18.1755461 5.63801145,17.9728734 C5.53215519,17.6564109 5.43827363,17.3306695 5.35876169,17.0044397 C5.29457736,16.7426745 5.4507273,16.477979 5.70746464,16.4130261 C5.96324401,16.3466081 6.22429223,16.5067928 6.28799758,16.768558 C6.36128268,17.0679275 6.44750044,17.3672971 6.54473492,17.6573877 C6.62999471,17.9128041 6.49635717,18.1901971 6.24632566,18.2771266 C6.19555298,18.2951962 6.14286435,18.3039869 6.09161268,18.3039869 M23.4860463,15.424081 C23.4735927,15.424081 23.461139,15.4235926 23.4486853,15.4226159 C23.1847632,15.4016161 22.9878993,15.1667111 23.0080167,14.8976203 C23.0305292,14.6016693 23.0420249,14.2993696 23.0420249,14 C23.0420249,13.7304209 23.2566113,13.4960043 23.5210124,13.4960043 C23.7854136,13.4960043 24,13.698677 24,13.9682561 L24,14 C24,14.3247647 23.9875463,14.6519712 23.963118,14.9733174 C23.9439585,15.2292222 23.7336829,15.424081 23.4860463,15.424081 M5.47898757,14.49374 C5.21458643,14.49374 5,14.2803232 5,14.0107441 L5,14 C5,13.666933 5.01293266,13.3319126 5.03831901,13.0051945 C5.05939446,12.7365921 5.28882951,12.537338 5.55370963,12.5568727 C5.81763178,12.5783609 6.01449568,12.8137542 5.99342022,13.0823566 C5.96994983,13.384168 5.95797514,13.6928166 5.95797514,14 C5.95797514,14.2695791 5.74338871,14.49374 5.47898757,14.49374 M23.1708725,11.5816018 C22.9567651,11.5816018 22.7618171,11.4341147 22.7072125,11.212884 C22.6329695,10.9125377 22.5462727,10.6136565 22.4485593,10.323566 C22.3628205,10.0686379 22.496458,9.79075653 22.7464895,9.70333866 C22.997,9.61494406 23.269544,9.75168709 23.3548037,10.0071035 C23.461139,10.3225892 23.5554995,10.6478423 23.6359694,10.9735837 C23.7006328,11.235349 23.5449618,11.5005328 23.2887035,11.5664624 C23.2499055,11.5772065 23.2106285,11.5816018 23.1708725,11.5816018 M6.08538584,10.6942373 C6.03413417,10.6942373 5.98240351,10.6854466 5.93115184,10.6678654 C5.68064134,10.5814243 5.54652482,10.3040313 5.63130562,10.0486148 C5.73716187,9.73117563 5.85738775,9.41422483 5.98910934,9.10704138 C6.09544458,8.85943882 6.37708927,8.74760256 6.61993597,8.85504351 C6.86230368,8.96297283 6.97294981,9.25110993 6.86709355,9.49822412 C6.7459097,9.78001243 6.63574256,10.0710797 6.53898707,10.362147 C6.47049184,10.5657965 6.28512365,10.6942373 6.08538584,10.6942373 M21.6381123,8.06046883 C21.4843573,8.06046883 21.3339552,7.98526017 21.2410316,7.84558693 C21.07147,7.59065885 20.8894547,7.34207956 20.6997756,7.10717457 C20.531651,6.89912982 20.5608692,6.59096963 20.7649179,6.41955248 C20.9689666,6.24813532 21.2712078,6.27792577 21.4393324,6.48597052 C21.647692,6.74431717 21.8479088,7.01731486 22.034235,7.29812644 C22.1827212,7.5213106 22.1252426,7.82507548 21.9063453,7.97646954 C21.8239595,8.03312023 21.7310359,8.06046883 21.6381123,8.06046883 M7.90362266,7.31766116 C7.79728742,7.31766116 7.6899942,7.28152193 7.60090251,7.20729 C7.39589583,7.03684958 7.36571962,6.72917777 7.53336527,6.52015628 C7.74459878,6.25643758 7.96876497,6.00248624 8.19963698,5.76562777 C8.38644213,5.57516427 8.68964126,5.57369917 8.8769254,5.7636743 C9.06468853,5.95413781 9.06564651,6.26278636 8.87932034,6.4542266 C8.67048176,6.66862014 8.46691204,6.89864145 8.27483803,7.13843012 C8.18095646,7.25661517 8.04300804,7.31766116 7.90362266,7.31766116 M18.9596138,5.34953827 C18.8700431,5.34953827 18.7795145,5.32414314 18.6990445,5.27042266 C18.448534,5.10388918 18.1870068,4.95054164 17.9221267,4.81428698 C17.6864648,4.69268336 17.5916253,4.39917421 17.7108932,4.15840881 C17.8301611,3.91862014 18.1175536,3.82045818 18.3541735,3.94255017 C18.6501878,4.09443261 18.9418912,4.26584976 19.22162,4.45191795 C19.4433912,4.59940508 19.5061386,4.90219322 19.3614844,5.12781922 C19.2695187,5.27188776 19.1167217,5.34953827 18.9596138,5.34953827 M10.8259258,4.88558871 C10.6515744,4.88558871 10.4834497,4.78840348 10.3986689,4.6189398 C10.278443,4.37866276 10.3723246,4.08466525 10.6079865,3.96208489 C10.9063957,3.80727224 11.2148637,3.66808737 11.5257267,3.54990233 C11.7728843,3.45515894 12.0492601,3.58311135 12.1421837,3.83608595 C12.2346283,4.08857219 12.1091335,4.36987214 11.861018,4.46461552 C11.5841632,4.570103 11.3087453,4.6936601 11.0424282,4.8323566 C10.973454,4.86849583 10.8987319,4.88558871 10.8259258,4.88558871 M15.4270804,4.03143314 C15.4083999,4.03143314 15.3897194,4.0304564 15.3710389,4.02801456 C15.0826884,3.9938288 14.789548,3.97673593 14.4997605,3.97673593 C14.2353594,3.97673593 14.0107142,3.75794708 14.0107142,3.48836796 C14.0107142,3.21878885 14.2152419,3 14.479643,3 L14.4997605,3 C14.82643,3 15.1569315,3.01953472 15.481685,3.05811579 C15.7441702,3.08888297 15.9328913,3.33111348 15.9022361,3.59922749 C15.8744548,3.84829515 15.6665742,4.03143314 15.4270804,4.03143314" id="XMLID_115_" fill="#F4BF1A"></path>
                <path d="M2.93923554,14 L0,14 C0.00980071872,14.3365 0.0284220843,14.67 0.0583142764,15 L3,15 C2.96961777,14.67 2.9495263,14.3365 2.93923554,14" id="XMLID_114_" fill="#DCA815"></path>
                <path d="M3,12 L0.0893203883,12 C0.0490291262,12.3295 0.0199029126,12.6635 0,13 L2.91213592,13 C2.93252427,12.6635 2.95970874,12.3295 3,12" id="XMLID_113_" fill="#DCA815"></path>
                <path d="M3.79116279,16 L1,16 C1.06046512,16.338 1.13023256,16.6715 1.20976744,17 L4,17 C3.92093023,16.6715 3.85162791,16.338 3.79116279,16" id="XMLID_112_" fill="#DCA815"></path>
                <path d="M3.63410354,19 L1,19 C1.11187482,19.341 1.2355952,19.6735 1.36721264,20 L4,20 C3.86838257,19.674 3.74597836,19.3405 3.63410354,19" id="XMLID_111_" fill="#DCA815"></path>
                <path d="M4,9 L1.24333027,9 C1.15363385,9.3285 1.0699172,9.661 1,10 L3.76310948,10 C3.83302668,9.662 3.91076357,9.3275 4,9" id="XMLID_110_" fill="#DCA815"></path>
                <path d="M4,7 L1.40072202,7 C1.25776173,7.3255 1.12303249,7.6585 1,8 L3.60101083,8 C3.72404332,7.659 3.85703971,7.3255 4,7" id="XMLID_109_" fill="#DCA815"></path>
                <path d="M7,4 L3.85043911,4 C3.55210381,4.318 3.26844934,4.6515 3,5 L6.14851226,5 C6.41748591,4.6515 6.7016647,4.318 7,4" id="XMLID_108_" fill="#DCA815"></path>
                <path d="M9,1 L6.3123254,1 C5.85551458,1.295 5.41747681,1.629 5,2 L7.68588669,2 C8.10381048,1.629 8.54274221,1.295 9,1" id="XMLID_107_" fill="#DCA815"></path>
                <path d="M6.21058965,22 L3,22 C3.24816152,22.3465 3.51022864,22.68 3.78727103,23 L7,23 C6.72295761,22.68 6.459286,22.3465 6.21058965,22" id="XMLID_106_" fill="#DCA815"></path>
                <path d="M5,24 C5.37620052,24.3615 5.77020379,24.697 6.18247833,25 L9,25 C8.58585149,24.6965 8.18763176,24.363 7.81002577,24 L5,24 Z" id="XMLID_105_" fill="#DCA815"></path>
            </g>
        </g>
    </g>
</svg>