<?xml version="1.0" encoding="UTF-8" standalone="no"?>
<svg width="500px" height="500px" viewBox="0 0 500 500" version="1.1" xmlns="http://www.w3.org/2000/svg" xmlns:xlink="http://www.w3.org/1999/xlink">
    <!-- Generator: Sketch 47.1 (45422) - http://www.bohemiancoding.com/sketch -->
    <title>Home Icons_ Sprite</title>
    <desc>Created with Sketch.</desc>
    <defs></defs>
    <g id="Page-1" stroke="none" stroke-width="1" fill="none" fill-rule="evenodd">
        <g id="Home-Icons_-Sprite">
            <g id="Group-20" transform="translate(146.000000, 147.000000)" stroke-width="1.5" stroke="#FFFFFF" fill="#FFFFFF" fill-rule="nonzero">
                <g id="star">
                    <path d="M34.9519774,12.4707653 C34.8370401,12.1231728 34.5353299,11.8748925 34.1689675,11.8181427 L23.2499302,10.2858985 L18.3363634,0.532029235 C18.1711411,0.205717971 17.833513,0 17.4671506,0 L17.4671506,0 C17.1007881,0 16.76316,0.205717971 16.5979377,0.539122958 L11.7490231,10.3213672 L0.829985845,11.9245486 C0.463623409,11.9812984 0.161913168,12.2295787 0.0469759338,12.5771711 C-0.0679613009,12.9247635 0.0326087795,13.3078246 0.298401135,13.5561049 L8.22188675,21.1392949 L6.39007457,31.8791917 C6.32542238,32.2409716 6.4762775,32.6027515 6.77798774,32.8155632 C6.94321001,32.9361565 7.14435017,33 7.34549033,33 C7.50352903,33 7.65438415,32.9645314 7.7980557,32.8865004 L17.5461699,27.7861135 L27.3230184,32.8297506 C27.46669,32.9006879 27.6175451,32.9361565 27.7684002,32.9361565 L27.7684002,32.9361565 C28.2999849,32.9361565 28.7381831,32.5034394 28.7381831,31.9785039 C28.7381831,31.9004729 28.7309996,31.8295357 28.7094488,31.7585985 L26.820168,21.0825451 L34.6933686,13.4567928 C34.9735281,13.2014187 35.0669146,12.8183577 34.9519774,12.4707653 Z M25.1104767,20.0681427 C24.8806022,20.2880482 24.7800321,20.6072657 24.8375007,20.9193895 L26.4825399,30.233448 L17.9915517,25.8566208 C17.7113922,25.7076526 17.3737641,25.7147463 17.086421,25.8566208 L8.62416707,30.283104 L10.2117376,20.9548581 C10.2620227,20.6427343 10.1614526,20.3306105 9.93157811,20.1107051 L3.06407834,13.52773 L12.5392166,12.1373603 C12.855294,12.0877042 13.12827,11.8961737 13.2647579,11.6124248 L17.4743341,3.12123818 L21.741379,11.5911436 C21.8850505,11.8748925 22.1580264,12.066423 22.4741038,12.1160791 L31.9564257,13.4496991 L25.1104767,20.0681427 Z" id="Shape"></path>
                </g>
            </g>
            <g id="Group-8" transform="translate(0.000000, 145.000000)" fill-rule="nonzero" fill="#FFFFFF">
                <path d="M8,38 C8,39.1 8.9,40 10,40 L18,40 C19.1,40 20,39.1 20,38 L20,36 L8,36 L8,38 Z M14,0 C6.28,0 0,6.28 0,14 C0,18.76 2.38,22.94 6,25.48 L6,30 C6,31.1 6.9,32 8,32 L20,32 C21.1,32 22,31.1 22,30 L22,25.48 C25.62,22.94 28,18.76 28,14 C28,6.28 21.72,0 14,0 Z M19.7,22.2 L18,23.4 L18,28 L10,28 L10,23.4 L8.3,22.2 C5.6,20.32 4,17.26 4,14 C4,8.48 8.48,4 14,4 C19.52,4 24,8.48 24,14 C24,17.26 22.4,20.32 19.7,22.2 Z" id="Shape"></path>
            </g>
            <g id="Group-8-Copy" transform="translate(0.000000, 202.000000)" fill="#FFFFFF">
                <path d="M8,38 C8,39.1 8.9,40 10,40 L18,40 C19.1,40 20,39.1 20,38 L20,36 L8,36 L8,38 Z M14,0 C6.28,0 0,6.28 0,14 C0,18.76 2.38,22.94 6,25.48 L6,30 C6,31.1 6.9,32 8,32 L20,32 C21.1,32 22,31.1 22,30 L22,25.48 C25.62,22.94 28,18.76 28,14 C28,6.28 21.72,0 14,0 Z M19.7,22.2 L18,23.4 L18,28 L10,28 L10,23.4 L8.3,22.2 C5.6,20.32 4,17.26 4,14 C4,8.48 8.48,4 14,4 C19.52,4 24,8.48 24,14 C24,17.26 22.4,20.32 19.7,22.2 Z" id="Shape" fill-rule="nonzero"></path>
                <circle id="Oval-2" cx="14.5" cy="13.5" r="11.5"></circle>
                <rect id="Rectangle-5" x="8" y="23" width="12" height="7"></rect>
            </g>
            <g id="Group-18" transform="translate(68.000000, 149.000000)" stroke-width="1.5" stroke="#FFFFFF" fill="#FFFFFF" fill-rule="nonzero">
                <g id="bar-graph-progress">
                    <path d="M28.2368421,0 L21.3684211,0 C20.9486842,0 20.6052632,0.343421053 20.6052632,0.763157895 L20.6052632,13.6605263 L15.2631579,13.6605263 L15.2631579,8.39473684 C15.2631579,7.975 14.9197368,7.63157895 14.5,7.63157895 L7.63157895,7.63157895 C7.21184211,7.63157895 6.86842105,7.975 6.86842105,8.39473684 L6.86842105,20.1855263 L0.763157895,20.1855263 C0.343421053,20.1855263 0,20.5289474 0,20.9486842 L0,28.2368421 C0,28.6565789 0.343421053,29 0.763157895,29 L28.2368421,29 C28.6565789,29 29,28.6565789 29,28.2368421 L29,0.763157895 C29,0.343421053 28.6565789,0 28.2368421,0 Z M6.86842105,27.4736842 L1.52631579,27.4736842 L1.52631579,21.7118421 L6.86842105,21.7118421 L6.86842105,27.4736842 Z M13.7368421,27.4736842 L8.39473684,27.4736842 L8.39473684,9.15789474 L13.7368421,9.15789474 L13.7368421,27.4736842 Z M20.6052632,27.4736842 L15.2631579,27.4736842 L15.2631579,15.1868421 L20.6052632,15.1868421 L20.6052632,27.4736842 Z M27.4736842,27.4736842 L22.1315789,27.4736842 L22.1315789,1.52631579 L27.4736842,1.52631579 L27.4736842,27.4736842 Z" id="Bar_Graph"></path>
                </g>
            </g>
            <g id="Group-18-Copy" transform="translate(68.000000, 208.000000)" fill="#FFFFFF">
                <g id="Group-2">
                    <g id="bar-graph-progress" stroke="#FFFFFF" stroke-width="1.5" fill-rule="nonzero">
                        <path d="M28.2368421,0 L21.3684211,0 C20.9486842,0 20.6052632,0.343421053 20.6052632,0.763157895 L20.6052632,13.6605263 L15.2631579,13.6605263 L15.2631579,8.39473684 C15.2631579,7.975 14.9197368,7.63157895 14.5,7.63157895 L7.63157895,7.63157895 C7.21184211,7.63157895 6.86842105,7.975 6.86842105,8.39473684 L6.86842105,20.1855263 L0.763157895,20.1855263 C0.343421053,20.1855263 0,20.5289474 0,20.9486842 L0,28.2368421 C0,28.6565789 0.343421053,29 0.763157895,29 L28.2368421,29 C28.6565789,29 29,28.6565789 29,28.2368421 L29,0.763157895 C29,0.343421053 28.6565789,0 28.2368421,0 Z M6.86842105,27.4736842 L1.52631579,27.4736842 L1.52631579,21.7118421 L6.86842105,21.7118421 L6.86842105,27.4736842 Z M13.7368421,27.4736842 L8.39473684,27.4736842 L8.39473684,9.15789474 L13.7368421,9.15789474 L13.7368421,27.4736842 Z M20.6052632,27.4736842 L15.2631579,27.4736842 L15.2631579,15.1868421 L20.6052632,15.1868421 L20.6052632,27.4736842 Z M27.4736842,27.4736842 L22.1315789,27.4736842 L22.1315789,1.52631579 L27.4736842,1.52631579 L27.4736842,27.4736842 Z" id="Bar_Graph"></path>
                    </g>
                    <rect id="Rectangle-6" x="7" y="9" width="8" height="19"></rect>
                    <rect id="Rectangle-6-Copy" x="22" y="2" width="7" height="26"></rect>
                    <rect id="Rectangle-6-Copy-2" x="15" y="14" width="7" height="14"></rect>
                    <rect id="Rectangle-6-Copy-3" x="1" y="22" width="7" height="6"></rect>
                </g>
            </g>
            <g id="Refer-Friend-(1)" transform="translate(227.000000, 147.000000)" fill="#FFFFFF" fill-rule="nonzero">
                <path d="M33.9740221,15.8358906 L20.7411575,2.06758328 C19.3731871,0.644179484 17.1470278,0.644098333 15.7789015,2.06758328 C14.5490619,3.3471048 14.4431434,5.2985638 15.3513279,6.69202257 C14.3788748,11.751517 12.0562345,16.2671316 8.61591273,19.8465783 L2.54634872,26.1617356 C1.17502456,27.5886289 -0.512170131,30.1889873 0.147529521,32.6312996 C0.807229173,35.0736119 3.45342711,36.8588125 3.45342711,36.8588125 C3.45342711,36.8588125 5.7511852,39.2406448 10.8167234,34.7667554 L11.6437921,33.9062209 L17.4331168,39.9297996 C18.8044409,41.3566928 21.0238927,41.3567741 22.3952948,39.9297996 C23.7634211,38.5063957 23.7634211,36.1902403 22.3952948,34.7668364 L19.9141668,32.1853141 L20.7412355,31.3247799 C22.1125596,29.8980488 24.4287178,27.8150323 22.9017831,25.8285513 L21.7895758,24.748272 C24.5544529,22.7341637 26.0841115,22.1606239 29.4373899,21.4627989 C30.8997352,22.4051344 32.7709351,22.2505401 33.9740221,20.9987725 C35.3419926,19.5754499 35.3419926,17.2593755 33.9740221,15.8358906 Z M9.30733222,32.8169745 C8.8616976,33.2827186 6.92948593,35.0760835 5.68476028,34.9577654 C4.44003462,34.8394474 2.65366879,33.3990786 2.32939134,31.6618477 C2.00511389,29.9246165 4.0233679,28.22543 4.46907859,27.7595267 L10.1136571,21.8591447 L14.9519108,26.9165923 C14.3996584,27.493864 9.87319694,32.2253941 9.30733222,32.8169745 Z M20.7411575,36.4877428 C21.1971216,36.9621567 21.1971216,37.7342357 20.7411575,38.2087306 C20.2851934,38.6831444 19.5430622,38.6831444 19.0870981,38.2087306 L13.2977734,32.1851519 L14.9519108,30.4641643 L20.7411575,36.4877428 Z M16.6059701,28.7431766 C16.9575757,28.377344 18.7734348,26.7339379 20.0939169,25.8870374 L20.8664664,26.6909278 C21.7079502,27.6036718 19.5633347,29.2540475 19.1062006,29.7297598 L18.2600295,30.4642455 L16.6059701,28.7431766 Z M16.6556535,25.3529761 L11.5938747,20.0863821 C14.3064946,16.8274041 16.2490608,12.9803998 17.2883564,8.8010785 L27.5020773,19.4280781 C23.4852877,20.5093456 19.7879694,22.5305141 16.6556535,25.3529761 Z M32.319729,19.2777037 C31.8625947,19.7532536 31.1228036,19.7532536 30.6656695,19.2777037 L17.4329608,5.50955867 C16.9758267,5.03384641 16.9758267,4.26420209 17.4329608,3.78857096 C17.8900948,3.31293987 18.6299641,3.31293987 19.0870981,3.78857096 L32.319729,17.5566348 C32.775693,18.0311298 32.775693,18.8031275 32.319729,19.2777037 Z" id="Shape" stroke="#FFFFFF" stroke-width="0.56"></path>
                <path d="M25,0 C24.4477194,0 24,0.447719392 24,1 L24,3 C24,3.55228061 24.4477194,4 25,4 C25.5522806,4 26,3.55228061 26,3 L26,1 C26,0.447719392 25.5522806,0 25,0 Z" id="Shape"></path>
                <path d="M37,12 L35,12 C34.4477195,12 34,12.4477194 34,13 C34,13.5522806 34.4477195,14 35,14 L37,14 C37.5522805,14 38,13.5522806 38,13 C38,12.4477194 37.5522139,12 37,12 Z" id="Shape"></path>
                <path d="M33.707117,3.29288114 C33.316673,2.90237295 32.6834269,2.90237295 32.2929162,3.29288114 L30.292883,5.292902 C29.9023723,5.68341018 29.9023723,6.31658563 30.292883,6.70709384 C30.6833269,7.09760205 31.316573,7.09766872 31.7070837,6.70709384 L33.707117,4.70707301 C34.0976277,4.3165648 34.0976277,3.68345605 33.707117,3.29288114 Z" id="Shape"></path>
            </g>
            <g id="Group" transform="translate(146.000000, 203.000000)" fill="#FFFFFF">
                <g id="star" stroke="#FFFFFF" stroke-width="1.5" fill-rule="nonzero">
                    <path d="M34.9519774,12.4707653 C34.8370401,12.1231728 34.5353299,11.8748925 34.1689675,11.8181427 L23.2499302,10.2858985 L18.3363634,0.532029235 C18.1711411,0.205717971 17.833513,0 17.4671506,0 L17.4671506,0 C17.1007881,0 16.76316,0.205717971 16.5979377,0.539122958 L11.7490231,10.3213672 L0.829985845,11.9245486 C0.463623409,11.9812984 0.161913168,12.2295787 0.0469759338,12.5771711 C-0.0679613009,12.9247635 0.0326087795,13.3078246 0.298401135,13.5561049 L8.22188675,21.1392949 L6.39007457,31.8791917 C6.32542238,32.2409716 6.4762775,32.6027515 6.77798774,32.8155632 C6.94321001,32.9361565 7.14435017,33 7.34549033,33 C7.50352903,33 7.65438415,32.9645314 7.7980557,32.8865004 L17.5461699,27.7861135 L27.3230184,32.8297506 C27.46669,32.9006879 27.6175451,32.9361565 27.7684002,32.9361565 L27.7684002,32.9361565 C28.2999849,32.9361565 28.7381831,32.5034394 28.7381831,31.9785039 C28.7381831,31.9004729 28.7309996,31.8295357 28.7094488,31.7585985 L26.820168,21.0825451 L34.6933686,13.4567928 C34.9735281,13.2014187 35.0669146,12.8183577 34.9519774,12.4707653 Z M25.1104767,20.0681427 C24.8806022,20.2880482 24.7800321,20.6072657 24.8375007,20.9193895 L26.4825399,30.233448 L17.9915517,25.8566208 C17.7113922,25.7076526 17.3737641,25.7147463 17.086421,25.8566208 L8.62416707,30.283104 L10.2117376,20.9548581 C10.2620227,20.6427343 10.1614526,20.3306105 9.93157811,20.1107051 L3.06407834,13.52773 L12.5392166,12.1373603 C12.855294,12.0877042 13.12827,11.8961737 13.2647579,11.6124248 L17.4743341,3.12123818 L21.741379,11.5911436 C21.8850505,11.8748925 22.1580264,12.066423 22.4741038,12.1160791 L31.9564257,13.4496991 L25.1104767,20.0681427 Z" id="Shape"></path>
                </g>
                <polygon id="Star" points="17.2903195 25.5385967 8.45841633 30.1818029 10.1451597 20.3473342 3 13.3825248 12.8743679 11.9476952 17.2903195 3 21.7062711 11.9476952 31.580639 13.3825248 24.4354792 20.3473342 26.1222226 30.1818029"></polygon>
            </g>
            <g id="Group-4" transform="translate(226.000000, 202.000000)" fill="#FFFFFF">
                <g id="Group-3">
                    <g id="Refer-Friend-(2)" fill-rule="nonzero">
                        <path d="M34.9447085,16.8358906 L21.333762,3.06758328 C19.9267068,1.64417948 17.6369428,1.64409833 16.2297272,3.06758328 C14.9647494,4.3471048 14.8558047,6.2985638 15.7899372,7.69202257 C14.7896998,12.751517 12.4006983,17.2671316 8.86208166,20.8465783 L2.61910154,27.1617356 C1.20859669,28.5886289 -0.526803563,31.1889873 0.15174465,33.6312996 C0.830292863,36.0736119 3.55209645,37.8588125 3.55209645,37.8588125 C3.55209645,37.8588125 5.91550477,40.2406448 11.1257727,35.7667554 L11.9764719,34.9062209 L17.9312058,40.9297996 C19.3417107,42.3566928 21.6245753,42.3567741 23.0351604,40.9297996 C24.442376,39.5063957 24.442376,37.1902403 23.0351604,35.7668364 L20.483143,33.1853141 L21.3338422,32.3247799 C22.7443471,30.8980488 25.1266812,28.8150323 23.5561197,26.8285513 L22.4121351,25.748272 C25.2560087,23.7341637 26.8293719,23.1606239 30.2784582,22.4627989 C31.7825848,23.4051344 33.7072475,23.2505401 34.9447085,21.9987725 C36.3517638,20.5754499 36.3517638,18.2593755 34.9447085,16.8358906 Z M9.573256,33.8169745 C9.11488896,34.2827186 7.12747124,36.0760835 5.847182,35.9577654 C4.56689276,35.8394474 2.7294879,34.3990786 2.39594538,32.6618477 C2.06240285,30.9246165 4.13832127,29.22543 4.59676655,28.7595267 L10.4026188,22.8591447 L15.3791082,27.9165923 C14.8110772,28.493864 10.1552883,33.2253941 9.573256,33.8169745 Z M21.333762,37.4877428 C21.8027536,37.9621567 21.8027536,38.7342357 21.333762,39.2087306 C20.8647703,39.6831444 20.1014354,39.6831444 19.6324438,39.2087306 L13.6777098,33.1851519 L15.3791082,31.4641643 L21.333762,37.4877428 Z M17.0804264,29.7431766 C17.4420779,29.377344 19.3098186,27.7339379 20.6680288,26.8870374 L21.4626512,27.6909278 C22.3281773,28.6036718 20.1222871,30.2540475 19.6520921,30.7297598 L18.7817446,31.4642455 L17.0804264,29.7431766 Z M17.1315293,26.3529761 L11.9251283,21.0863821 C14.7152516,17.8274041 16.7133197,13.9803998 17.7823094,9.8010785 L28.2878509,20.4280781 C24.1562959,21.5093456 20.35334,23.5305141 17.1315293,26.3529761 Z M33.2431498,20.2777037 C32.7729546,20.7532536 32.0120265,20.7532536 31.5418315,20.2777037 L17.9310454,6.50955867 C17.4608504,6.03384641 17.4608504,5.26420209 17.9310454,4.78857096 C18.4012404,4.31293987 19.1622488,4.31293987 19.6324438,4.78857096 L33.2431498,18.5566348 C33.7121414,19.0311298 33.7121414,19.8031275 33.2431498,20.2777037 Z" id="Shape"></path>
                        <path d="M26,0 C25.4477194,0 25,0.55964924 25,1.25 L25,3.75 C25,4.44035077 25.4477194,5 26,5 C26.5522806,5 27,4.44035077 27,3.75 L27,1.25 C27,0.55964924 26.5522806,0 26,0 Z" id="Shape"></path>
                        <path d="M37.75,11 L35.25,11 C34.5596493,11 34,11.4477194 34,12 C34,12.5522806 34.5596493,13 35.25,13 L37.75,13 C38.4403507,13 39,12.5522806 39,12 C39,11.4477194 38.4402673,11 37.75,11 Z" id="Shape"></path>
                        <path d="M35.6338963,4.36610143 C35.1458413,3.87796619 34.3542836,3.87796619 33.8661453,4.36610143 L31.3661037,6.8661275 C30.8779654,7.35426273 30.8779654,8.14573203 31.3661037,8.6338673 C31.8541586,9.12200257 32.6457163,9.1220859 33.1338546,8.6338673 L35.6338963,6.13384126 C36.1220346,5.64570599 36.1220346,4.85432006 35.6338963,4.36610143 Z" id="Shape"></path>
                    </g>
                    <polygon id="Path-2" points="9.5 22.5 17.5 8.5 28.5 20 8 36 4.5 37.5 1 32.5"></polygon>
                    <polygon id="Path-3" points="20.5 25.5 22 27.5 22 29.5 20 31.5 19 33 16 29.25"></polygon>
                </g>
            </g>
            <g id="Group-9" transform="translate(135.000000, 293.000000)" stroke="#8FC637" stroke-width="2">
                <path d="M0.194496481,12.2027998 C1.08767089,8.54184114 2.89932464,5.95600453 5.54307714,4.56858713 C6.27569547,4.18411509 7.91254491,3.63135624 8.31997278,3.63083662 C8.54039625,3.63049862 8.54129013,3.62321731 8.54129013,1.81527726 L8.54129013,0 L11.2706456,3.10011333 L14,6.2002273 L11.2706456,9.30034154 L8.54129013,12.4004547 L8.54129013,10.5851763 L8.54129013,8.76990047 L7.87733924,8.77055047 C6.31823436,8.77209747 4.11788019,9.37851455 2.93459361,10.1327665 C2.1442873,10.6365264 1.39703745,11.3178938 0.654890811,12.2114774 L0,13 L0.194496366,12.2027933 L0.194496481,12.2027998 Z" id="path7204-copy-2"></path>
            </g>
            <g id="Group-9-Copy" transform="translate(135.000000, 326.000000)" stroke="#8FC637" stroke-width="2" fill="#8FC637">
                <path d="M0.194496481,12.2027998 C1.08767089,8.54184114 2.89932464,5.95600453 5.54307714,4.56858713 C6.27569547,4.18411509 7.91254491,3.63135624 8.31997278,3.63083662 C8.54039625,3.63049862 8.54129013,3.62321731 8.54129013,1.81527726 L8.54129013,0 L11.2706456,3.10011333 L14,6.2002273 L11.2706456,9.30034154 L8.54129013,12.4004547 L8.54129013,10.5851763 L8.54129013,8.76990047 L7.87733924,8.77055047 C6.31823436,8.77209747 4.11788019,9.37851455 2.93459361,10.1327665 C2.1442873,10.6365264 1.39703745,11.3178938 0.654890811,12.2114774 L0,13 L0.194496366,12.2027933 L0.194496481,12.2027998 Z" id="path7204-copy-2"></path>
            </g>
            <g id="Group-2" transform="translate(70.000000, 293.000000)" stroke-width="2" stroke="#FFCF48">
                <polygon id="Path-10622-Copy-2" points="0.0532708124 0 14 0 14 11.5693022 7.34997535 11.5693022 3.26597525 16 3.26597525 11.6002028 0 11.6002028"></polygon>
            </g>
            <g id="Group-2-Copy" transform="translate(70.000000, 327.000000)" stroke-width="2" stroke="#FFCF48" fill="#FFCF48">
                <polygon id="Path-10622-Copy-2" points="0.0532708124 0 14 0 14 11.5693022 7.34997535 11.5693022 3.26597525 16 3.26597525 11.6002028 0 11.6002028"></polygon>
            </g>
            <path d="M10,339.818182 L8.84,338.824176 C4.72,335.307506 2,332.98816 2,330.141689 C2,327.822343 3.936,326 6.4,326 C7.792,326 9.128,326.609958 10,327.573842 C10.872,326.609958 12.208,326 13.6,326 C16.064,326 18,327.822343 18,330.141689 C18,332.98816 15.28,335.307506 11.16,338.831707 L10,339.818182 Z" id="Shape-Copy-2" fill="#FF5A5A" fill-rule="nonzero"></path>
            <path d="M10,306.818182 L8.84,305.824176 C4.72,302.307506 2,299.98816 2,297.141689 C2,294.822343 3.936,293 6.4,293 C7.792,293 9.128,293.609958 10,294.573842 C10.872,293.609958 12.208,293 13.6,293 C16.064,293 18,294.822343 18,297.141689 C18,299.98816 15.28,302.307506 11.16,305.831707 L10,306.818182 Z" id="Shape-Copy-3" stroke="#FF5A5A" stroke-width="2" fill-rule="nonzero"></path>
            <g id="Group-5" transform="translate(37.000000, 66.000000)" fill-rule="nonzero" fill="#565B65">
                <g id="book-opened-filled-reading-tool">
                    <path d="M14,0.927625141 C14,0.394174805 13.6173309,-0.0279467654 13.1620867,0.00144712124 C10.4543733,0.177702205 8.99495273,1.20130836 8.24149056,2.04864396 C8.08710339,2.22336828 8,2.4645806 8,2.71508579 L8,12.5352107 C8,12.9186764 8.37475176,13.1366798 8.63602235,12.9047449 C9.47789426,12.1517449 10.901687,11.3817055 13.2491769,11.245637 C13.6700997,11.2208973 13.9999868,10.8126918 13.9999868,10.319459 L13.9999868,0.927625141 L14,0.927625141 Z" id="Shape"></path>
                    <path d="M0.74967004,11.2448386 C3.09766828,11.3808957 4.52177739,12.1493086 5.36384954,12.9038066 C5.62384514,13.1372835 6,12.9192676 6,12.5343036 L6,2.71500669 C6,2.46297652 5.91289045,2.2218 5.75846898,2.04862106 C5.00483942,1.2013569 3.54509459,0.177837052 0.838099428,0.00159683003 C0.38275407,-0.0293252197 0,0.392760759 0,0.927696757 L0,10.3202694 C0,10.8119299 0.329960405,11.2216471 0.74967004,11.2448386 Z" id="Shape"></path>
                </g>
            </g>
            <g id="Group-5-Copy" transform="translate(37.000000, 91.000000)" fill-rule="nonzero" fill="#FFFFFF">
                <g id="book-opened-filled-reading-tool">
                    <path d="M14,0.927625141 C14,0.394174805 13.6173309,-0.0279467654 13.1620867,0.00144712124 C10.4543733,0.177702205 8.99495273,1.20130836 8.24149056,2.04864396 C8.08710339,2.22336828 8,2.4645806 8,2.71508579 L8,12.5352107 C8,12.9186764 8.37475176,13.1366798 8.63602235,12.9047449 C9.47789426,12.1517449 10.901687,11.3817055 13.2491769,11.245637 C13.6700997,11.2208973 13.9999868,10.8126918 13.9999868,10.319459 L13.9999868,0.927625141 L14,0.927625141 Z" id="Shape"></path>
                    <path d="M0.74967004,11.2448386 C3.09766828,11.3808957 4.52177739,12.1493086 5.36384954,12.9038066 C5.62384514,13.1372835 6,12.9192676 6,12.5343036 L6,2.71500669 C6,2.46297652 5.91289045,2.2218 5.75846898,2.04862106 C5.00483942,1.2013569 3.54509459,0.177837052 0.838099428,0.00159683003 C0.38275407,-0.0293252197 0,0.392760759 0,0.927696757 L0,10.3202694 C0,10.8119299 0.329960405,11.2216471 0.74967004,11.2448386 Z" id="Shape"></path>
                </g>
            </g>
            <g id="Group-3" transform="translate(1.000000, 65.000000)" fill-rule="nonzero" fill="#565B65">
                <path d="M11.52,4.368 L6,0.096 C5.84,-0.032 5.664,-0.032 5.472,0.096 L0.144,4.368 C0.048,4.448 0,4.56 0,4.704 L0,12.408 C0,12.5361176 0.04,12.64 0.12,12.72 C0.2,12.8 0.296,12.8401176 0.408,12.8401176 L3.576,12.8401176 C3.704,12.8401176 3.808,12.8000784 3.888,12.72 C3.968,12.64 4.008,12.5361176 4.008,12.408 L4.008,7.68003922 L7.656,7.68003922 L7.656,12.4079608 C7.656,12.5360784 7.696,12.6399608 7.776,12.7199608 C7.856,12.7999608 7.96,12.8400784 8.088,12.8400784 L11.256,12.8400784 C11.384,12.8400784 11.488,12.8000392 11.568,12.7199608 C11.648,12.6398824 11.688,12.5360784 11.688,12.4079608 L11.688,4.704 C11.688,4.56 11.632,4.448 11.52,4.368 Z" id="Shape"></path>
            </g>
            <g id="Group-3-Copy" transform="translate(1.000000, 90.000000)" fill-rule="nonzero" fill="#FFFFFF">
                <path d="M11.52,4.368 L6,0.096 C5.84,-0.032 5.664,-0.032 5.472,0.096 L0.144,4.368 C0.048,4.448 0,4.56 0,4.704 L0,12.408 C0,12.5361176 0.04,12.64 0.12,12.72 C0.2,12.8 0.296,12.8401176 0.408,12.8401176 L3.576,12.8401176 C3.704,12.8401176 3.808,12.8000784 3.888,12.72 C3.968,12.64 4.008,12.5361176 4.008,12.408 L4.008,7.68003922 L7.656,7.68003922 L7.656,12.4079608 C7.656,12.5360784 7.696,12.6399608 7.776,12.7199608 C7.856,12.7999608 7.96,12.8400784 8.088,12.8400784 L11.256,12.8400784 C11.384,12.8400784 11.488,12.8000392 11.568,12.7199608 C11.648,12.6398824 11.688,12.5360784 11.688,12.4079608 L11.688,4.704 C11.688,4.56 11.632,4.448 11.52,4.368 Z" id="Shape"></path>
            </g>
            <g id="Group-4" transform="translate(75.000000, 65.000000)" fill-rule="nonzero" fill="#565B65">
                <g id="Group-7">
                    <g id="group-(2)">
                        <path d="M0.229808275,10.9548164 C0.229808275,7.6747345 3.15622149,7.6754345 3.80561898,6.81778879 L3.87993133,6.42669618 C2.96756057,5.97134314 2.3234965,4.87422583 2.3234965,3.59069727 C2.3234965,1.899906 3.4408129,0.52901686 4.81875587,0.52901686 C5.90378729,0.52901686 6.82447819,1.38050254 7.1680928,2.56729045 C5.78780313,2.99905333 4.76677278,4.47228315 4.76677278,6.22355482 C4.76677278,7.42924286 5.24962527,8.53777025 6.04231404,9.24204495 C5.91502303,9.30630538 5.77343845,9.37182581 5.65169419,9.42796619 C5.01246576,9.72315815 4.12640655,10.1335009 3.48717812,10.9548164 L0.229808275,10.9548164 L0.229808275,10.9548164 Z M8.03232054,13.5874639 L8.03232054,13.5873239 L7.96718168,13.5873239 L3.41094574,13.5873239 C3.41094574,10.307382 6.33735896,10.3082921 6.98675645,9.45064634 L7.0610688,9.05955373 C6.14869803,8.60420069 5.50463397,7.50708338 5.50463397,6.22355482 C5.50463397,4.53276355 6.62195037,3.16187441 7.99989333,3.16187441 C9.3778363,3.16187441 10.4951527,4.53276355 10.4951527,6.22355482 C10.4951527,7.49602331 9.86253771,8.58663058 8.96232715,9.04884366 L9.04695078,9.49348662 C9.75942488,10.3095521 12.5884854,10.3627524 12.5884854,13.5874639 L8.03232054,13.5874639 L8.03232054,13.5874639 Z M12.5123241,10.9549564 L12.5123241,10.9548164 L12.5123241,10.9548164 C11.8728823,10.1336409 10.9868231,9.72336816 10.3475947,9.42817619 C10.221797,9.3700758 10.0823458,9.30560537 9.95768596,9.24260495 C10.7496636,8.53742025 11.233085,7.42651284 11.233085,6.22355482 C11.233085,4.47249315 10.2124102,2.99954333 8.8324761,2.56764045 C9.17587738,1.38064254 10.0965683,0.529156861 11.181813,0.529156861 C12.5598982,0.529156861 13.6770724,1.900046 13.6770724,3.59083727 C13.6770724,4.86330576 13.0444574,5.95377303 12.1442468,6.41612611 L12.2288705,6.86076907 C12.9413446,7.67669451 15.7704051,7.72982487 15.7704051,10.9549564 L12.5123241,10.9549564 Z" id="Shape"></path>
                    </g>
                </g>
            </g>
            <g id="Group-4-Copy" transform="translate(75.000000, 90.000000)" fill-rule="nonzero" fill="#FFFFFF">
                <g id="Group-7">
                    <g id="group-(2)">
                        <path d="M0.229808275,10.9548164 C0.229808275,7.6747345 3.15622149,7.6754345 3.80561898,6.81778879 L3.87993133,6.42669618 C2.96756057,5.97134314 2.3234965,4.87422583 2.3234965,3.59069727 C2.3234965,1.899906 3.4408129,0.52901686 4.81875587,0.52901686 C5.90378729,0.52901686 6.82447819,1.38050254 7.1680928,2.56729045 C5.78780313,2.99905333 4.76677278,4.47228315 4.76677278,6.22355482 C4.76677278,7.42924286 5.24962527,8.53777025 6.04231404,9.24204495 C5.91502303,9.30630538 5.77343845,9.37182581 5.65169419,9.42796619 C5.01246576,9.72315815 4.12640655,10.1335009 3.48717812,10.9548164 L0.229808275,10.9548164 L0.229808275,10.9548164 Z M8.03232054,13.5874639 L8.03232054,13.5873239 L7.96718168,13.5873239 L3.41094574,13.5873239 C3.41094574,10.307382 6.33735896,10.3082921 6.98675645,9.45064634 L7.0610688,9.05955373 C6.14869803,8.60420069 5.50463397,7.50708338 5.50463397,6.22355482 C5.50463397,4.53276355 6.62195037,3.16187441 7.99989333,3.16187441 C9.3778363,3.16187441 10.4951527,4.53276355 10.4951527,6.22355482 C10.4951527,7.49602331 9.86253771,8.58663058 8.96232715,9.04884366 L9.04695078,9.49348662 C9.75942488,10.3095521 12.5884854,10.3627524 12.5884854,13.5874639 L8.03232054,13.5874639 L8.03232054,13.5874639 Z M12.5123241,10.9549564 L12.5123241,10.9548164 L12.5123241,10.9548164 C11.8728823,10.1336409 10.9868231,9.72336816 10.3475947,9.42817619 C10.221797,9.3700758 10.0823458,9.30560537 9.95768596,9.24260495 C10.7496636,8.53742025 11.233085,7.42651284 11.233085,6.22355482 C11.233085,4.47249315 10.2124102,2.99954333 8.8324761,2.56764045 C9.17587738,1.38064254 10.0965683,0.529156861 11.181813,0.529156861 C12.5598982,0.529156861 13.6770724,1.900046 13.6770724,3.59083727 C13.6770724,4.86330576 13.0444574,5.95377303 12.1442468,6.41612611 L12.2288705,6.86076907 C12.9413446,7.67669451 15.7704051,7.72982487 15.7704051,10.9549564 L12.5123241,10.9549564 Z" id="Shape"></path>
                    </g>
                </g>
            </g>
            <g id="Group-18" transform="translate(1.000000, 2.000000)">
                <g id="more-horizontal" transform="translate(142.000000, 4.000000)" stroke="#565B65" stroke-width="1.5" stroke-linecap="round" stroke-linejoin="round">
                    <circle id="Oval" cx="10" cy="2" r="2"></circle>
                    <circle id="Oval" cx="18" cy="2" r="2"></circle>
                    <circle id="Oval" cx="2" cy="2" r="2"></circle>
                </g>
                <path d="M84,10.0026586 C84.9941125,10.0026586 85.8,9.19653306 85.8,8.20212685 L85.8,5.20124064 C85.8,2.88095949 87.6804041,1 90,1 C92.3195959,1 94.2,2.88095949 94.2,5.20124064 L94.2,8.20212685 C94.2,9.19653306 95.0058875,10.0026586 96,10.0026586 L84,10.0026586 Z M91,12.0032494 C90.7931805,12.6202359 90.4121784,13 90,13 C89.5878216,13 89.2068195,12.6202359 89,12.0032494 L91,12.0032494 Z" id="Shape" stroke="#565B65" stroke-width="1.5" stroke-linecap="round" stroke-linejoin="round"></path>
                <g id="search" transform="translate(39.000000, 0.000000)" fill-rule="nonzero" fill="#565B65">
                    <g id="Group">
                        <path d="M6.06666667,11.5948718 C3.01352328,11.5948718 0.538461538,9.11981005 0.538461538,6.06666667 C0.538461538,3.01352328 3.01352328,0.538461538 6.06666667,0.538461538 C9.11981005,0.538461538 11.5948718,3.01352328 11.5948718,6.06666667 C11.5948718,9.11981005 9.11981005,11.5948718 6.06666667,11.5948718 Z M6.06666667,9.87179487 C8.16818095,9.87179487 9.87179487,8.16818095 9.87179487,6.06666667 C9.87179487,3.96515239 8.16818095,2.26153846 6.06666667,2.26153846 C3.96515239,2.26153846 2.26153846,3.96515239 2.26153846,6.06666667 C2.26153846,8.16818095 3.96515239,9.87179487 6.06666667,9.87179487 Z" id="Oval"></path>
                        <path d="M13.2091997,11.9908003 L9.97364413,8.75524476 C9.63719244,8.41879306 9.09169645,8.41879306 8.75524476,8.75524476 C8.41879306,9.09169645 8.41879306,9.63719244 8.75524476,9.97364413 L11.9908003,13.2091997 C12.327252,13.5456514 12.872748,13.5456514 13.2091997,13.2091997 C13.5456514,12.872748 13.5456514,12.327252 13.2091997,11.9908003 Z" id="Shape"></path>
                    </g>
                </g>
                <g id="chevron-down" transform="translate(0.000000, 6.000000)" stroke-linecap="round" stroke-width="1.5" stroke="#565B65" stroke-linejoin="round">
                    <polyline id="Shape" points="0 0 4 4 8 0"></polyline>
                </g>
            </g>
            <g id="Group-18-Copy-2" transform="translate(1.000000, 22.000000)">
                <g id="more-horizontal" transform="translate(142.000000, 4.000000)" stroke="#39C1C7" stroke-width="1.5" stroke-linecap="round" stroke-linejoin="round">
                    <circle id="Oval" cx="10" cy="2" r="2"></circle>
                    <circle id="Oval" cx="18" cy="2" r="2"></circle>
                    <circle id="Oval" cx="2" cy="2" r="2"></circle>
                </g>
                <path d="M84,10.0026586 C84.9941125,10.0026586 85.8,9.19653306 85.8,8.20212685 L85.8,5.20124064 C85.8,2.88095949 87.6804041,1 90,1 C92.3195959,1 94.2,2.88095949 94.2,5.20124064 L94.2,8.20212685 C94.2,9.19653306 95.0058875,10.0026586 96,10.0026586 L84,10.0026586 Z M91,12.0032494 C90.7931805,12.6202359 90.4121784,13 90,13 C89.5878216,13 89.2068195,12.6202359 89,12.0032494 L91,12.0032494 Z" id="Shape" stroke="#39C1C7" stroke-width="1.5" stroke-linecap="round" stroke-linejoin="round"></path>
                <g id="search" transform="translate(39.000000, 0.000000)" fill-rule="nonzero" fill="#39C1C7">
                    <g id="Group">
                        <path d="M6.06666667,11.5948718 C3.01352328,11.5948718 0.538461538,9.11981005 0.538461538,6.06666667 C0.538461538,3.01352328 3.01352328,0.538461538 6.06666667,0.538461538 C9.11981005,0.538461538 11.5948718,3.01352328 11.5948718,6.06666667 C11.5948718,9.11981005 9.11981005,11.5948718 6.06666667,11.5948718 Z M6.06666667,9.87179487 C8.16818095,9.87179487 9.87179487,8.16818095 9.87179487,6.06666667 C9.87179487,3.96515239 8.16818095,2.26153846 6.06666667,2.26153846 C3.96515239,2.26153846 2.26153846,3.96515239 2.26153846,6.06666667 C2.26153846,8.16818095 3.96515239,9.87179487 6.06666667,9.87179487 Z" id="Oval"></path>
                        <path d="M13.2091997,11.9908003 L9.97364413,8.75524476 C9.63719244,8.41879306 9.09169645,8.41879306 8.75524476,8.75524476 C8.41879306,9.09169645 8.41879306,9.63719244 8.75524476,9.97364413 L11.9908003,13.2091997 C12.327252,13.5456514 12.872748,13.5456514 13.2091997,13.2091997 C13.5456514,12.872748 13.5456514,12.327252 13.2091997,11.9908003 Z" id="Shape"></path>
                    </g>
                </g>
                <g id="chevron-down" transform="translate(0.000000, 6.000000)" stroke-linecap="round" stroke-width="1.5" stroke="#39C1C7" stroke-linejoin="round">
                    <polyline id="Shape" points="0 0 4 4 8 0"></polyline>
                </g>
            </g>
            <g id="Group" transform="translate(0.000000, 377.000000)" fill="#565B65" opacity="0.98999995">
                <circle id="Oval" cx="2" cy="2" r="2"></circle>
                <circle id="Oval-Copy" cx="10" cy="2" r="2"></circle>
                <circle id="Oval-Copy-2" cx="17" cy="2" r="2"></circle>
            </g>
            <g id="Group-Copy" transform="translate(0.000000, 393.000000)" fill="#39C1C7" opacity="0.98999995">
                <circle id="Oval" cx="2" cy="2" r="2"></circle>
                <circle id="Oval-Copy" cx="10" cy="2" r="2"></circle>
                <circle id="Oval-Copy-2" cx="17" cy="2" r="2"></circle>
            </g>
            <path d="M26.5454545,422.786667 L26.5454545,425.453333 L31,428 L35.4545455,425.453333 L35.4545455,422.786667 L31,425.333333 L26.5454545,422.786667 Z M31,416 L24,420 L31,424 L36.7272727,420.726667 L36.7272727,425.333333 L38,425.333333 L38,420 L31,416 Z" id="Shape" fill="#565B65" fill-rule="nonzero"></path>
            <polygon id="Shape" fill="#565B65" fill-rule="nonzero" points="8.5 425.251579 13.135 428 11.905 422.82 16 419.334737 10.6075 418.885263 8.5 414 6.3925 418.885263 1 419.334737 5.095 422.82 3.865 428"></polygon>
            <g id="ic_remove_red_eye_black_24px" transform="translate(91.000000, 416.000000)">
                <polygon id="Shape" points="0 0 15 0 15 15 0 15"></polygon>
                <path d="M8,3 C4.81818182,3 2.10090909,4.866 1,7.5 C2.10090909,10.134 4.81818182,12 8,12 C11.1818182,12 13.8990909,10.134 15,7.5 C13.8990909,4.866 11.1818182,3 8,3 Z M8,11 C6.344,11 5,9.656 5,8 C5,6.344 6.344,5 8,5 C9.656,5 11,6.344 11,8 C11,9.656 9.656,11 8,11 Z M8,6 C6.89333333,6 6,6.89333333 6,8 C6,9.10666667 6.89333333,10 8,10 C9.10666667,10 10,9.10666667 10,8 C10,6.89333333 9.10666667,6 8,6 Z" id="Shape" fill="#ABABAB" fill-rule="nonzero"></path>
            </g>
            <g id="Group" transform="translate(51.000000, 416.000000)" fill-rule="nonzero" fill="#565B65">
                <path d="M11.8750672,5.8379797 L10.7247575,5.3159749 C10.5580012,5.24022396 10.3653821,5.23984903 10.1982398,5.3144749 L6.26171018,7.07399117 C6.09572591,7.14824211 5.904651,7.14824211 5.73866673,7.07399117 L1.80175092,5.3144749 C1.63460865,5.23984903 1.44198956,5.24022396 1.2752332,5.3159749 L0.124923566,5.8379797 C-0.0422187066,5.91373037 -0.0414468884,6.1447325 0.126081566,6.2197333 L5.73866673,8.72850692 C5.904651,8.80275758 6.09572591,8.80275758 6.26171018,8.72850692 L11.8739092,6.2197333 C12.0414376,6.1447325 12.0422094,5.91373037 11.8750672,5.8379797 L11.8750672,5.8379797 Z M11.8750672,9.05378478 L10.7247575,8.53177998 C10.5580012,8.45602931 10.3653821,8.45565438 10.1982398,8.53027998 L6.26171018,10.2897965 C6.09572591,10.3640472 5.904651,10.3640472 5.73866673,10.2897965 L1.80175092,8.53027998 C1.63460865,8.45565438 1.44198956,8.45602931 1.2752332,8.53177998 L0.124923566,9.05378478 C-0.0422187066,9.12953545 -0.0414468884,9.36053785 0.126081566,9.43553839 L5.73866673,11.944312 C5.904651,12.0185627 6.09572591,12.0185627 6.26171018,11.944312 L11.8739092,9.43553839 C12.0414376,9.36053785 12.0422094,9.12953545 11.8750672,9.05378478 L11.8750672,9.05378478 Z M5.69442982,0.0658130004 L0.125077929,2.59371168 C-0.042064343,2.66946235 -0.0412922521,2.90046475 0.126235929,2.97546528 L5.73843491,5.4842389 C5.90441918,5.55848956 6.09549436,5.55848956 6.26147864,5.4842389 L11.8740635,2.97546528 C12.041592,2.90046475 12.0419779,2.66946235 11.8752215,2.59371168 L6.30586964,0.0658130004 C6.11209254,-0.0219376668 5.88820691,-0.0219376668 5.69442982,0.0658130004 L5.69442982,0.0658130004 Z" id="Buffer"></path>
            </g>
            <g id="ic_video_library_black_24px-copy-2" transform="translate(1.000000, 449.000000)" fill-rule="nonzero" fill="#FFFFFF">
                <path d="M13.23,0 L1.89,0 C0.8505,0 3.69482223e-13,0.7875 3.69482223e-13,1.75 L3.69482223e-13,12.25 C3.69482223e-13,13.2125 0.8505,14 1.89,14 L13.23,14 C14.2695,14 15.12,13.2125 15.12,12.25 L15.12,1.75 C15.12,0.7875 14.2695,0 13.23,0 Z M5.67,10.9375 L5.67,3.0625 L11.34,7 L5.67,10.9375 Z" id="Shape"></path>
            </g>
        </g>
    </g>
</svg>