<?xml version="1.0" encoding="UTF-8"?>
<svg width="22px" height="22px" viewBox="0 0 22 22" version="1.1" xmlns="http://www.w3.org/2000/svg" xmlns:xlink="http://www.w3.org/1999/xlink">
    <!-- Generator: Sketch 47.1 (45422) - http://www.bohemiancoding.com/sketch -->
    <title>Shape</title>
    <desc>Created with Sketch.</desc>
    <defs></defs>
    <g id="Page-1" stroke="none" stroke-width="1" fill="none" fill-rule="evenodd">
        <g id="43-Post---nested-commenting" transform="translate(-1081.000000, -460.000000)" stroke="#39C1C7" stroke-width="0.5" fill="#39C1C7" fill-rule="nonzero">
            <path d="M1102.00554,461.379495 C1102.00135,461.346147 1101.99721,461.31276 1101.9847,461.279412 C1101.98052,461.266902 1101.97637,461.250208 1101.97219,461.237698 C1101.95135,461.191839 1101.92215,461.150125 1101.8888,461.112594 C1101.85127,461.079246 1101.80955,461.050042 1101.76369,461.029204 C1101.75118,461.025021 1101.73449,461.016694 1101.72198,461.016694 C1101.68863,461.008366 1101.65525,461 1101.6219,461 C1101.6052,461 1101.59269,461 1101.57604,461 C1101.53851,461 1101.49679,461.008327 1101.45926,461.020838 C1101.45093,461.025021 1101.44257,461.025021 1101.43424,461.029165 L1101.43006,461.029165 L1082.2516,469.361136 C1082.03892,469.452892 1081.94302,469.698917 1082.03474,469.911594 C1082.07227,469.999167 1082.13901,470.070047 1082.2224,470.111761 L1089.19488,473.802332 L1092.88963,480.774813 C1092.96051,480.912427 1093.10231,480.995817 1093.25662,481 L1093.27331,481 C1093.43176,480.995817 1093.57356,480.895734 1093.6403,480.749792 L1101.97633,461.575479 L1101.97633,461.571296 C1101.98052,461.562968 1101.98052,461.554602 1101.98466,461.546275 C1101.99717,461.508744 1102.0055,461.471212 1102.0055,461.429498 C1102.00554,461.412843 1102.00968,461.39615 1102.00554,461.379495 Z M1083.38168,469.77398 L1099.75781,462.655557 L1089.43254,472.976645 L1083.38168,469.77398 Z M1093.22737,479.619672 L1090.02471,473.568817 L1100.3458,463.243546 L1093.22737,479.619672 Z" id="Shape"></path>
        </g>
    </g>
</svg>