<?xml version="1.0" encoding="UTF-8" standalone="no"?>
<svg width="600px" height="600px" viewBox="0 0 600 600" version="1.1" xmlns="http://www.w3.org/2000/svg" xmlns:xlink="http://www.w3.org/1999/xlink">
    <!-- Generator: Sketch 47.1 (45422) - http://www.bohemiancoding.com/sketch -->
    <title>Sprite Image_Reader</title>
    <desc>Created with Sketch.</desc>
    <defs></defs>
    <g id="Page-1" stroke="none" stroke-width="1" fill="none" fill-rule="evenodd">
        <g id="Sprite-Image_Reader">
            <g id="ic_info_outline_black_24px" transform="translate(2.000000, 2.000000)" fill-rule="nonzero" fill="#FFFFFF">
                <path d="M9,15.7901235 L11,15.7901235 L11,9.86419753 L9,9.86419753 L9,15.7901235 Z M10,0.975308642 C4.48,0.975308642 0,5.4 0,10.8518519 C0,16.3037037 4.48,20.7283951 10,20.7283951 C15.52,20.7283951 20,16.3037037 20,10.8518519 C20,5.4 15.52,0.975308642 10,0.975308642 Z M10,18.7530864 C5.59,18.7530864 2,15.2074074 2,10.8518519 C2,6.4962963 5.59,2.95061728 10,2.95061728 C14.41,2.95061728 18,6.4962963 18,10.8518519 C18,15.2074074 14.41,18.7530864 10,18.7530864 Z M9,7.88888889 L11,7.88888889 L11,5.91358025 L9,5.91358025 L9,7.88888889 Z" id="Shape"></path>
            </g>
            <g id="ic_info_outline_black_24px-copy" transform="translate(2.000000, 54.000000)" fill-rule="nonzero" fill="#39C1C7">
                <path d="M9,15.7901235 L11,15.7901235 L11,9.86419753 L9,9.86419753 L9,15.7901235 Z M10,0.975308642 C4.48,0.975308642 0,5.4 0,10.8518519 C0,16.3037037 4.48,20.7283951 10,20.7283951 C15.52,20.7283951 20,16.3037037 20,10.8518519 C20,5.4 15.52,0.975308642 10,0.975308642 Z M10,18.7530864 C5.59,18.7530864 2,15.2074074 2,10.8518519 C2,6.4962963 5.59,2.95061728 10,2.95061728 C14.41,2.95061728 18,6.4962963 18,10.8518519 C18,15.2074074 14.41,18.7530864 10,18.7530864 Z M9,7.88888889 L11,7.88888889 L11,5.91358025 L9,5.91358025 L9,7.88888889 Z" id="Shape"></path>
            </g>
            <g id="ic_description_black_24px-(1)" transform="translate(64.000000, 2.000000)" fill-rule="nonzero" fill="#FFFFFF">
                <path d="M10,0.975308642 L2,0.975308642 C0.9,0.975308642 0.01,1.86419753 0.01,2.95061728 L0,18.7530864 C0,19.8395062 0.89,20.7283951 1.99,20.7283951 L14,20.7283951 C15.1,20.7283951 16,19.8395062 16,18.7530864 L16,6.90123457 L10,0.975308642 Z M12,16.7777778 L4,16.7777778 L4,14.8024691 L12,14.8024691 L12,16.7777778 Z M12,12.8271605 L4,12.8271605 L4,10.8518519 L12,10.8518519 L12,12.8271605 Z M9,7.88888889 L9,2.45679012 L14.5,7.88888889 L9,7.88888889 Z" id="Shape"></path>
            </g>
            <g id="ic_description_black_24px-(1)-copy" transform="translate(64.000000, 54.000000)" fill-rule="nonzero" fill="#39C1C7">
                <path d="M10,0.975308642 L2,0.975308642 C0.9,0.975308642 0.01,1.86419753 0.01,2.95061728 L0,18.7530864 C0,19.8395062 0.89,20.7283951 1.99,20.7283951 L14,20.7283951 C15.1,20.7283951 16,19.8395062 16,18.7530864 L16,6.90123457 L10,0.975308642 Z M12,16.7777778 L4,16.7777778 L4,14.8024691 L12,14.8024691 L12,16.7777778 Z M12,12.8271605 L4,12.8271605 L4,10.8518519 L12,10.8518519 L12,12.8271605 Z M9,7.88888889 L9,2.45679012 L14.5,7.88888889 L9,7.88888889 Z" id="Shape"></path>
            </g>
            <g id="ic_search_black_24px" transform="translate(184.000000, 6.000000)" fill-rule="nonzero" fill="#FFFFFF">
                <path d="M12.1497999,10.6918239 L11.3819325,10.6918239 L11.109777,10.4293882 C12.0623213,9.32132647 12.6357919,7.88279017 12.6357919,6.31789594 C12.6357919,2.82847341 9.80731847,0 6.31789594,0 C2.82847341,0 0,2.82847341 0,6.31789594 C0,9.80731847 2.82847341,12.6357919 6.31789594,12.6357919 C7.88279017,12.6357919 9.32132647,12.0623213 10.4293882,11.109777 L10.6918239,11.3819325 L10.6918239,12.1497999 L15.5517439,17 L17,15.5517439 L12.1497999,10.6918239 Z M6.31789594,10.6918239 C3.8976558,10.6918239 1.94396798,8.73813608 1.94396798,6.31789594 C1.94396798,3.8976558 3.8976558,1.94396798 6.31789594,1.94396798 C8.73813608,1.94396798 10.6918239,3.8976558 10.6918239,6.31789594 C10.6918239,8.73813608 8.73813608,10.6918239 6.31789594,10.6918239 Z" id="Shape"></path>
            </g>
            <g id="ic_search_black_24px-copy" transform="translate(184.000000, 58.000000)" fill-rule="nonzero" fill="#39C1C7">
                <path d="M12.1497999,10.6918239 L11.3819325,10.6918239 L11.109777,10.4293882 C12.0623213,9.32132647 12.6357919,7.88279017 12.6357919,6.31789594 C12.6357919,2.82847341 9.80731847,0 6.31789594,0 C2.82847341,0 0,2.82847341 0,6.31789594 C0,9.80731847 2.82847341,12.6357919 6.31789594,12.6357919 C7.88279017,12.6357919 9.32132647,12.0623213 10.4293882,11.109777 L10.6918239,11.3819325 L10.6918239,12.1497999 L15.5517439,17 L17,15.5517439 L12.1497999,10.6918239 Z M6.31789594,10.6918239 C3.8976558,10.6918239 1.94396798,8.73813608 1.94396798,6.31789594 C1.94396798,3.8976558 3.8976558,1.94396798 6.31789594,1.94396798 C8.73813608,1.94396798 10.6918239,3.8976558 10.6918239,6.31789594 C10.6918239,8.73813608 8.73813608,10.6918239 6.31789594,10.6918239 Z" id="Shape"></path>
            </g>
            <g id="Group-3" transform="translate(119.000000, 4.000000)" fill-rule="nonzero">
                <g id="ic_mode_edit_black_24px-(2)" transform="translate(9.000000, 9.500000) rotate(-17.000000) translate(-9.000000, -9.500000) translate(2.000000, 2.000000)" fill="#FFFBFB">
                    <path d="M0,11.4375 L0,14.25 L2.76315789,14.25 L10.9126316,5.955 L8.14947368,3.1425 L0,11.4375 Z M13.0494737,3.78 C13.3368421,3.4875 13.3368421,3.015 13.0494737,2.7225 L11.3252632,0.9675 C11.0378947,0.675 10.5736842,0.675 10.2863158,0.9675 L8.93789474,2.34 L11.7010526,5.1525 L13.0494737,3.78 Z" id="Shape"></path>
                </g>
                <g id="ic_format_list_numbered_black_24px" transform="translate(19.000000, 12.500000) scale(-1, 1) translate(-19.000000, -12.500000) translate(12.000000, 6.000000)" fill="#FFFFFF">
                    <path d="M0,0 L0,2.05263158 L5.44444444,2.05263158 L5.44444444,0 L0,0 Z M0,13 L14,13 L14,10.9473684 L0,10.9473684 L0,13 Z M0,7.52631579 L10.8888889,7.52631579 L10.8888889,5.47368421 L0,5.47368421 L0,7.52631579 Z" id="Shape"></path>
                </g>
            </g>
            <g id="Group-3-Copy" transform="translate(119.000000, 56.000000)" fill-rule="nonzero" fill="#39C1C7">
                <g id="ic_mode_edit_black_24px-(2)" transform="translate(9.000000, 9.500000) rotate(-17.000000) translate(-9.000000, -9.500000) translate(2.000000, 2.000000)">
                    <path d="M0,11.4375 L0,14.25 L2.76315789,14.25 L10.9126316,5.955 L8.14947368,3.1425 L0,11.4375 Z M13.0494737,3.78 C13.3368421,3.4875 13.3368421,3.015 13.0494737,2.7225 L11.3252632,0.9675 C11.0378947,0.675 10.5736842,0.675 10.2863158,0.9675 L8.93789474,2.34 L11.7010526,5.1525 L13.0494737,3.78 Z" id="Shape"></path>
                </g>
                <g id="ic_format_list_numbered_black_24px" transform="translate(19.000000, 12.500000) scale(-1, 1) translate(-19.000000, -12.500000) translate(12.000000, 6.000000)">
                    <path d="M0,0 L0,2.05263158 L5.44444444,2.05263158 L5.44444444,0 L0,0 Z M0,13 L14,13 L14,10.9473684 L0,10.9473684 L0,13 Z M0,7.52631579 L10.8888889,7.52631579 L10.8888889,5.47368421 L0,5.47368421 L0,7.52631579 Z" id="Shape"></path>
                </g>
            </g>
            <g id="Group-5" transform="translate(345.000000, 9.000000)" stroke-width="0.5" stroke="#FFFFFF" fill="#FFFFFF" fill-rule="nonzero">
                <g id="file-(1)-copy-2">
                    <path d="M14.3003231,4.81324378 C14.2970078,4.70202676 14.2525309,4.59351874 14.1703194,4.51161819 L9.77236051,0.13029127 C9.77217425,0.130105723 9.771988,0.130031504 9.771839,0.129845957 C9.69104306,0.0496153313 9.57962735,0 9.4566268,0 L0.940123558,0 C0.421710864,0 0,0.420078945 0,0.936531126 L0,18.0634689 C0,18.5798839 0.421673614,19 0.940086307,19 L13.3609818,19 C13.8793572,19 14.3010681,18.5799211 14.3010681,18.0634689 L14.3010681,4.82615786 C14.3011426,4.82177895 14.3006211,4.81754847 14.3003231,4.81324378 Z M9.90318363,1.51892679 L12.776487,4.38136403 L10.091633,4.38136403 C9.9877046,4.38136403 9.90318363,4.29716269 9.90318363,4.19362733 L9.90318363,1.51892679 L9.90318363,1.51892679 Z M13.4080289,18.0635431 C13.4079917,18.089297 13.386908,18.110301 13.361019,18.110301 L0.940123558,18.110301 C0.914234586,18.110301 0.893150905,18.089297 0.893150905,18.063506 L0.893150905,0.936531126 C0.893150905,0.91074006 0.914234586,0.889736113 0.940123558,0.889736113 L9.01006997,0.889736113 L9.01006997,4.19362733 C9.01006997,4.78771248 9.49525538,5.27110014 10.091633,5.27110014 L13.4080662,5.27110014 L13.4080662,18.0635431 L13.4080289,18.0635431 Z" id="Shape"></path>
                </g>
                <g id="Group" transform="translate(47.000000, 0.000000)">
                    <g id="file-(1)-copy-4" transform="translate(13.571429, 0.000000)">
                        <path d="M14.3003231,4.81324378 C14.2970078,4.70202676 14.2525309,4.59351874 14.1703194,4.51161819 L9.77236051,0.13029127 C9.77217425,0.130105723 9.771988,0.130031504 9.771839,0.129845957 C9.69104306,0.0496153313 9.57962735,0 9.4566268,0 L0.940123558,0 C0.421710864,0 0,0.420078945 0,0.936531126 L0,18.0634689 C0,18.5798839 0.421673614,19 0.940086307,19 L13.3609818,19 C13.8793572,19 14.3010681,18.5799211 14.3010681,18.0634689 L14.3010681,4.82615786 C14.3011426,4.82177895 14.3006211,4.81754847 14.3003231,4.81324378 Z M9.90318363,1.51892679 L12.776487,4.38136403 L10.091633,4.38136403 C9.9877046,4.38136403 9.90318363,4.29716269 9.90318363,4.19362733 L9.90318363,1.51892679 L9.90318363,1.51892679 Z M13.4080289,18.0635431 C13.4079917,18.089297 13.386908,18.110301 13.361019,18.110301 L0.940123558,18.110301 C0.914234586,18.110301 0.893150905,18.089297 0.893150905,18.063506 L0.893150905,0.936531126 C0.893150905,0.91074006 0.914234586,0.889736113 0.940123558,0.889736113 L9.01006997,0.889736113 L9.01006997,4.19362733 C9.01006997,4.78771248 9.49525538,5.27110014 10.091633,5.27110014 L13.4080662,5.27110014 L13.4080662,18.0635431 L13.4080289,18.0635431 Z" id="Shape"></path>
                    </g>
                    <g id="file-(1)-copy-4" transform="translate(7.541667, 9.500000) scale(-1, 1) translate(-7.541667, -9.500000) translate(0.041667, 0.000000)">
                        <path d="M14.3003231,4.81324378 C14.2970078,4.70202676 14.2525309,4.59351874 14.1703194,4.51161819 L9.77236051,0.13029127 C9.77217425,0.130105723 9.771988,0.130031504 9.771839,0.129845957 C9.69104306,0.0496153313 9.57962735,0 9.4566268,0 L0.940123558,0 C0.421710864,0 0,0.420078945 0,0.936531126 L0,18.0634689 C0,18.5798839 0.421673614,19 0.940086307,19 L13.3609818,19 C13.8793572,19 14.3010681,18.5799211 14.3010681,18.0634689 L14.3010681,4.82615786 C14.3011426,4.82177895 14.3006211,4.81754847 14.3003231,4.81324378 Z M9.90318363,1.51892679 L12.776487,4.38136403 L10.091633,4.38136403 C9.9877046,4.38136403 9.90318363,4.29716269 9.90318363,4.19362733 L9.90318363,1.51892679 L9.90318363,1.51892679 Z M13.4080289,18.0635431 C13.4079917,18.089297 13.386908,18.110301 13.361019,18.110301 L0.940123558,18.110301 C0.914234586,18.110301 0.893150905,18.089297 0.893150905,18.063506 L0.893150905,0.936531126 C0.893150905,0.91074006 0.914234586,0.889736113 0.940123558,0.889736113 L9.01006997,0.889736113 L9.01006997,4.19362733 C9.01006997,4.78771248 9.49525538,5.27110014 10.091633,5.27110014 L13.4080662,5.27110014 L13.4080662,18.0635431 L13.4080289,18.0635431 Z" id="Shape"></path>
                    </g>
                </g>
            </g>
            <g id="Group-5-Copy" transform="translate(345.000000, 61.000000)" stroke-width="0.5" stroke="#39C1C7" fill="#39C1C7" fill-rule="nonzero">
                <g id="file-(1)-copy-2">
                    <path d="M14.3003231,4.81324378 C14.2970078,4.70202676 14.2525309,4.59351874 14.1703194,4.51161819 L9.77236051,0.13029127 C9.77217425,0.130105723 9.771988,0.130031504 9.771839,0.129845957 C9.69104306,0.0496153313 9.57962735,0 9.4566268,0 L0.940123558,0 C0.421710864,0 0,0.420078945 0,0.936531126 L0,18.0634689 C0,18.5798839 0.421673614,19 0.940086307,19 L13.3609818,19 C13.8793572,19 14.3010681,18.5799211 14.3010681,18.0634689 L14.3010681,4.82615786 C14.3011426,4.82177895 14.3006211,4.81754847 14.3003231,4.81324378 Z M9.90318363,1.51892679 L12.776487,4.38136403 L10.091633,4.38136403 C9.9877046,4.38136403 9.90318363,4.29716269 9.90318363,4.19362733 L9.90318363,1.51892679 L9.90318363,1.51892679 Z M13.4080289,18.0635431 C13.4079917,18.089297 13.386908,18.110301 13.361019,18.110301 L0.940123558,18.110301 C0.914234586,18.110301 0.893150905,18.089297 0.893150905,18.063506 L0.893150905,0.936531126 C0.893150905,0.91074006 0.914234586,0.889736113 0.940123558,0.889736113 L9.01006997,0.889736113 L9.01006997,4.19362733 C9.01006997,4.78771248 9.49525538,5.27110014 10.091633,5.27110014 L13.4080662,5.27110014 L13.4080662,18.0635431 L13.4080289,18.0635431 Z" id="Shape"></path>
                </g>
                <g id="Group" transform="translate(47.000000, 0.000000)">
                    <g id="file-(1)-copy-4" transform="translate(13.571429, 0.000000)">
                        <path d="M14.3003231,4.81324378 C14.2970078,4.70202676 14.2525309,4.59351874 14.1703194,4.51161819 L9.77236051,0.13029127 C9.77217425,0.130105723 9.771988,0.130031504 9.771839,0.129845957 C9.69104306,0.0496153313 9.57962735,0 9.4566268,0 L0.940123558,0 C0.421710864,0 0,0.420078945 0,0.936531126 L0,18.0634689 C0,18.5798839 0.421673614,19 0.940086307,19 L13.3609818,19 C13.8793572,19 14.3010681,18.5799211 14.3010681,18.0634689 L14.3010681,4.82615786 C14.3011426,4.82177895 14.3006211,4.81754847 14.3003231,4.81324378 Z M9.90318363,1.51892679 L12.776487,4.38136403 L10.091633,4.38136403 C9.9877046,4.38136403 9.90318363,4.29716269 9.90318363,4.19362733 L9.90318363,1.51892679 L9.90318363,1.51892679 Z M13.4080289,18.0635431 C13.4079917,18.089297 13.386908,18.110301 13.361019,18.110301 L0.940123558,18.110301 C0.914234586,18.110301 0.893150905,18.089297 0.893150905,18.063506 L0.893150905,0.936531126 C0.893150905,0.91074006 0.914234586,0.889736113 0.940123558,0.889736113 L9.01006997,0.889736113 L9.01006997,4.19362733 C9.01006997,4.78771248 9.49525538,5.27110014 10.091633,5.27110014 L13.4080662,5.27110014 L13.4080662,18.0635431 L13.4080289,18.0635431 Z" id="Shape"></path>
                    </g>
                    <g id="file-(1)-copy-4" transform="translate(7.541667, 9.500000) scale(-1, 1) translate(-7.541667, -9.500000) translate(0.041667, 0.000000)">
                        <path d="M14.3003231,4.81324378 C14.2970078,4.70202676 14.2525309,4.59351874 14.1703194,4.51161819 L9.77236051,0.13029127 C9.77217425,0.130105723 9.771988,0.130031504 9.771839,0.129845957 C9.69104306,0.0496153313 9.57962735,0 9.4566268,0 L0.940123558,0 C0.421710864,0 0,0.420078945 0,0.936531126 L0,18.0634689 C0,18.5798839 0.421673614,19 0.940086307,19 L13.3609818,19 C13.8793572,19 14.3010681,18.5799211 14.3010681,18.0634689 L14.3010681,4.82615786 C14.3011426,4.82177895 14.3006211,4.81754847 14.3003231,4.81324378 Z M9.90318363,1.51892679 L12.776487,4.38136403 L10.091633,4.38136403 C9.9877046,4.38136403 9.90318363,4.29716269 9.90318363,4.19362733 L9.90318363,1.51892679 L9.90318363,1.51892679 Z M13.4080289,18.0635431 C13.4079917,18.089297 13.386908,18.110301 13.361019,18.110301 L0.940123558,18.110301 C0.914234586,18.110301 0.893150905,18.089297 0.893150905,18.063506 L0.893150905,0.936531126 C0.893150905,0.91074006 0.914234586,0.889736113 0.940123558,0.889736113 L9.01006997,0.889736113 L9.01006997,4.19362733 C9.01006997,4.78771248 9.49525538,5.27110014 10.091633,5.27110014 L13.4080662,5.27110014 L13.4080662,18.0635431 L13.4080289,18.0635431 Z" id="Shape"></path>
                    </g>
                </g>
            </g>
            <g id="Group-9" transform="translate(528.000000, 11.000000)" fill-rule="nonzero" fill="#FFFFFF">
                <g id="ic_close_black_24px-(2)-copy">
                    <polygon id="Shape" points="14 1.41 12.59 0 7 5.59 1.41 0 0 1.41 5.59 7 0 12.59 1.41 14 7 8.41 12.59 14 14 12.59 8.41 7"></polygon>
                </g>
            </g>
            <g id="Group-9-Copy" transform="translate(528.000000, 63.000000)" fill-rule="nonzero" fill="#39C1C7">
                <g id="ic_close_black_24px-(2)-copy">
                    <polygon id="Shape" points="14 1.41 12.59 0 7 5.59 1.41 0 0 1.41 5.59 7 0 12.59 1.41 14 7 8.41 12.59 14 14 12.59 8.41 7"></polygon>
                </g>
            </g>
            <g id="ic_share_black_24px" transform="translate(184.000000, 139.000000)" fill-rule="nonzero" fill="#39C1C7">
                <path d="M15,14.08 C14.24,14.08 13.56,14.38 13.04,14.85 L5.91,10.7 C5.96,10.47 6,10.24 6,10 C6,9.76 5.96,9.53 5.91,9.3 L12.96,5.19 C13.5,5.69 14.21,6 15,6 C16.66,6 18,4.66 18,3 C18,1.34 16.66,0 15,0 C13.34,0 12,1.34 12,3 C12,3.24 12.04,3.47 12.09,3.7 L5.04,7.81 C4.5,7.31 3.79,7 3,7 C1.34,7 0,8.34 0,10 C0,11.66 1.34,13 3,13 C3.79,13 4.5,12.69 5.04,12.19 L12.16,16.35 C12.11,16.56 12.08,16.78 12.08,17 C12.08,18.61 13.39,19.92 15,19.92 C16.61,19.92 17.92,18.61 17.92,17 C17.92,15.39 16.61,14.08 15,14.08 Z" id="Shape"></path>
            </g>
            <g id="ic_share_black_24px-copy" transform="translate(184.000000, 189.000000)" fill-rule="nonzero" fill="#39C1C7">
                <path d="M15,14.08 C14.24,14.08 13.56,14.38 13.04,14.85 L5.91,10.7 C5.96,10.47 6,10.24 6,10 C6,9.76 5.96,9.53 5.91,9.3 L12.96,5.19 C13.5,5.69 14.21,6 15,6 C16.66,6 18,4.66 18,3 C18,1.34 16.66,0 15,0 C13.34,0 12,1.34 12,3 C12,3.24 12.04,3.47 12.09,3.7 L5.04,7.81 C4.5,7.31 3.79,7 3,7 C1.34,7 0,8.34 0,10 C0,11.66 1.34,13 3,13 C3.79,13 4.5,12.69 5.04,12.19 L12.16,16.35 C12.11,16.56 12.08,16.78 12.08,17 C12.08,18.61 13.39,19.92 15,19.92 C16.61,19.92 17.92,18.61 17.92,17 C17.92,15.39 16.61,14.08 15,14.08 Z" id="Shape"></path>
            </g>
            <g id="ic_favorite_black_24px-copy" transform="translate(4.000000, 141.000000)" stroke="#39C1C7" stroke-width="2" fill-rule="nonzero">
                <path d="M9.5,17 L8.1225,15.7771117 C3.23,11.4506812 0,8.5972752 0,5.09536785 C0,2.24196185 2.299,0 5.225,0 C6.878,0 8.4645,0.750408719 9.5,1.93623978 C10.5355,0.750408719 12.122,0 13.775,0 C16.701,0 19,2.24196185 19,5.09536785 C19,8.5972752 15.77,11.4506812 10.8775,15.786376 L9.5,17 Z" id="Shape"></path>
            </g>
            <g id="ic_favorite_black_24px-copy-2" transform="translate(4.000000, 191.000000)" stroke="#39C1C7" stroke-width="2" fill="#39C1C7" fill-rule="nonzero">
                <path d="M9.5,17 L8.1225,15.7771117 C3.23,11.4506812 0,8.5972752 0,5.09536785 C0,2.24196185 2.299,0 5.225,0 C6.878,0 8.4645,0.750408719 9.5,1.93623978 C10.5355,0.750408719 12.122,0 13.775,0 C16.701,0 19,2.24196185 19,5.09536785 C19,8.5972752 15.77,11.4506812 10.8775,15.786376 L9.5,17 Z" id="Shape"></path>
            </g>
            <g id="ic_bookmark_border_black_24px-(3)" transform="translate(66.000000, 140.000000)" fill-rule="nonzero" fill="#39C1C7">
                <path d="M12,0 L2,0 C0.9,0 0.01,0.9 0.01,2 L0,18 L7,15 L14,18 L14,2 C14,0.9 13.1,0 12,0 Z M12,15 L7,12.82 L2,15 L2,2 L12,2 L12,15 Z" id="Shape"></path>
            </g>
            <g id="ic_bookmark_border_black_24px-(3)-copy" transform="translate(66.000000, 191.000000)" fill-rule="nonzero" fill="#39C1C7">
                <g id="ic_bookmark_black_24px-(3)">
                    <path d="M12,0 L2,0 C0.9,0 0.01,0.9 0.01,2 L0,18 L7,15 L14,18 L14,2 C14,0.9 13.1,0 12,0 Z" id="Shape"></path>
                </g>
            </g>
            <g id="Group-2" transform="translate(125.000000, 140.000000)">
                <polygon id="Shape" stroke="#39C1C7" stroke-width="2" fill-rule="nonzero" points="15 6 11 6 11 0 5 0 5 6 1 6 8 13"></polygon>
                <rect id="Rectangle-5" fill="#39C1C7" x="0" y="16" width="16" height="2"></rect>
            </g>
            <g id="Group-2-Copy" transform="translate(125.000000, 190.000000)" fill="#39C1C7">
                <polygon id="Shape" stroke="#39C1C7" stroke-width="2" fill-rule="nonzero" points="15 6 11 6 11 0 5 0 5 6 1 6 8 13"></polygon>
                <rect id="Rectangle-5" x="0" y="16" width="16" height="2"></rect>
            </g>
            <g id="ic_fullscreen_exit_black_24px-(1)" transform="translate(404.000000, 146.000000)" fill-rule="nonzero" fill="#FFFFFF">
                <path d="M0,11 L3,11 L3,14 L5,14 L5,9 L0,9 L0,11 Z M3,3 L0,3 L0,5 L5,5 L5,0 L3,0 L3,3 Z M9,14 L11,14 L11,11 L14,11 L14,9 L9,9 L9,14 Z M11,3 L11,0 L9,0 L9,5 L14,5 L14,3 L11,3 Z" id="Shape"></path>
            </g>
            <g id="ic_fullscreen_exit_black_24px-(1)-copy" transform="translate(404.000000, 198.000000)" fill-rule="nonzero" fill="#39C1C7">
                <path d="M0,11 L3,11 L3,14 L5,14 L5,9 L0,9 L0,11 Z M3,3 L0,3 L0,5 L5,5 L5,0 L3,0 L3,3 Z M9,14 L11,14 L11,11 L14,11 L14,9 L9,9 L9,14 Z M11,3 L11,0 L9,0 L9,5 L14,5 L14,3 L11,3 Z" id="Shape"></path>
            </g>
            <g id="ic_note_add_black_24px-(1)" transform="translate(341.000000, 139.000000)" fill-rule="nonzero" fill="#39C1C7">
                <path d="M14.375,0 L2.875,0 C1.29375,0 0.014375,1.26 0.014375,2.8 L0,25.2 C0,26.74 1.279375,28 2.860625,28 L20.125,28 C21.70625,28 23,26.74 23,25.2 L23,8.4 L14.375,0 Z M18,19.875 L13.5,19.875 L13.5,24 L10.5,24 L10.5,19.875 L6,19.875 L6,17.125 L10.5,17.125 L10.5,13 L13.5,13 L13.5,17.125 L18,17.125 L18,19.875 Z M13,10 L13,2 L21,10 L13,10 Z" id="Shape"></path>
            </g>
            <g id="ic_note_add_black_24px-(1)-copy" transform="translate(341.000000, 191.000000)" fill-rule="nonzero" fill="#FFFFFF">
                <path d="M14.375,0 L2.875,0 C1.29375,0 0.014375,1.26 0.014375,2.8 L0,25.2 C0,26.74 1.279375,28 2.860625,28 L20.125,28 C21.70625,28 23,26.74 23,25.2 L23,8.4 L14.375,0 Z M17.25,19.6 L12.9375,19.6 L12.9375,23.8 L10.0625,23.8 L10.0625,19.6 L5.75,19.6 L5.75,16.8 L10.0625,16.8 L10.0625,12.6 L12.9375,12.6 L12.9375,16.8 L17.25,16.8 L17.25,19.6 Z M12.9375,9.8 L12.9375,2.1 L20.84375,9.8 L12.9375,9.8 Z" id="Shape"></path>
            </g>
            <rect id="Rectangle-2" fill="#EAEAEA" transform="translate(147.000000, 284.000000) rotate(-270.000000) translate(-147.000000, -284.000000) " x="125" y="262" width="44" height="44" rx="6"></rect>
            <g id="ic_keyboard_arrow_up_black_24px" transform="translate(147.000000, 284.000000) rotate(-270.000000) translate(-147.000000, -284.000000) translate(135.000000, 272.000000)">
                <polygon id="Shape" fill="#424956" fill-rule="nonzero" points="7.41 15.41 12 10.83 16.59 15.41 18 14 12 8 6 14"></polygon>
                <polygon id="Shape" points="0 0 24 0 24 24 0 24"></polygon>
                <polygon id="Shape" points="0 0 24 0 24 24 0 24"></polygon>
            </g>
            <g id="ic_keyboard_arrow_up_black_24px-copy" transform="translate(147.000000, 369.000000) rotate(-270.000000) translate(-147.000000, -369.000000) translate(141.000000, 365.000000)" fill-rule="nonzero" fill="#424956">
                <polygon id="Shape" points="1.41 7.41 6 2.83 10.59 7.41 12 6 6 -1.13686838e-13 0 6"></polygon>
            </g>
            <rect id="Rectangle-2" fill="#EAEAEA" transform="translate(42.000000, 284.000000) rotate(-90.000000) translate(-42.000000, -284.000000) " x="20" y="262" width="44" height="44" rx="6"></rect>
            <g id="ic_keyboard_arrow_up_black_24px" transform="translate(42.000000, 284.000000) rotate(-90.000000) translate(-42.000000, -284.000000) translate(30.000000, 272.000000)">
                <polygon id="Shape" fill="#424956" fill-rule="nonzero" points="7.41 15.41 12 10.83 16.59 15.41 18 14 12 8 6 14"></polygon>
                <polygon id="Shape" points="0 0 24 0 24 24 0 24"></polygon>
                <polygon id="Shape" points="0 0 24 0 24 24 0 24"></polygon>
            </g>
            <g id="ic_keyboard_arrow_up_black_24px-copy-2" transform="translate(42.000000, 369.000000) rotate(-90.000000) translate(-42.000000, -369.000000) translate(36.000000, 365.000000)" fill-rule="nonzero" fill="#424956">
                <polygon id="Shape" points="1.41 7.41 6 2.83 10.59 7.41 12 6 6 0 0 6"></polygon>
            </g>
            <g id="ic_close_black_24px" opacity="0.541569496" transform="translate(38.000000, 408.000000)" fill-rule="nonzero" fill="#77787B">
                <polygon id="Shape" points="10 1.00714286 8.99285714 0 5 3.99285714 1.00714286 0 0 1.00714286 3.99285714 5 0 8.99285714 1.00714286 10 5 6.00714286 8.99285714 10 10 8.99285714 6.00714286 5"></polygon>
            </g>
            <g id="Group-6" transform="translate(38.000000, 453.000000)" fill-rule="nonzero">
                <g id="Group-5">
                    <polygon id="Shape" fill="#39C1C7" points="1.38153623 9.00989664 0.00722826087 10.4102326 0.654347826 11.0694832 1.68593478 11.0694832 2.54460145 10.1945736"></polygon>
                    <g id="Group" transform="translate(1.000000, 0.000000)" fill="#242D3C">
                        <path d="M1.63660132,10.9963819 L0.02069163,9.37695364 L0.189035242,9.20831126 C0.708821586,8.68732892 0.708821586,7.83960044 0.18910793,7.31866667 L0.525722467,6.98130905 L4.02684802,10.4903091 L3.69023348,10.8276667 C3.43846916,10.5752737 3.10384141,10.4364018 2.74767401,10.4364018 C2.39150661,10.4364018 2.05663656,10.575468 1.80479956,10.8276667 L1.63660132,10.9963819 Z M0.682944934,9.36578366 L1.64745595,10.3326181 C1.98203524,10.074883 2.39860573,9.94397572 2.82547357,9.96094923 L1.05306828,8.18463135 C1.07092511,8.59993598 0.947599119,9.02002428 0.682944934,9.36578366 Z" id="Shape"></path>
                        <path d="M3.85857709,10.9963819 L0.02069163,7.15002428 L6.22444934,0.932693157 L7.90771586,2.61950552 L6.56106388,3.96913024 L7.03246476,4.44164459 L8.37911674,3.09201987 L10.0625771,4.77895364 L3.85857709,10.9963819 Z M0.694114537,7.15002428 L3.85857709,10.3216667 L9.38910573,4.77900221 L8.37911674,3.76680795 L7.03246476,5.11643267 L5.8878348,3.96920309 L7.23436564,2.61957837 L6.22452203,1.60750552 L0.694114537,7.15002428 Z" id="Shape"></path>
                        <path d="M9.72576872,5.11640839 L8.04238106,3.4293532 L8.71573128,2.75451656 L8.2443304,2.28207506 L7.57102863,2.95679029 L5.88776211,1.26992936 L6.52738546,0.628772627 C6.93203524,0.223302428 7.47011454,0 8.04238106,0 C8.61481718,0 9.15289648,0.223302428 9.5574978,0.628845475 L10.3654648,1.43871744 C10.7699449,1.84421192 10.9928524,2.38340618 10.9928524,2.95693598 C10.9928524,3.53046578 10.7699207,4.06966004 10.3653921,4.47515453 L9.72576872,5.11640839 Z M8.71580396,3.42937748 L9.72576872,4.44157174 L10.0286322,4.13784547 C10.3433436,3.82236645 10.5167269,3.40307947 10.5167269,2.95693598 C10.5167269,2.51079249 10.3433678,2.09155408 10.0287048,1.77602649 L9.22073789,0.966154525 C8.90607489,0.650796909 8.48763877,0.477055188 8.04235683,0.477055188 C7.59731718,0.477055188 7.17888106,0.650748344 6.86404846,0.966154525 L6.56103965,1.26995364 L7.57102863,2.28202649 L8.2445,1.60731126 L9.38888767,2.75446799 L8.71580396,3.42937748 Z" id="Shape"></path>
                    </g>
                </g>
                <rect id="Rectangle-path" fill="#39C1C7" x="0" y="13" width="15.9799995" height="1.52333333"></rect>
            </g>
            <g id="Group-8" transform="translate(103.000000, 453.000000)">
                <g id="Group-5" fill-rule="nonzero">
                    <polygon id="Shape" fill="#FFD056" points="1.38153623 9.00989664 0.00722826087 10.4102326 0.654347826 11.0694832 1.68593478 11.0694832 2.54460145 10.1945736"></polygon>
                    <g id="Group" transform="translate(1.000000, 0.000000)" fill="#242D3C">
                        <path d="M1.63660132,10.9963819 L0.02069163,9.37695364 L0.189035242,9.20831126 C0.708821586,8.68732892 0.708821586,7.83960044 0.18910793,7.31866667 L0.525722467,6.98130905 L4.02684802,10.4903091 L3.69023348,10.8276667 C3.43846916,10.5752737 3.10384141,10.4364018 2.74767401,10.4364018 C2.39150661,10.4364018 2.05663656,10.575468 1.80479956,10.8276667 L1.63660132,10.9963819 Z M0.682944934,9.36578366 L1.64745595,10.3326181 C1.98203524,10.074883 2.39860573,9.94397572 2.82547357,9.96094923 L1.05306828,8.18463135 C1.07092511,8.59993598 0.947599119,9.02002428 0.682944934,9.36578366 Z" id="Shape"></path>
                        <path d="M3.85857709,10.9963819 L0.02069163,7.15002428 L6.22444934,0.932693157 L7.90771586,2.61950552 L6.56106388,3.96913024 L7.03246476,4.44164459 L8.37911674,3.09201987 L10.0625771,4.77895364 L3.85857709,10.9963819 Z M0.694114537,7.15002428 L3.85857709,10.3216667 L9.38910573,4.77900221 L8.37911674,3.76680795 L7.03246476,5.11643267 L5.8878348,3.96920309 L7.23436564,2.61957837 L6.22452203,1.60750552 L0.694114537,7.15002428 Z" id="Shape"></path>
                        <path d="M9.72576872,5.11640839 L8.04238106,3.4293532 L8.71573128,2.75451656 L8.2443304,2.28207506 L7.57102863,2.95679029 L5.88776211,1.26992936 L6.52738546,0.628772627 C6.93203524,0.223302428 7.47011454,0 8.04238106,0 C8.61481718,0 9.15289648,0.223302428 9.5574978,0.628845475 L10.3654648,1.43871744 C10.7699449,1.84421192 10.9928524,2.38340618 10.9928524,2.95693598 C10.9928524,3.53046578 10.7699207,4.06966004 10.3653921,4.47515453 L9.72576872,5.11640839 Z M8.71580396,3.42937748 L9.72576872,4.44157174 L10.0286322,4.13784547 C10.3433436,3.82236645 10.5167269,3.40307947 10.5167269,2.95693598 C10.5167269,2.51079249 10.3433678,2.09155408 10.0287048,1.77602649 L9.22073789,0.966154525 C8.90607489,0.650796909 8.48763877,0.477055188 8.04235683,0.477055188 C7.59731718,0.477055188 7.17888106,0.650748344 6.86404846,0.966154525 L6.56103965,1.26995364 L7.57102863,2.28202649 L8.2445,1.60731126 L9.38888767,2.75446799 L8.71580396,3.42937748 Z" id="Shape"></path>
                    </g>
                </g>
                <g id="highlighter-copy" transform="translate(0.000000, 12.000000)" fill-rule="nonzero" fill="#FFD056">
                    <g id="Group">
                        <rect id="Rectangle-path" x="0.00722826087" y="0.825297158" width="15.9799995" height="1.52333333"></rect>
                    </g>
                </g>
                <polygon id="+" fill="#242D3C" points="13.8254717 7.99528302 15.7075472 7.99528302 15.7075472 8.83490566 13.8254717 8.83490566 13.8254717 11 12.8962264 11 12.8962264 8.83490566 11 8.83490566 11 7.99528302 12.8962264 7.99528302 12.8962264 6 13.8254717 6"></polygon>
            </g>
        </g>
    </g>
</svg>