<?xml version="1.0" encoding="UTF-8" standalone="no"?>
<svg width="200px" height="191px" viewBox="0 0 200 191" version="1.1" xmlns="http://www.w3.org/2000/svg" xmlns:xlink="http://www.w3.org/1999/xlink">
    <!-- Generator: Sketch 47.1 (45422) - http://www.bohemiancoding.com/sketch -->
    <title>Sprite</title>
    <desc>Created with Sketch.</desc>
    <defs></defs>
    <g id="Page-1" stroke="none" stroke-width="1" fill="none" fill-rule="evenodd">
        <g id="Sprite">
            <g id="ic_video_library_black_24px-copy-3" fill-rule="nonzero" fill="#FFFFFF">
                <path d="M22.68,0 L3.24,0 C1.458,0 3.69482223e-13,1.35 3.69482223e-13,3 L3.69482223e-13,21 C3.69482223e-13,22.65 1.458,24 3.24,24 L22.68,24 C24.462,24 25.92,22.65 25.92,21 L25.92,3 C25.92,1.35 24.462,0 22.68,0 Z M9.72,18.75 L9.72,5.25 L19.44,12 L9.72,18.75 Z" id="Shape"></path>
            </g>
            <g id="Article" transform="translate(45.000000, 0.000000)" fill="#FFFFFF" fill-rule="nonzero">
                <path d="M22.68,0 C24.462,0 25.92,1.35 25.92,3 L25.92,21 C25.92,22.65 24.462,24 22.68,24 L3.24,24 C1.458,24 0,22.65 0,21 L0,3 C0,1.35 1.458,0 3.24,0 L22.68,0 Z M7.6356308,17 L6.7604781,19 L19.520352,19 L18.715761,17 L7.6356308,17 Z M15.139423,13.7335165 L15.902473,16 L18.3125,16 L14.195055,5 L12.09478,5 L8,16 L10.4100275,16 L11.165522,13.7335165 L15.139423,13.7335165 Z M11.7774725,11.8976648 L13.144918,7.7802198 L14.527473,11.8976648 L11.7774725,11.8976648 Z"></path>
            </g>
            <g id="E-Book" transform="translate(90.000000, 0.000000)" fill="#FFFFFF" fill-rule="nonzero">
                <path d="M22.68,0 C24.462,0 25.92,1.35 25.92,3 L25.92,21 C25.92,22.65 24.462,24 22.68,24 L3.24,24 C1.458,24 0,22.65 0,21 L0,3 C0,1.35 1.458,0 3.24,0 L22.68,0 Z M16.252708,11.2328297 L16.252708,9.4574176 L11.266484,9.4574176 L11.266484,6.8358516 L16.993093,6.8358516 L16.993093,5 L9,5 L9,16 L17.008203,16 L17.008203,14.1792582 L11.266484,14.1792582 L11.266484,11.2328297 L16.252708,11.2328297 Z M9,17 L9,19 L17,19 L17,17 L9,17 Z"></path>
            </g>
            <g id="ic_video_library_black_24px-copy-3" transform="translate(0.000000, 41.000000)" fill-rule="nonzero" fill="#39C1C7">
                <path d="M38.4313725,0 L5.49019608,0 C2.47058824,0 3.69482223e-13,2.25 3.69482223e-13,5 L3.69482223e-13,35 C3.69482223e-13,37.75 2.47058824,40 5.49019608,40 L38.4313725,40 C41.4509804,40 43.9215686,37.75 43.9215686,35 L43.9215686,5 C43.9215686,2.25 41.4509804,0 38.4313725,0 Z M16.4705882,31.25 L16.4705882,8.75 L32.9411765,20 L16.4705882,31.25 Z" id="Shape"></path>
            </g>
            <g id="ic_bookmark_border_black_24px-(2)" transform="translate(37.000000, 103.000000)" fill-rule="nonzero" fill="#ABABAB">
                <path d="M12,0 L2,0 C0.9,0 0.01,0.9 0.01,2 L0,18 L7,15 L14,18 L14,2 C14,0.9 13.1,0 12,0 Z M12,15 L7,12.82 L2,15 L2,2 L12,2 L12,15 Z" id="Shape"></path>
            </g>
            <g id="ic_favorite_border_black_24px" transform="translate(1.000000, 103.000000)" fill-rule="nonzero" fill="#ABABAB">
                <path d="M14.5,0 C12.76,0 11.09,0.81 10,2.09 C8.91,0.81 7.24,0 5.5,0 C2.42,0 0,2.42 0,5.5 C0,9.28 3.4,12.36 8.55,17.04 L10,18.35 L11.45,17.03 C16.6,12.36 20,9.28 20,5.5 C20,2.42 17.58,0 14.5,0 Z M10.1,15.55 L10,15.65 L9.9,15.55 C5.14,11.24 2,8.39 2,5.5 C2,3.5 3.5,2 5.5,2 C7.04,2 8.54,2.99 9.07,4.36 L10.94,4.36 C11.46,2.99 12.96,2 14.5,2 C16.5,2 18,3.5 18,5.5 C18,8.39 14.86,11.24 10.1,15.55 Z" id="Shape"></path>
            </g>
            <g id="Group-8" transform="translate(0.000000, 136.000000)" stroke="#77787B">
                <g id="chevron-down" transform="translate(12.000000, 12.500000) scale(1, -1) rotate(-270.000000) translate(-12.000000, -12.500000) translate(7.000000, 10.000000)" stroke-linecap="round" stroke-width="1.5" stroke-linejoin="round">
                    <polyline id="Shape" points="0 0 5 5 10 0"></polyline>
                </g>
                <rect id="Rectangle-2" x="0.5" y="0.5" width="23" height="23" rx="2"></rect>
            </g>
            <g id="Group-8" transform="translate(57.000000, 148.000000) scale(-1, 1) translate(-57.000000, -148.000000) translate(45.000000, 136.000000)" stroke="#77787B">
                <g id="chevron-down" transform="translate(12.000000, 12.500000) scale(1, -1) rotate(-270.000000) translate(-12.000000, -12.500000) translate(7.000000, 10.000000)" stroke-linecap="round" stroke-width="1.5" stroke-linejoin="round">
                    <polyline id="Shape" points="0 0 5 5 10 0"></polyline>
                </g>
                <rect id="Rectangle-2" x="0.5" y="0.5" width="23" height="23" rx="2"></rect>
            </g>
        </g>
    </g>
</svg>