<?xml version="1.0" encoding="UTF-8"?>
<svg width="116px" height="203px" viewBox="0 0 116 203" version="1.1" xmlns="http://www.w3.org/2000/svg" xmlns:xlink="http://www.w3.org/1999/xlink">
    <!-- Generator: Sketch 47.1 (45422) - http://www.bohemiancoding.com/sketch -->
    <title>Group</title>
    <desc>Created with Sketch.</desc>
    <defs></defs>
    <g id="Page-1" stroke="none" stroke-width="1" fill="none" fill-rule="evenodd">
        <g id="Group">
            <g id="ic_video_library_black_24px-copy-3" fill-rule="nonzero" fill="#FFFFFF">
                <path d="M22.68,0 L3.24,0 C1.458,0 3.69482223e-13,1.35 3.69482223e-13,3 L3.69482223e-13,21 C3.69482223e-13,22.65 1.458,24 3.24,24 L22.68,24 C24.462,24 25.92,22.65 25.92,21 L25.92,3 C25.92,1.35 24.462,0 22.68,0 Z M9.72,18.75 L9.72,5.25 L19.44,12 L9.72,18.75 Z" id="Shape"></path>
            </g>
            <g id="Article" transform="translate(45.000000, 0.000000)" fill-rule="nonzero" fill="#FFFFFF">
                <path d="M22.68,0 C24.462,0 25.92,1.35 25.92,3 L25.92,21 C25.92,22.65 24.462,24 22.68,24 L3.24,24 C1.458,24 0,22.65 0,21 L0,3 C0,1.35 1.458,0 3.24,0 L22.68,0 Z M7.6356308,17 L6.7604781,19 L19.520352,19 L18.715761,17 L7.6356308,17 Z M15.139423,13.7335165 L15.902473,16 L18.3125,16 L14.195055,5 L12.09478,5 L8,16 L10.4100275,16 L11.165522,13.7335165 L15.139423,13.7335165 Z M11.7774725,11.8976648 L13.144918,7.7802198 L14.527473,11.8976648 L11.7774725,11.8976648 Z" id="Shape"></path>
            </g>
            <g id="E-Book" transform="translate(90.000000, 0.000000)" fill-rule="nonzero" fill="#FFFFFF">
                <path d="M22.68,0 C24.462,0 25.92,1.35 25.92,3 L25.92,21 C25.92,22.65 24.462,24 22.68,24 L3.24,24 C1.458,24 0,22.65 0,21 L0,3 C0,1.35 1.458,0 3.24,0 L22.68,0 Z M16.252708,11.2328297 L16.252708,9.4574176 L11.266484,9.4574176 L11.266484,6.8358516 L16.993093,6.8358516 L16.993093,5 L9,5 L9,16 L17.008203,16 L17.008203,14.1792582 L11.266484,14.1792582 L11.266484,11.2328297 L16.252708,11.2328297 Z M9,17 L9,19 L17,19 L17,17 L9,17 Z" id="Shape"></path>
            </g>
            <g id="ic_video_library_black_24px-copy-3" transform="translate(0.000000, 41.000000)" fill-rule="nonzero" fill="#39C1C7">
                <path d="M38.4313725,0 L5.49019608,0 C2.47058824,0 3.69482223e-13,2.25 3.69482223e-13,5 L3.69482223e-13,35 C3.69482223e-13,37.75 2.47058824,40 5.49019608,40 L38.4313725,40 C41.4509804,40 43.9215686,37.75 43.9215686,35 L43.9215686,5 C43.9215686,2.25 41.4509804,0 38.4313725,0 Z M16.4705882,31.25 L16.4705882,8.75 L32.9411765,20 L16.4705882,31.25 Z" id="Shape"></path>
            </g>
            <g id="ic_bookmark_border_black_24px-(2)" transform="translate(37.000000, 103.000000)" fill-rule="nonzero" fill="#ABABAB">
                <path d="M12,0 L2,0 C0.9,0 0.01,0.9 0.01,2 L0,18 L7,15 L14,18 L14,2 C14,0.9 13.1,0 12,0 Z M12,15 L7,12.82 L2,15 L2,2 L12,2 L12,15 Z" id="Shape"></path>
            </g>
            <polygon id="Path-3" fill="#FFCC4B" points="38.0283931 155.347904 44.0139222 152.449097 50.1905066 155.347904 50.1905066 139.759356 38.0283931 139.759356"></polygon>
            <path d="M49,139 L39,139 C37.9,139 37.01,139.9 37.01,141 L37,157 L44,154 L51,157 L51,141 C51,139.9 50.1,139 49,139 Z M49,154 L44,151.82 L39,154 L39,141 L49,141 L49,154 Z" id="Shape" fill="#FFCC4B" fill-rule="nonzero"></path>
            <path d="M15.5,103 C13.76,103 12.09,103.81 11,105.09 C9.91,103.81 8.24,103 6.5,103 C3.42,103 1,105.42 1,108.5 C1,112.28 4.4,115.36 9.55,120.04 L11,121.35 L12.45,120.03 C17.6,115.36 21,112.28 21,108.5 C21,105.42 18.58,103 15.5,103 Z M11.1,118.55 L11,118.65 L10.9,118.55 C6.14,114.24 3,111.39 3,108.5 C3,106.5 4.5,105 6.5,105 C8.04,105 9.54,105.99 10.07,107.36 L11.94,107.36 C12.46,105.99 13.96,105 15.5,105 C17.5,105 19,106.5 19,108.5 C19,111.39 15.86,114.24 11.1,118.55 Z" id="Shape" fill="#ABABAB" fill-rule="nonzero"></path>
            <path d="M15.5,139 C13.76,139 12.09,139.81 11,141.09 C9.91,139.81 8.24,139 6.5,139 C3.42,139 1,141.42 1,144.5 C1,148.28 4.4,151.36 9.55,156.04 L11,157.35 L12.45,156.03 C17.6,151.36 21,148.28 21,144.5 C21,141.42 18.58,139 15.5,139 Z M11.1,154.55 L11,154.65 L10.9,154.55 C6.14,150.24 3,147.39 3,144.5 C3,142.5 4.5,141 6.5,141 C8.04,141 9.54,141.99 10.07,143.36 L11.94,143.36 C12.46,141.99 13.96,141 15.5,141 C17.5,141 19,142.5 19,144.5 C19,147.39 15.86,150.24 11.1,154.55 Z" id="Shape" fill="#FF6960" fill-rule="nonzero"></path>
            <g id="Group-8" transform="translate(0.000000, 179.000000)" stroke="#77787B">
                <g id="chevron-down" stroke-linecap="round" stroke-linejoin="round" transform="translate(12.000000, 12.500000) scale(-1, 1) rotate(-90.000000) translate(-12.000000, -12.500000) translate(7.000000, 10.000000)" stroke-width="1.5">
                    <polyline id="Shape" points="0 0 5 5 10 0"></polyline>
                </g>
                <rect id="Rectangle-2" x="0.5" y="0.5" width="23" height="23" rx="2"></rect>
            </g>
            <g id="Group-8" transform="translate(57.000000, 191.000000) scale(-1, 1) translate(-57.000000, -191.000000) translate(45.000000, 179.000000)" stroke="#77787B">
                <g id="chevron-down" stroke-linecap="round" stroke-linejoin="round" transform="translate(12.000000, 12.500000) scale(-1, 1) rotate(-90.000000) translate(-12.000000, -12.500000) translate(7.000000, 10.000000)" stroke-width="1.5">
                    <polyline id="Shape" points="0 0 5 5 10 0"></polyline>
                </g>
                <rect id="Rectangle-2" x="0.5" y="0.5" width="23" height="23" rx="2"></rect>
            </g>
            <polygon id="Path-2" fill="#FF6960" points="11.4675021 155.614115 18.3705612 148.894107 20.2802091 144.875489 19.1023956 140.930831 15.8738556 139.600659 13.0287983 140.328796 11.4675021 142.464022 8.3837388 140.328796 5.030761 140.328796 2.47507229 142.464022 2.47507229 146.576199 5.030761 149.7942 8.9151416 153.515869"></polygon>
        </g>
    </g>
</svg>