<?xml version="1.0" encoding="UTF-8" standalone="no"?>
<svg width="112px" height="40px" viewBox="0 0 112 40" version="1.1" xmlns="http://www.w3.org/2000/svg" xmlns:xlink="http://www.w3.org/1999/xlink">
    <!-- Generator: Sketch 48.2 (47327) - http://www.bohemiancoding.com/sketch -->
    <title>Group Copy</title>
    <desc>Created with Sketch.</desc>
    <defs></defs>
    <g id="Artboard-10" stroke="none" stroke-width="1" fill="none" fill-rule="evenodd" transform="translate(-82.000000, -69.000000)">
        <g id="Group-Copy" transform="translate(82.000000, 69.000000)">
            <path d="M64.9089892,34.5274739 C64.840196,34.742083 64.6980003,35.0825099 64.4847676,35.4796634 C64.1446728,36.1131024 63.7021726,36.7419925 63.1424127,37.3289613 C61.5514359,38.9972723 59.3417673,40 56.5002931,40 C53.6588387,40 51.4491851,38.9972905 49.8581892,37.329016 C48.8922927,36.3162035 48.3320154,35.272772 48.0904106,34.5240608 C47.7557201,33.4692838 48.3823634,32.3752897 49.4404282,32.0768862 C50.4663378,31.7864492 51.5675834,32.3419053 51.8939236,33.3556634 C51.9179803,33.4289137 51.9794586,33.5748525 52.0858927,33.7696049 C52.2652582,34.0978065 52.5015656,34.425122 52.7995496,34.7275952 C53.6492075,35.590053 54.8354758,36.1055433 56.5002931,36.1055433 C58.1686769,36.1055433 59.3616582,35.576694 60.2198618,34.6931235 C60.5184123,34.3857484 60.7545671,34.0551579 60.9327019,33.727083 C61.0327989,33.542732 61.0927708,33.400049 61.1019089,33.3708248 C61.4270179,32.3462437 62.5291442,31.7856183 63.5592957,32.0766424 C64.6183542,32.375574 65.2450128,33.4695128 64.9089892,34.5274739 Z" id="Shape" fill="#FFCC4B" fill-rule="nonzero"></path>
            <path d="M8.5,13.2190692 C9.68056146,13.2190692 10.7859797,13.4362445 11.8162879,13.8706016 C12.8465961,14.3049587 13.7481022,14.9035149 14.5208333,15.6662883 C15.2935645,16.4290617 15.8999347,17.3189506 16.3399621,18.3359818 C16.7799896,19.353013 17,20.4441864 17,21.6095346 C17,22.7748829 16.7799896,23.8660562 16.3399621,24.8830874 C15.8999347,25.9001186 15.2935645,26.7900075 14.5208333,27.5527809 C13.7481022,28.3155543 12.8465961,28.9141106 11.8162879,29.3484677 C10.7859797,29.7828247 9.68056146,30 8.5,30 C7.31943854,30 6.2140203,29.7828247 5.18371212,29.3484677 C4.15340394,28.9141106 3.2518978,28.3155543 2.47916667,27.5527809 C1.70643553,26.7900075 1.10006533,25.9001186 0.660037879,24.8830874 C0.220010426,23.8660562 0,22.7748829 0,21.6095346 L2.22044605e-16,3.64204545 C1.10984245e-16,2.73516879 0.735168791,2 1.64204545,2 L1.64204545,2 C2.54892212,2 3.28409091,2.73516879 3.28409091,3.64204545 L3.28409091,14.9670829 C4.01389254,14.416191 4.81880873,13.9871374 5.69886364,13.6799092 C6.57891854,13.372681 7.51262133,13.2190692 8.5,13.2190692 Z M8.5,26.7264472 C9.20833688,26.7264472 9.87910037,26.5940233 10.5123106,26.3291714 C11.1455208,26.0643195 11.69823,25.6988294 12.1704545,25.2326901 C12.6426791,24.7665508 13.0129406,24.2209642 13.28125,23.5959137 C13.5495594,22.9708633 13.6837121,22.3087436 13.6837121,21.6095346 C13.6837121,20.9103257 13.5495594,20.2482059 13.28125,19.6231555 C13.0129406,18.9981051 12.6426791,18.4525184 12.1704545,17.9863791 C11.69823,17.5202398 11.1455208,17.1547497 10.5123106,16.8898978 C9.87910037,16.625046 9.20833688,16.492622 8.5,16.492622 C7.79166312,16.492622 7.12089963,16.625046 6.48768939,16.8898978 C5.85447916,17.1547497 5.30177004,17.5202398 4.82954545,17.9863791 C4.35732087,18.4525184 3.98169331,18.9928081 3.70265152,19.6072645 C3.42360972,20.2217208 3.28409091,20.8785436 3.28409091,21.5777526 L3.28409091,21.6095346 C3.28409091,22.3087436 3.42360972,22.9708633 3.70265152,23.5959137 C3.98169331,24.2209642 4.35732087,24.7665508 4.82954545,25.2326901 C5.30177004,25.6988294 5.85447916,26.0643195 6.48768939,26.3291714 C7.12089963,26.5940233 7.79166312,26.7264472 8.5,26.7264472 Z" id="b-copy-13" fill="#39C1C7"></path>
            <path d="M35,14.7816594 L35,22.6268939 C35,23.9147792 34.6797703,25.0953229 34.0393013,26.1685606 C33.3988323,27.2417983 32.531301,28.1111078 31.4366812,28.7765152 C30.7845673,29.1628807 30.0858844,29.4633828 29.3406114,29.6780303 C28.5953383,29.8926778 27.8151424,30 27,30 C26.1848576,30 25.4046617,29.8926778 24.6593886,29.6780303 C23.9141156,29.4633828 23.2154327,29.1628807 22.5633188,28.7765152 C21.4919888,28.1111078 20.6302798,27.2417983 19.9781659,26.1685606 C19.3260521,25.0953229 19,23.9147792 19,22.6268939 L19,14.7816594 C19,13.7976761 19.7976761,13 20.7816594,13 L20.7816594,13 C21.7656427,13 22.5633188,13.7976761 22.5633188,14.7816594 L22.5633188,22.6268939 C22.5633188,23.1849775 22.6797659,23.7108561 22.9126638,24.2045455 C23.1455616,24.6982348 23.4599689,25.1275234 23.8558952,25.4924242 C24.2518215,25.8573251 24.7234325,26.1470949 25.2707424,26.3617424 C25.8180522,26.57639 26.3944657,26.6837121 27,26.6837121 C27.6055343,26.6837121 28.1761254,26.57639 28.7117904,26.3617424 C29.2474554,26.1470949 29.7190664,25.8573251 30.1266376,25.4924242 C30.5342087,25.1275234 30.8544384,24.6982348 31.0873362,24.2045455 C31.3202341,23.7108561 31.4366812,23.1849775 31.4366812,22.6268939 L31.4366812,14.7816594 C31.4366812,13.7976761 32.2343573,13 33.2183406,13 L33.2183406,13 C34.2023239,13 35,13.7976761 35,14.7816594 Z" id="u-copy-7" fill="#39C1C7"></path>
            <path d="M112,21.6307692 C112,21.6307692 112,21.6307692 112,21.6307692 L112,21.6307692 C112,22.1904968 111.546251,22.6442457 110.986524,22.6442457 L99.7505376,22.6442308 C100.060215,25.2596154 101.574194,26.8615385 104.395699,26.8615385 C105.379942,26.8615385 106.489829,26.3243376 107.725362,25.2499358 L107.725346,25.2499174 C108.399168,24.6639712 109.381628,24.6010107 110.124731,25.0961538 L110.124731,25.0961538 C110.808011,25.5514354 110.99284,26.4744216 110.537558,27.1577012 C110.495008,27.2215605 110.447577,27.2820295 110.39569,27.338566 C108.767325,29.1128518 106.721454,30 104.258065,30 C99.0623656,30 96,26.4692308 96,21.5326923 C96,16.6288462 99.0967742,13 104.258065,13 C109.247312,13 112,16.5634615 112,21.6307692 Z M104.326882,16.1057692 C101.780645,16.1057692 100.301075,17.5442308 99.8537634,19.8653846 L108.55914,19.8653846 C108.215054,17.5115385 106.804301,16.1057692 104.326882,16.1057692 Z" id="e-copy-18" fill="#39C1C7"></path>
            <path d="M94,21.6307692 C94,21.6307692 94,21.6307692 94,21.6307692 L94,21.6307692 C94,22.1904968 93.5462511,22.6442457 92.9865235,22.6442457 L81.7505376,22.6442308 C82.0602151,25.2596154 83.5741935,26.8615385 86.3956989,26.8615385 C87.3799415,26.8615385 88.4898292,26.3243376 89.7253621,25.2499358 L89.7253461,25.2499174 C90.3991683,24.6639712 91.3816279,24.6010107 92.1247312,25.0961538 L92.1247312,25.0961538 C92.8080108,25.5514354 92.9928398,26.4744216 92.5375582,27.1577012 C92.4950076,27.2215605 92.4475766,27.2820295 92.3956904,27.338566 C90.7673254,29.1128518 88.721454,30 86.2580645,30 C81.0623656,30 78,26.4692308 78,21.5326923 C78,16.6288462 81.0967742,13 86.2580645,13 C91.2473118,13 94,16.5634615 94,21.6307692 Z M86.3268817,16.1057692 C83.7806452,16.1057692 82.3010753,17.5442308 81.8537634,19.8653846 L90.5591398,19.8653846 C90.2150538,17.5115385 88.8043011,16.1057692 86.3268817,16.1057692 Z" id="e-copy-19" fill="#39C1C7"></path>
            <path d="M55,21.0102157 C55,22.2588031 54.7670478,23.4279174 54.3011364,24.5175936 C53.8352249,25.6072699 53.1931859,26.5607224 52.375,27.3779796 C51.5568141,28.1952368 50.6022782,28.836547 49.5113636,29.3019296 C48.4204491,29.7673122 47.2500063,30 46,30 C44.7499937,30 43.5795509,29.7673122 42.4886364,29.3019296 C41.3977218,28.836547 40.4431859,28.1952368 39.625,27.3779796 C38.8068141,26.5607224 38.1647751,25.6072699 37.6988636,24.5175936 C37.2329522,23.4279174 37,22.2588031 37,21.0102157 C37,19.7616283 37.2329522,18.592514 37.6988636,17.5028377 C38.1647751,16.4131614 38.8068141,15.459709 39.625,14.6424518 C40.4431859,13.8251946 41.3977218,13.1838843 42.4886364,12.7185017 C43.5795509,12.2531191 44.7499937,12.0204313 46,12.0204313 C47.0454598,12.0204313 48.0284045,12.1850154 48.9488636,12.5141884 C49.8693228,12.8433615 50.7159052,13.3030617 51.4886364,13.8933031 L51.4886364,1.75568182 C51.4886364,0.786045524 52.2746819,1.78119298e-16 53.2443182,0 L53.2443182,0 C54.2139545,-1.78119298e-16 55,0.786045524 55,1.75568182 L55,21.0102157 Z M46,26.492622 C46.7500038,26.492622 47.4602239,26.3507392 48.1306818,26.0669694 C48.8011397,25.7831995 49.3863611,25.391603 49.8863636,24.892168 C50.3863661,24.392733 50.7784077,23.8081759 51.0625,23.138479 C51.3465923,22.4687821 51.4886364,21.7593681 51.4886364,21.0102157 L51.4886364,20.9761635 C51.4886364,20.227011 51.3465923,19.5232723 51.0625,18.8649262 C50.7784077,18.2065801 50.3863661,17.6276983 49.8863636,17.1282633 C49.3863611,16.6288284 48.8011397,16.2372318 48.1306818,15.953462 C47.4602239,15.6696921 46.7500038,15.5278093 46,15.5278093 C45.2499962,15.5278093 44.5397761,15.6696921 43.8693182,15.953462 C43.1988603,16.2372318 42.6136389,16.6288284 42.1136364,17.1282633 C41.6136339,17.6276983 41.2159106,18.2122554 40.9204545,18.8819523 C40.6249985,19.5516492 40.4772727,20.2610632 40.4772727,21.0102157 C40.4772727,21.7593681 40.6249985,22.4687821 40.9204545,23.138479 C41.2159106,23.8081759 41.6136339,24.392733 42.1136364,24.892168 C42.6136389,25.391603 43.1988603,25.7831995 43.8693182,26.0669694 C44.5397761,26.3507392 45.2499962,26.492622 46,26.492622 Z" id="d-copy-2" fill="#39C1C7"></path>
            <path d="M67,12.0204313 C68.2500063,12.0204313 69.4204491,12.2531191 70.5113636,12.7185017 C71.6022782,13.1838843 72.5568141,13.8251946 73.375,14.6424518 C74.1931859,15.459709 74.8352249,16.4131614 75.3011364,17.5028377 C75.7670478,18.592514 76,19.7616283 76,21.0102157 C76,22.2588031 75.7670478,23.4279174 75.3011364,24.5175936 C74.8352249,25.6072699 74.1931859,26.5607224 73.375,27.3779796 C72.5568141,28.1952368 71.6022782,28.836547 70.5113636,29.3019296 C69.4204491,29.7673122 68.2500063,30 67,30 C65.7499937,30 64.5795509,29.7673122 63.4886364,29.3019296 C62.3977218,28.836547 61.4431859,28.1952368 60.625,27.3779796 C59.8068141,26.5607224 59.1647751,25.6072699 58.6988636,24.5175936 C58.2329522,23.4279174 58,22.2588031 58,21.0102157 L58,1.73863636 C58,0.778414014 58.778414,1.76389984e-16 59.7386364,0 L59.7386364,0 C60.6988587,-1.76389984e-16 61.4772727,0.778414014 61.4772727,1.73863636 L61.4772727,13.8933031 C62.2500039,13.3030617 63.1022681,12.8433615 64.0340909,12.5141884 C64.9659137,12.1850154 65.9545402,12.0204313 67,12.0204313 Z M67.0171469,26.5909091 C66.2626778,26.5909091 65.5482291,26.4497473 64.8737795,26.1674195 C64.1993298,25.8850918 63.6106241,25.4954853 63.1076447,24.9985884 C62.6046653,24.5016915 62.204574,23.920105 61.9073589,23.2538114 C61.6101438,22.5875178 61.4615385,21.881709 61.4615385,21.1363636 L61.4615385,21.1024845 C61.4615385,20.3571391 61.6101438,19.6569767 61.9073589,19.0019763 C62.204574,18.3469758 62.6046653,17.7710358 63.1076447,17.2741389 C63.6106241,16.777242 64.1993298,16.3876355 64.8737795,16.1053077 C65.5482291,15.82298 66.2626778,15.6818182 67.0171469,15.6818182 C67.7716161,15.6818182 68.4860647,15.82298 69.1605144,16.1053077 C69.8349641,16.3876355 70.4236698,16.777242 70.9266492,17.2741389 C71.4296286,17.7710358 71.8240043,18.3526223 72.109788,19.0189159 C72.3955718,19.6852094 72.5384615,20.3910183 72.5384615,21.1363636 C72.5384615,21.881709 72.3955718,22.5875178 72.109788,23.2538114 C71.8240043,23.920105 71.4296286,24.5016915 70.9266492,24.9985884 C70.4236698,25.4954853 69.8349641,25.8850918 69.1605144,26.1674195 C68.4860647,26.4497473 67.7716161,26.5909091 67.0171469,26.5909091 Z" id="b-copy-3" fill="#39C1C7"></path>
        </g>
    </g>
</svg>