<?xml version="1.0" encoding="UTF-8" standalone="no"?>
<svg width="275px" height="591px" viewBox="0 0 275 591" version="1.1" xmlns="http://www.w3.org/2000/svg" xmlns:xlink="http://www.w3.org/1999/xlink">
    <!-- Generator: Sketch 47.1 (45422) - http://www.bohemiancoding.com/sketch -->
    <title>Sprite Image Buddy</title>
    <desc>Created with Sketch.</desc>
    <defs></defs>
    <g id="Page-1" stroke="none" stroke-width="1" fill="none" fill-rule="evenodd">
        <g id="Sprite-Image-Buddy">
            <g id="Group-4-Copy" transform="translate(1.000000, 2.000000)" stroke-width="2" stroke="#FFFFFF" fill-rule="nonzero">
                <g id="Group-7">
                    <g id="group-(2)">
                        <path d="M0.492446303,22.4746065 C0.492446303,15.4458596 6.76333177,15.4473596 8.15489782,13.6095474 L8.31413857,12.7714918 C6.35905837,11.7957353 4.97892108,9.44476963 4.97892108,6.6943513 C4.97892108,3.07122714 7.37317051,0.133607557 10.3259054,0.133607557 C12.6509728,0.133607557 14.6238818,1.95821972 15.3601989,4.50133668 C12.4024353,5.42654284 10.2145131,8.58346389 10.2145131,12.3361889 C10.2145131,14.9198061 11.249197,17.295222 12.9478158,18.804382 C12.6750493,18.9420829 12.3716538,19.0824839 12.1107733,19.2027847 C10.7409981,19.8353389 8.84229975,20.7146448 7.47252454,22.4746065 L0.492446303,22.4746065 L0.492446303,22.4746065 Z M19.2121154,29.1159941 L19.2121154,29.1156941 L19.0725322,29.1156941 L9.30916944,29.1156941 C9.30916944,22.0872472 15.5800549,22.0891973 16.971621,20.251385 L17.1308617,19.4133294 C15.1757815,18.4375729 13.7956442,16.0866072 13.7956442,13.3361889 C13.7956442,9.71306475 16.1898936,6.77544517 19.1426286,6.77544517 C22.0953635,6.77544517 24.4896129,9.71306475 24.4896129,13.3361889 C24.4896129,16.0629071 23.1340094,18.3999227 21.2049867,19.3903793 L21.3863231,20.3431856 C22.9130533,22.0918973 28.9753258,22.205898 28.9753258,29.1159941 L19.2121154,29.1159941 L19.2121154,29.1159941 Z M30.8121231,22.4749065 L30.8121231,22.4746065 L30.8121231,22.4746065 C29.4418907,20.7149448 27.5431924,19.8357889 26.1734172,19.2032347 C25.9038508,19.0787339 25.6050268,18.9405829 25.3378985,18.805582 C27.0349934,17.294472 28.0708964,14.9139561 28.0708964,12.3361889 C28.0708964,8.58391389 25.8837362,5.42759285 22.9267345,4.50208668 C23.6625944,1.95851972 25.6355034,0.133907559 27.9610279,0.133907559 C30.9140676,0.133907559 33.3080123,3.07152714 33.3080123,6.6946513 C33.3080123,9.42136948 31.9524087,11.7580851 30.0233861,12.7488417 L30.2047225,13.701648 C31.7314527,15.4500597 37.7937251,15.5639104 37.7937251,22.4749065 L30.8121231,22.4749065 Z" id="Shape"></path>
                    </g>
                </g>
            </g>
            <g id="Group-4-Copy-3" transform="translate(1.000000, 50.000000)" fill-rule="nonzero" fill="#FFFFFF">
                <g id="Group-7">
                    <g id="group-(2)">
                        <path d="M0.545794652,24.8220671 C0.545794652,17.0904456 7.49602604,17.0920956 9.03834508,15.0705021 L9.21483691,14.148641 C7.04795635,13.0753088 5.51830419,10.4892466 5.51830419,7.46378643 C5.51830419,3.47834986 8.17193064,0.246968313 11.4445452,0.246968313 C14.0214948,0.246968313 16.2081357,2.25404169 17.0242204,5.05147034 C13.7460324,6.06919713 11.3210854,9.54181028 11.3210854,13.6698078 C11.3210854,16.5117867 12.46786,19.1247442 14.3504958,20.7848202 C14.0481797,20.9362912 13.7119163,21.0907323 13.4227737,21.2230632 C11.9046062,21.9188728 9.80021556,22.8861092 8.28204803,24.8220671 L0.545794652,24.8220671 L0.545794652,24.8220671 Z M19.0767613,31.0275935 L19.0767613,31.0272635 L18.9220565,31.0272635 L8.10099613,31.0272635 C8.10099613,23.295972 15.0512275,23.298117 16.5935466,21.2765235 L16.7700384,20.3546624 C14.6031578,19.2813302 13.0735057,16.695268 13.0735057,13.6698078 C13.0735057,9.68437123 15.7271321,6.45298969 18.9997467,6.45298969 C22.2723612,6.45298969 24.9259877,9.68437123 24.9259877,13.6698078 C24.9259877,16.6691978 23.4235271,19.2399149 21.285527,20.3294172 L21.4865081,21.3775042 C23.1786341,23.301087 29.8976527,23.4264878 29.8976527,31.0275935 L19.0767613,31.0275935 L19.0767613,31.0275935 Z M29.7167697,24.8223971 L29.7167697,24.8220671 L29.7167697,24.8220671 C28.1980955,22.8864392 26.0937049,21.9193678 24.5755374,21.2235582 C24.2767679,21.0866072 23.9455713,20.9346412 23.6495042,20.7861402 C25.5304511,19.1239192 26.6785769,16.5053517 26.6785769,13.6698078 C26.6785769,9.54230528 24.2544742,6.07035214 20.9771307,5.05229535 C21.7927088,2.2543717 23.9793497,0.247298315 26.5568059,0.247298315 C29.8297583,0.247298315 32.4830469,3.47867986 32.4830469,7.46411643 C32.4830469,10.4635064 30.9805863,13.0338936 28.8425863,14.1237258 L29.0435674,15.1718128 C30.7356934,17.0950656 37.454712,17.2203015 37.454712,24.8223971 L29.7167697,24.8223971 Z" id="Shape"></path>
                    </g>
                </g>
            </g>
            <g id="Group-5" transform="translate(2.000000, 106.000000)">
                <g id="Group-4-Copy-4" stroke-width="2" stroke="#FFFFFF" fill-rule="nonzero">
                    <g id="Group-7">
                        <g id="group-(2)">
                            <path d="M0.492446303,22.4746065 C0.492446303,15.4458596 6.76333177,15.4473596 8.15489782,13.6095474 L8.31413857,12.7714918 C6.35905837,11.7957353 4.97892108,9.44476963 4.97892108,6.6943513 C4.97892108,3.07122714 7.37317051,0.133607557 10.3259054,0.133607557 C12.6509728,0.133607557 14.6238818,1.95821972 15.3601989,4.50133668 C12.4024353,5.42654284 10.2145131,8.58346389 10.2145131,12.3361889 C10.2145131,14.9198061 11.249197,17.295222 12.9478158,18.804382 C12.6750493,18.9420829 12.3716538,19.0824839 12.1107733,19.2027847 C10.7409981,19.8353389 8.84229975,20.7146448 7.47252454,22.4746065 L0.492446303,22.4746065 L0.492446303,22.4746065 Z M19.2121154,29.1159941 L19.2121154,29.1156941 L19.0725322,29.1156941 L9.30916944,29.1156941 C9.30916944,22.0872472 15.5800549,22.0891973 16.971621,20.251385 L17.1308617,19.4133294 C15.1757815,18.4375729 13.7956442,16.0866072 13.7956442,13.3361889 C13.7956442,9.71306475 16.1898936,6.77544517 19.1426286,6.77544517 C22.0953635,6.77544517 24.4896129,9.71306475 24.4896129,13.3361889 C24.4896129,16.0629071 23.1340094,18.3999227 21.2049867,19.3903793 L21.3863231,20.3431856 C22.9130533,22.0918973 28.9753258,22.205898 28.9753258,29.1159941 L19.2121154,29.1159941 L19.2121154,29.1159941 Z M30.8121231,22.4749065 L30.8121231,22.4746065 L30.8121231,22.4746065 C29.4418907,20.7149448 27.5431924,19.8357889 26.1734172,19.2032347 C25.9038508,19.0787339 25.6050268,18.9405829 25.3378985,18.805582 C27.0349934,17.294472 28.0708964,14.9139561 28.0708964,12.3361889 C28.0708964,8.58391389 25.8837362,5.42759285 22.9267345,4.50208668 C23.6625944,1.95851972 25.6355034,0.133907559 27.9610279,0.133907559 C30.9140676,0.133907559 33.3080123,3.07152714 33.3080123,6.6946513 C33.3080123,9.42136948 31.9524087,11.7580851 30.0233861,12.7488417 L30.2047225,13.701648 C31.7314527,15.4500597 37.7937251,15.5639104 37.7937251,22.4749065 L30.8121231,22.4749065 Z" id="Shape"></path>
                        </g>
                    </g>
                </g>
                <g id="back" transform="translate(52.500000, 16.000000) rotate(-90.000000) translate(-52.500000, -16.000000) translate(44.000000, 8.000000)" fill="#FFFFFF">
                    <polygon id="Shape" points="16.7 7 4.5 7 10.1 1.4 8.7 0 0.7 8 8.7 16 10.1 14.6 4.5 9 16.7 9"></polygon>
                </g>
            </g>
            <g id="Group" transform="translate(2.000000, 158.000000)" fill="#FFFFFF">
                <g id="Group-5" transform="translate(44.000000, 7.000000)">
                    <g id="back" transform="translate(8.500000, 9.000000) rotate(-90.000000) translate(-8.500000, -9.000000) translate(0.000000, 1.000000)">
                        <polygon id="Shape" points="16.7 7 4.5 7 10.1 1.4 8.7 0 0.7 8 8.7 16 10.1 14.6 4.5 9 16.7 9"></polygon>
                    </g>
                </g>
                <g id="Group-4-Copy-3" fill-rule="nonzero">
                    <g id="Group-7">
                        <g id="group-(2)">
                            <path d="M0.545794652,25.0176889 C0.545794652,17.2274944 7.49602604,17.2291569 9.03834508,15.1922484 L9.21483691,14.2634034 C7.04795635,13.18194 5.51830419,10.5762863 5.51830419,7.52790602 C5.51830419,3.51227675 8.17193064,0.256415043 11.4445452,0.256415043 C14.0214948,0.256415043 16.2081357,2.27869352 17.0242204,5.09731482 C13.7460324,6.12275165 11.3210854,9.62167248 11.3210854,13.7809427 C11.3210854,16.6444518 12.46786,19.2772043 14.3504958,20.9498567 C14.0481797,21.1024753 13.7119163,21.2580863 13.4227737,21.3914197 C11.9046062,22.0925006 9.80021556,23.0670646 8.28204803,25.0176889 L0.545794652,25.0176889 L0.545794652,25.0176889 Z M19.0767613,31.2702268 L19.0767613,31.2698943 L18.9220565,31.2698943 L8.10099613,31.2698943 C8.10099613,23.4800324 15.0512275,23.4821936 16.5935466,21.4452851 L16.7700384,20.5164401 C14.6031578,19.4349766 13.0735057,16.829323 13.0735057,13.7809427 C13.0735057,9.76531344 15.7271321,6.50945173 18.9997467,6.50945173 C22.2723612,6.50945173 24.9259877,9.76531344 24.9259877,13.7809427 C24.9259877,16.8030554 23.4235271,19.3932476 21.285527,20.4910037 L21.4865081,21.5470307 C23.1786341,23.4851862 29.8976527,23.611537 29.8976527,31.2702268 L19.0767613,31.2702268 L19.0767613,31.2702268 Z M29.7167697,25.0180214 L29.7167697,25.0176889 L29.7167697,25.0176889 C28.1980955,23.0673971 26.0937049,22.0929994 24.5755374,21.3919184 C24.2767679,21.25393 23.9455713,21.1008128 23.6495042,20.9511868 C25.5304511,19.2763731 26.6785769,16.637968 26.6785769,13.7809427 C26.6785769,9.62217123 24.2544742,6.12391541 20.9771307,5.09814607 C21.7927088,2.27902603 23.9793497,0.256747545 26.5568059,0.256747545 C29.8297583,0.256747545 32.4830469,3.51260925 32.4830469,7.52823852 C32.4830469,10.5503512 30.9805863,13.1402109 28.8425863,14.2382995 L29.0435674,15.2943265 C30.7356934,17.2321495 37.454712,17.3583341 37.454712,25.0180214 L29.7167697,25.0180214 Z" id="Shape"></path>
                        </g>
                    </g>
                </g>
            </g>
            <g id="Group-6" transform="translate(2.000000, 220.000000)">
                <g id="Group-4-Copy-5" stroke-width="2" stroke="#FFFFFF" fill-rule="nonzero">
                    <g id="Group-7">
                        <g id="group-(2)">
                            <path d="M0.492446303,22.4746065 C0.492446303,15.4458596 6.76333177,15.4473596 8.15489782,13.6095474 L8.31413857,12.7714918 C6.35905837,11.7957353 4.97892108,9.44476963 4.97892108,6.6943513 C4.97892108,3.07122714 7.37317051,0.133607557 10.3259054,0.133607557 C12.6509728,0.133607557 14.6238818,1.95821972 15.3601989,4.50133668 C12.4024353,5.42654284 10.2145131,8.58346389 10.2145131,12.3361889 C10.2145131,14.9198061 11.249197,17.295222 12.9478158,18.804382 C12.6750493,18.9420829 12.3716538,19.0824839 12.1107733,19.2027847 C10.7409981,19.8353389 8.84229975,20.7146448 7.47252454,22.4746065 L0.492446303,22.4746065 L0.492446303,22.4746065 Z M19.2121154,29.1159941 L19.2121154,29.1156941 L19.0725322,29.1156941 L9.30916944,29.1156941 C9.30916944,22.0872472 15.5800549,22.0891973 16.971621,20.251385 L17.1308617,19.4133294 C15.1757815,18.4375729 13.7956442,16.0866072 13.7956442,13.3361889 C13.7956442,9.71306475 16.1898936,6.77544517 19.1426286,6.77544517 C22.0953635,6.77544517 24.4896129,9.71306475 24.4896129,13.3361889 C24.4896129,16.0629071 23.1340094,18.3999227 21.2049867,19.3903793 L21.3863231,20.3431856 C22.9130533,22.0918973 28.9753258,22.205898 28.9753258,29.1159941 L19.2121154,29.1159941 L19.2121154,29.1159941 Z M30.8121231,22.4749065 L30.8121231,22.4746065 L30.8121231,22.4746065 C29.4418907,20.7149448 27.5431924,19.8357889 26.1734172,19.2032347 C25.9038508,19.0787339 25.6050268,18.9405829 25.3378985,18.805582 C27.0349934,17.294472 28.0708964,14.9139561 28.0708964,12.3361889 C28.0708964,8.58391389 25.8837362,5.42759285 22.9267345,4.50208668 C23.6625944,1.95851972 25.6355034,0.133907559 27.9610279,0.133907559 C30.9140676,0.133907559 33.3080123,3.07152714 33.3080123,6.6946513 C33.3080123,9.42136948 31.9524087,11.7580851 30.0233861,12.7488417 L30.2047225,13.701648 C31.7314527,15.4500597 37.7937251,15.5639104 37.7937251,22.4749065 L30.8121231,22.4749065 Z" id="Shape"></path>
                        </g>
                    </g>
                </g>
                <g id="back-copy" transform="translate(52.500000, 16.000000) scale(1, -1) rotate(-90.000000) translate(-52.500000, -16.000000) translate(44.000000, 8.000000)" fill="#FFFFFF">
                    <polygon id="Shape" points="16.7 7 4.5 7 10.1 1.4 8.7 0 0.7 8 8.7 16 10.1 14.6 4.5 9 16.7 9"></polygon>
                </g>
            </g>
            <g id="Group-2" transform="translate(2.000000, 277.000000)" fill="#FFFFFF">
                <g id="Group-6" transform="translate(44.000000, 8.000000)">
                    <g id="back-copy" transform="translate(8.500000, 9.000000) scale(1, -1) rotate(-90.000000) translate(-8.500000, -9.000000) translate(0.000000, 1.000000)">
                        <polygon id="Shape" points="16.7 7 4.5 7 10.1 1.4 8.7 0 0.7 8 8.7 16 10.1 14.6 4.5 9 16.7 9"></polygon>
                    </g>
                </g>
                <g id="Group-4-Copy-3" fill-rule="nonzero">
                    <g id="Group-7">
                        <g id="group-(2)">
                            <path d="M0.545794652,25.0176889 C0.545794652,17.2274944 7.49602604,17.2291569 9.03834508,15.1922484 L9.21483691,14.2634034 C7.04795635,13.18194 5.51830419,10.5762863 5.51830419,7.52790602 C5.51830419,3.51227675 8.17193064,0.256415043 11.4445452,0.256415043 C14.0214948,0.256415043 16.2081357,2.27869352 17.0242204,5.09731482 C13.7460324,6.12275165 11.3210854,9.62167248 11.3210854,13.7809427 C11.3210854,16.6444518 12.46786,19.2772043 14.3504958,20.9498567 C14.0481797,21.1024753 13.7119163,21.2580863 13.4227737,21.3914197 C11.9046062,22.0925006 9.80021556,23.0670646 8.28204803,25.0176889 L0.545794652,25.0176889 L0.545794652,25.0176889 Z M19.0767613,31.2702268 L19.0767613,31.2698943 L18.9220565,31.2698943 L8.10099613,31.2698943 C8.10099613,23.4800324 15.0512275,23.4821936 16.5935466,21.4452851 L16.7700384,20.5164401 C14.6031578,19.4349766 13.0735057,16.829323 13.0735057,13.7809427 C13.0735057,9.76531344 15.7271321,6.50945173 18.9997467,6.50945173 C22.2723612,6.50945173 24.9259877,9.76531344 24.9259877,13.7809427 C24.9259877,16.8030554 23.4235271,19.3932476 21.285527,20.4910037 L21.4865081,21.5470307 C23.1786341,23.4851862 29.8976527,23.611537 29.8976527,31.2702268 L19.0767613,31.2702268 L19.0767613,31.2702268 Z M29.7167697,25.0180214 L29.7167697,25.0176889 L29.7167697,25.0176889 C28.1980955,23.0673971 26.0937049,22.0929994 24.5755374,21.3919184 C24.2767679,21.25393 23.9455713,21.1008128 23.6495042,20.9511868 C25.5304511,19.2763731 26.6785769,16.637968 26.6785769,13.7809427 C26.6785769,9.62217123 24.2544742,6.12391541 20.9771307,5.09814607 C21.7927088,2.27902603 23.9793497,0.256747545 26.5568059,0.256747545 C29.8297583,0.256747545 32.4830469,3.51260925 32.4830469,7.52823852 C32.4830469,10.5503512 30.9805863,13.1402109 28.8425863,14.2382995 L29.0435674,15.2943265 C30.7356934,17.2321495 37.454712,17.3583341 37.454712,25.0180214 L29.7167697,25.0180214 Z" id="Shape"></path>
                        </g>
                    </g>
                </g>
            </g>
            <g id="Group-9" transform="translate(4.000000, 327.000000)">
                <g id="Group-4-Copy-6" transform="translate(0.000000, 10.000000)" stroke-width="2" stroke="#FFFFFF" fill-rule="nonzero">
                    <g id="Group-7">
                        <g id="group-(2)">
                            <path d="M0.492446303,22.4746065 C0.492446303,15.4458596 6.76333177,15.4473596 8.15489782,13.6095474 L8.31413857,12.7714918 C6.35905837,11.7957353 4.97892108,9.44476963 4.97892108,6.6943513 C4.97892108,3.07122714 7.37317051,0.133607557 10.3259054,0.133607557 C12.6509728,0.133607557 14.6238818,1.95821972 15.3601989,4.50133668 C12.4024353,5.42654284 10.2145131,8.58346389 10.2145131,12.3361889 C10.2145131,14.9198061 11.249197,17.295222 12.9478158,18.804382 C12.6750493,18.9420829 12.3716538,19.0824839 12.1107733,19.2027847 C10.7409981,19.8353389 8.84229975,20.7146448 7.47252454,22.4746065 L0.492446303,22.4746065 L0.492446303,22.4746065 Z M19.2121154,29.1159941 L19.2121154,29.1156941 L19.0725322,29.1156941 L9.30916944,29.1156941 C9.30916944,22.0872472 15.5800549,22.0891973 16.971621,20.251385 L17.1308617,19.4133294 C15.1757815,18.4375729 13.7956442,16.0866072 13.7956442,13.3361889 C13.7956442,9.71306475 16.1898936,6.77544517 19.1426286,6.77544517 C22.0953635,6.77544517 24.4896129,9.71306475 24.4896129,13.3361889 C24.4896129,16.0629071 23.1340094,18.3999227 21.2049867,19.3903793 L21.3863231,20.3431856 C22.9130533,22.0918973 28.9753258,22.205898 28.9753258,29.1159941 L19.2121154,29.1159941 L19.2121154,29.1159941 Z M30.8121231,22.4749065 L30.8121231,22.4746065 L30.8121231,22.4746065 C29.4418907,20.7149448 27.5431924,19.8357889 26.1734172,19.2032347 C25.9038508,19.0787339 25.6050268,18.9405829 25.3378985,18.805582 C27.0349934,17.294472 28.0708964,14.9139561 28.0708964,12.3361889 C28.0708964,8.58391389 25.8837362,5.42759285 22.9267345,4.50208668 C23.6625944,1.95851972 25.6355034,0.133907559 27.9610279,0.133907559 C30.9140676,0.133907559 33.3080123,3.07152714 33.3080123,6.6946513 C33.3080123,9.42136948 31.9524087,11.7580851 30.0233861,12.7488417 L30.2047225,13.701648 C31.7314527,15.4500597 37.7937251,15.5639104 37.7937251,22.4749065 L30.8121231,22.4749065 Z" id="Shape"></path>
                        </g>
                    </g>
                </g>
                <text id="+" font-family="Roboto-Light, Roboto" font-size="33" font-weight="300" fill="#FFFFFF">
                    <tspan x="41" y="35">+</tspan>
                </text>
            </g>
            <g id="Group-3" transform="translate(4.000000, 389.000000)" fill="#FFFFFF">
                <text id="+" font-family="Roboto-Light, Roboto" font-size="33" font-weight="300">
                    <tspan x="41" y="35">+</tspan>
                </text>
                <g id="Group-4-Copy-4" transform="translate(0.000000, 10.000000)" fill-rule="nonzero">
                    <g id="Group-7">
                        <g id="group-(2)">
                            <path d="M0.545794652,25.0176889 C0.545794652,17.2274944 7.49602604,17.2291569 9.03834508,15.1922484 L9.21483691,14.2634034 C7.04795635,13.18194 5.51830419,10.5762863 5.51830419,7.52790602 C5.51830419,3.51227675 8.17193064,0.256415043 11.4445452,0.256415043 C14.0214948,0.256415043 16.2081357,2.27869352 17.0242204,5.09731482 C13.7460324,6.12275165 11.3210854,9.62167248 11.3210854,13.7809427 C11.3210854,16.6444518 12.46786,19.2772043 14.3504958,20.9498567 C14.0481797,21.1024753 13.7119163,21.2580863 13.4227737,21.3914197 C11.9046062,22.0925006 9.80021556,23.0670646 8.28204803,25.0176889 L0.545794652,25.0176889 L0.545794652,25.0176889 Z M19.0767613,31.2702268 L19.0767613,31.2698943 L18.9220565,31.2698943 L8.10099613,31.2698943 C8.10099613,23.4800324 15.0512275,23.4821936 16.5935466,21.4452851 L16.7700384,20.5164401 C14.6031578,19.4349766 13.0735057,16.829323 13.0735057,13.7809427 C13.0735057,9.76531344 15.7271321,6.50945173 18.9997467,6.50945173 C22.2723612,6.50945173 24.9259877,9.76531344 24.9259877,13.7809427 C24.9259877,16.8030554 23.4235271,19.3932476 21.285527,20.4910037 L21.4865081,21.5470307 C23.1786341,23.4851862 29.8976527,23.611537 29.8976527,31.2702268 L19.0767613,31.2702268 L19.0767613,31.2702268 Z M29.7167697,25.0180214 L29.7167697,25.0176889 L29.7167697,25.0176889 C28.1980955,23.0673971 26.0937049,22.0929994 24.5755374,21.3919184 C24.2767679,21.25393 23.9455713,21.1008128 23.6495042,20.9511868 C25.5304511,19.2763731 26.6785769,16.637968 26.6785769,13.7809427 C26.6785769,9.62217123 24.2544742,6.12391541 20.9771307,5.09814607 C21.7927088,2.27902603 23.9793497,0.256747545 26.5568059,0.256747545 C29.8297583,0.256747545 32.4830469,3.51260925 32.4830469,7.52823852 C32.4830469,10.5503512 30.9805863,13.1402109 28.8425863,14.2382995 L29.0435674,15.2943265 C30.7356934,17.2321495 37.454712,17.3583341 37.454712,25.0180214 L29.7167697,25.0180214 Z" id="Shape"></path>
                        </g>
                    </g>
                </g>
            </g>
            <g id="Group-10" transform="translate(2.000000, 469.000000)" fill-rule="nonzero">
                <g id="Group-4-Copy-7" stroke-width="2" stroke="#FFFFFF">
                    <g id="Group-7">
                        <g id="group-(2)">
                            <path d="M0.492446303,22.4746065 C0.492446303,15.4458596 6.76333177,15.4473596 8.15489782,13.6095474 L8.31413857,12.7714918 C6.35905837,11.7957353 4.97892108,9.44476963 4.97892108,6.6943513 C4.97892108,3.07122714 7.37317051,0.133607557 10.3259054,0.133607557 C12.6509728,0.133607557 14.6238818,1.95821972 15.3601989,4.50133668 C12.4024353,5.42654284 10.2145131,8.58346389 10.2145131,12.3361889 C10.2145131,14.9198061 11.249197,17.295222 12.9478158,18.804382 C12.6750493,18.9420829 12.3716538,19.0824839 12.1107733,19.2027847 C10.7409981,19.8353389 8.84229975,20.7146448 7.47252454,22.4746065 L0.492446303,22.4746065 L0.492446303,22.4746065 Z M19.2121154,29.1159941 L19.2121154,29.1156941 L19.0725322,29.1156941 L9.30916944,29.1156941 C9.30916944,22.0872472 15.5800549,22.0891973 16.971621,20.251385 L17.1308617,19.4133294 C15.1757815,18.4375729 13.7956442,16.0866072 13.7956442,13.3361889 C13.7956442,9.71306475 16.1898936,6.77544517 19.1426286,6.77544517 C22.0953635,6.77544517 24.4896129,9.71306475 24.4896129,13.3361889 C24.4896129,16.0629071 23.1340094,18.3999227 21.2049867,19.3903793 L21.3863231,20.3431856 C22.9130533,22.0918973 28.9753258,22.205898 28.9753258,29.1159941 L19.2121154,29.1159941 L19.2121154,29.1159941 Z M30.8121231,22.4749065 L30.8121231,22.4746065 L30.8121231,22.4746065 C29.4418907,20.7149448 27.5431924,19.8357889 26.1734172,19.2032347 C25.9038508,19.0787339 25.6050268,18.9405829 25.3378985,18.805582 C27.0349934,17.294472 28.0708964,14.9139561 28.0708964,12.3361889 C28.0708964,8.58391389 25.8837362,5.42759285 22.9267345,4.50208668 C23.6625944,1.95851972 25.6355034,0.133907559 27.9610279,0.133907559 C30.9140676,0.133907559 33.3080123,3.07152714 33.3080123,6.6946513 C33.3080123,9.42136948 31.9524087,11.7580851 30.0233861,12.7488417 L30.2047225,13.701648 C31.7314527,15.4500597 37.7937251,15.5639104 37.7937251,22.4749065 L30.8121231,22.4749065 Z" id="Shape"></path>
                        </g>
                    </g>
                </g>
                <g id="ic_block_black_24px" transform="translate(45.000000, 4.000000)" fill="#FFFFFF">
                    <path d="M10,0 C4.48,0 0,4.48 0,10 C0,15.52 4.48,20 10,20 C15.52,20 20,15.52 20,10 C20,4.48 15.52,0 10,0 Z M2,10 C2,5.58 5.58,2 10,2 C11.85,2 13.55,2.63 14.9,3.69 L3.69,14.9 C2.63,13.55 2,11.85 2,10 Z M10,18 C8.15,18 6.45,17.37 5.1,16.31 L16.31,5.1 C17.37,6.45 18,8.15 18,10 C18,14.42 14.42,18 10,18 Z" id="Shape"></path>
                </g>
            </g>
            <g id="Group-4" transform="translate(1.000000, 527.000000)" fill-rule="nonzero" fill="#FFFFFF">
                <g id="ic_block_black_24px" transform="translate(46.000000, 6.000000)">
                    <path d="M10,0 C4.48,0 0,4.48 0,10 C0,15.52 4.48,20 10,20 C15.52,20 20,15.52 20,10 C20,4.48 15.52,0 10,0 Z M2,10 C2,5.58 5.58,2 10,2 C11.85,2 13.55,2.63 14.9,3.69 L3.69,14.9 C2.63,13.55 2,11.85 2,10 Z M10,18 C8.15,18 6.45,17.37 5.1,16.31 L16.31,5.1 C17.37,6.45 18,8.15 18,10 C18,14.42 14.42,18 10,18 Z" id="Shape"></path>
                </g>
                <g id="Group-4-Copy-4">
                    <g id="Group-7-Copy-2">
                        <g id="group-(2)">
                            <path d="M0.545794652,25.0176889 C0.545794652,17.2274944 7.49602604,17.2291569 9.03834508,15.1922484 L9.21483691,14.2634034 C7.04795635,13.18194 5.51830419,10.5762863 5.51830419,7.52790602 C5.51830419,3.51227675 8.17193064,0.256415043 11.4445452,0.256415043 C14.0214948,0.256415043 16.2081357,2.27869352 17.0242204,5.09731482 C13.7460324,6.12275165 11.3210854,9.62167248 11.3210854,13.7809427 C11.3210854,16.6444518 12.46786,19.2772043 14.3504958,20.9498567 C14.0481797,21.1024753 13.7119163,21.2580863 13.4227737,21.3914197 C11.9046062,22.0925006 9.80021556,23.0670646 8.28204803,25.0176889 L0.545794652,25.0176889 L0.545794652,25.0176889 Z M19.0767613,31.2702268 L19.0767613,31.2698943 L18.9220565,31.2698943 L8.10099613,31.2698943 C8.10099613,23.4800324 15.0512275,23.4821936 16.5935466,21.4452851 L16.7700384,20.5164401 C14.6031578,19.4349766 13.0735057,16.829323 13.0735057,13.7809427 C13.0735057,9.76531344 15.7271321,6.50945173 18.9997467,6.50945173 C22.2723612,6.50945173 24.9259877,9.76531344 24.9259877,13.7809427 C24.9259877,16.8030554 23.4235271,19.3932476 21.285527,20.4910037 L21.4865081,21.5470307 C23.1786341,23.4851862 29.8976527,23.611537 29.8976527,31.2702268 L19.0767613,31.2702268 L19.0767613,31.2702268 Z M29.7167697,25.0180214 L29.7167697,25.0176889 L29.7167697,25.0176889 C28.1980955,23.0673971 26.0937049,22.0929994 24.5755374,21.3919184 C24.2767679,21.25393 23.9455713,21.1008128 23.6495042,20.9511868 C25.5304511,19.2763731 26.6785769,16.637968 26.6785769,13.7809427 C26.6785769,9.62217123 24.2544742,6.12391541 20.9771307,5.09814607 C21.7927088,2.27902603 23.9793497,0.256747545 26.5568059,0.256747545 C29.8297583,0.256747545 32.4830469,3.51260925 32.4830469,7.52823852 C32.4830469,10.5503512 30.9805863,13.1402109 28.8425863,14.2382995 L29.0435674,15.2943265 C30.7356934,17.2321495 37.454712,17.3583341 37.454712,25.0180214 L29.7167697,25.0180214 Z" id="Shape"></path>
                        </g>
                    </g>
                </g>
            </g>
            <polygon id="Shape" fill="#ABABAB" fill-rule="nonzero" points="108 13.5107143 106.489286 12 100.5 17.9892857 94.5107143 12 93 13.5107143 98.9892857 19.5 93 25.4892857 94.5107143 27 100.5 21.0107143 106.489286 27 108 25.4892857 102.010714 19.5"></polygon>
            <g id="ic_block_black_24px" transform="translate(121.000000, 10.000000)" fill-rule="nonzero" fill="#ABABAB">
                <path d="M10,0 C4.48,0 0,4.48 0,10 C0,15.52 4.48,20 10,20 C15.52,20 20,15.52 20,10 C20,4.48 15.52,0 10,0 Z M2,10 C2,5.58 5.58,2 10,2 C11.85,2 13.55,2.63 14.9,3.69 L3.69,14.9 C2.63,13.55 2,11.85 2,10 Z M10,18 C8.15,18 6.45,17.37 5.1,16.31 L16.31,5.1 C17.37,6.45 18,8.15 18,10 C18,14.42 14.42,18 10,18 Z" id="Shape"></path>
            </g>
            <g id="ic_report_problem_black_24px-(1)" transform="translate(154.000000, 10.000000)" fill-rule="nonzero" fill="#ABABAB">
                <path d="M0,19 L22,19 L11,0 L0,19 Z M12,16 L10,16 L10,14 L12,14 L12,16 Z M12,12 L10,12 L10,8 L12,8 L12,12 Z" id="Shape"></path>
            </g>
            <g id="Group-Copy-3" transform="translate(197.000000, 18.000000)" fill="#ABABAB" opacity="0.98999995">
                <circle id="Oval" cx="2" cy="2" r="2"></circle>
                <circle id="Oval-Copy" cx="10" cy="2" r="2"></circle>
                <circle id="Oval-Copy-2" cx="17" cy="2" r="2"></circle>
            </g>
            <g id="search" transform="translate(236.000000, 15.000000)" fill-rule="nonzero" fill="#ABABAB">
                <g id="Group">
                    <path d="M6.06666667,11.5948718 C3.01352328,11.5948718 0.538461538,9.11981005 0.538461538,6.06666667 C0.538461538,3.01352328 3.01352328,0.538461538 6.06666667,0.538461538 C9.11981005,0.538461538 11.5948718,3.01352328 11.5948718,6.06666667 C11.5948718,9.11981005 9.11981005,11.5948718 6.06666667,11.5948718 Z M6.06666667,9.87179487 C8.16818095,9.87179487 9.87179487,8.16818095 9.87179487,6.06666667 C9.87179487,3.96515239 8.16818095,2.26153846 6.06666667,2.26153846 C3.96515239,2.26153846 2.26153846,3.96515239 2.26153846,6.06666667 C2.26153846,8.16818095 3.96515239,9.87179487 6.06666667,9.87179487 Z" id="Oval"></path>
                    <path d="M13.2091997,11.9908003 L9.97364413,8.75524476 C9.63719244,8.41879306 9.09169645,8.41879306 8.75524476,8.75524476 C8.41879306,9.09169645 8.41879306,9.63719244 8.75524476,9.97364413 L11.9908003,13.2091997 C12.327252,13.5456514 12.872748,13.5456514 13.2091997,13.2091997 C13.5456514,12.872748 13.5456514,12.327252 13.2091997,11.9908003 Z" id="Shape"></path>
                </g>
            </g>
            <g id="ic_check_box_outline_blank_black_24px" transform="translate(93.000000, 57.000000)" fill-rule="nonzero" fill="#ABABAB">
                <path d="M16,2 L16,16 L2,16 L2,2 L16,2 L16,2 Z M16,0 L2,0 C0.9,0 0,0.9 0,2 L0,16 C0,17.1 0.9,18 2,18 L16,18 C17.1,18 18,17.1 18,16 L18,2 C18,0.9 17.1,0 16,0 Z" id="Shape"></path>
            </g>
            <polygon id="Shape" fill="#ABABAB" fill-rule="nonzero" points="137 62.0071429 135.992857 61 132 64.9928571 128.007143 61 127 62.0071429 130.992857 66 127 69.9928571 128.007143 71 132 67.0071429 135.992857 71 137 69.9928571 133.007143 66"></polygon>
            <g id="ic_check_box_black_24px" transform="translate(157.000000, 57.000000)" fill-rule="nonzero" fill="#39C1C7">
                <path d="M16,0 L2,0 C0.89,0 0,0.9 0,2 L0,16 C0,17.1 0.89,18 2,18 L16,18 C17.11,18 18,17.1 18,16 L18,2 C18,0.9 17.11,0 16,0 Z M7,14 L2,9 L3.41,7.59 L7,11.17 L14.59,3.58 L16,5 L7,14 Z" id="Shape"></path>
            </g>
            <polygon id="Shape-Copy-3" fill="#ABABAB" fill-rule="nonzero" points="202.59 68.58 198.42 64.41 197 65.82 202.59 71.41 214.59 59.41 213.18 58"></polygon>
        </g>
    </g>
</svg>